<svg width="394" height="394" viewBox="0 0 394 394" fill="none" xmlns="http://www.w3.org/2000/svg">
<path d="M200.261 1.86234C196.639 5.10884 193.252 8.32019 190.082 11.5022C188.283 13.3013 178.485 23.0173 175.643 26.0587C168.071 34.1809 162.229 42.1682 157.84 49.968C136.04 88.7033 150.257 122.68 167.433 145.4C167.937 146.103 168.44 146.771 168.962 147.422C172.695 152.291 176.574 156.534 180.196 160.085C189.654 169.637 197.43 174.999 197.43 174.999C203.103 169.913 216.341 156.651 218.005 154.987C268.185 104.807 251.502 59.5493 230.276 31.4793C229.772 30.7761 229.268 30.1081 228.747 29.4576C224.996 24.5703 221.135 20.3451 217.513 16.7939C208.055 7.24193 200.261 1.86234 200.261 1.86234Z" fill="url(#paint0_linear_254_2)"/>
<path d="M203.245 4.95145C201.399 2.98831 200.285 1.94521 200.285 1.94521C200.098 2.17962 199.922 2.41402 199.734 2.64842C152.103 48.0057 152.953 92.3843 164.972 124.738C172.333 149.737 187.809 165.882 194.449 171.912C196.3 173.881 197.414 174.924 197.414 174.924C197.601 174.69 197.777 174.455 197.965 174.221C245.596 128.864 244.746 84.4849 232.727 52.1312C225.361 27.1261 209.884 10.9815 203.245 4.95145Z" fill="url(#paint1_linear_254_2)"/>
<path d="M391.98 193.582C388.734 197.203 385.522 200.59 382.34 203.761C380.541 205.56 370.825 215.358 367.784 218.2C359.662 225.771 351.674 231.614 343.874 236.003C305.139 257.802 271.162 243.586 248.443 226.41C247.739 225.906 247.071 225.402 246.421 224.88C241.551 221.147 237.308 217.268 233.757 213.647C224.205 204.188 218.843 196.412 218.843 196.412C223.93 190.739 237.191 177.501 238.855 175.837C289.036 125.657 334.293 142.341 362.363 163.566C363.066 164.07 363.734 164.574 364.385 165.096C369.272 168.846 373.497 172.708 377.049 176.329C386.6 185.788 391.98 193.582 391.98 193.582Z" fill="url(#paint2_linear_254_2)"/>
<path d="M388.891 190.598C390.854 192.444 391.897 193.557 391.897 193.557C391.663 193.745 391.429 193.921 391.194 194.108C345.837 241.739 301.458 240.89 269.105 228.87C244.105 221.51 227.961 206.034 221.931 199.394C219.962 197.542 218.919 196.429 218.919 196.429C219.153 196.241 219.388 196.066 219.622 195.878C264.979 148.247 309.358 149.097 341.711 161.116C366.717 168.482 382.861 183.959 388.891 190.598Z" fill="url(#paint3_linear_254_2)"/>
<path d="M1.93146 200.192C5.17796 196.57 8.38931 193.183 11.5713 190.013C13.3704 188.214 23.0865 178.416 26.1279 175.573C34.25 168.002 42.2373 162.16 50.0371 157.77C88.7725 135.971 122.749 150.187 145.469 167.363C146.172 167.867 146.84 168.371 147.491 168.893C152.361 172.626 156.603 176.505 160.154 180.127C169.706 189.585 175.068 197.361 175.068 197.361C169.982 203.034 156.72 216.272 155.056 217.936C104.876 268.116 59.6184 251.433 31.5485 230.207C30.8452 229.703 30.1772 229.199 29.5267 228.678C24.6394 224.927 20.4142 221.065 16.863 217.444C7.31103 207.986 1.93146 200.192 1.93146 200.192Z" fill="url(#paint4_linear_254_2)"/>
<path d="M5.02654 203.17C3.06341 201.324 2.0203 200.21 2.0203 200.21C2.2547 200.023 2.48912 199.847 2.72352 199.659C48.0808 152.028 92.4594 152.878 124.813 164.897C149.812 172.257 165.957 187.734 171.987 194.374C173.956 196.225 174.999 197.339 174.999 197.339C174.765 197.526 174.53 197.702 174.296 197.89C128.939 245.521 84.56 244.671 52.2063 232.652C27.2012 225.286 11.0566 209.809 5.02654 203.17Z" fill="url(#paint5_linear_254_2)"/>
<defs>
<linearGradient id="paint0_linear_254_2" x1="206.678" y1="57.8205" x2="178.08" y2="169.62" gradientUnits="userSpaceOnUse">
<stop stop-color="#5AB947"/>
<stop offset="1" stop-color="#055998"/>
</linearGradient>
<linearGradient id="paint1_linear_254_2" x1="182.846" y1="174.98" x2="205.263" y2="53.3992" gradientUnits="userSpaceOnUse">
<stop stop-color="#1EA657"/>
<stop offset="1" stop-color="#055998"/>
</linearGradient>
<linearGradient id="paint2_linear_254_2" x1="336.022" y1="187.165" x2="224.223" y2="215.762" gradientUnits="userSpaceOnUse">
<stop stop-color="#5AB947"/>
<stop offset="1" stop-color="#055998"/>
</linearGradient>
<linearGradient id="paint3_linear_254_2" x1="218.87" y1="210.981" x2="340.451" y2="188.565" gradientUnits="userSpaceOnUse">
<stop stop-color="#1EA657"/>
<stop offset="1" stop-color="#055998"/>
</linearGradient>
<linearGradient id="paint4_linear_254_2" x1="57.8955" y1="206.603" x2="169.695" y2="178.005" gradientUnits="userSpaceOnUse">
<stop stop-color="#5AB947"/>
<stop offset="1" stop-color="#055998"/>
</linearGradient>
<linearGradient id="paint5_linear_254_2" x1="175.025" y1="182.759" x2="53.4441" y2="205.175" gradientUnits="userSpaceOnUse">
<stop stop-color="#1EA657"/>
<stop offset="1" stop-color="#055998"/>
</linearGradient>
</defs>
</svg>
