<svg width="2284" height="830" viewBox="0 0 2284 830" fill="none" xmlns="http://www.w3.org/2000/svg">
<path d="M677.323 496.419L728.866 456.834V745.476H677.323V561.57L626.604 600.33L584.545 632.905L542.486 600.33L491.767 561.57V745.476H440.224V456.834L491.767 496.419L584.545 567.755L677.323 496.419ZM1021.96 693.932L1048.35 745.476H990.625L964.235 693.932L901.146 570.229L838.057 693.932L811.667 745.476H753.939L780.329 693.932L901.146 456.834L1021.96 693.932ZM1310.34 456.834L1361.88 457.246V745.888L1310.34 706.303L1124.78 563.219V745.888H1073.24V458.071L1124.78 497.656L1310.34 640.74V456.834ZM1547.36 508.377C1496.22 508.377 1454.58 550.024 1454.58 601.155C1454.58 652.286 1496.22 693.932 1547.36 693.932H1640.13V638.678H1547.36V587.135H1691.68V745.476H1547.36C1467.77 745.476 1403.03 680.737 1403.03 601.155C1403.03 521.572 1467.77 456.834 1547.36 456.834H1691.68V508.377H1547.36ZM1984.77 693.932L2011.16 745.476H1953.44L1927.04 693.932L1863.96 570.229L1800.87 693.932L1774.48 745.476H1716.75L1743.14 693.932L1863.96 456.834L1984.77 693.932ZM2111.77 693.932L2263.1 694.345V745.888H2116.72C2102.29 745.888 2088.68 742.589 2076.31 736.404C2058.16 727.332 2043.32 712.488 2034.66 694.345C2028.48 681.974 2025.18 668.367 2025.18 653.935V457.246H2076.72V658.883C2079.19 677.026 2093.63 691.458 2111.77 693.932Z" fill="white"/>
<path d="M1.13967 4.81546C0.364216 19.016 0.000722005 32.6592 0.024955 45.7935C0.024955 53.2331 -0.14468 93.5811 0.267282 105.746C1.40623 138.194 5.84088 166.789 12.8927 191.992C47.9094 317.155 147.556 358.012 230.045 369.474C232.541 369.886 234.964 370.226 237.388 370.492C255.175 372.843 271.968 373.594 286.799 373.449C326.105 373.642 353.27 368.65 353.27 368.65C354.482 346.404 354.433 291.614 354.433 284.731C354.433 77.2238 226.362 18.1436 124.437 3.99154C121.941 3.57958 119.518 3.24032 117.095 2.97376C99.235 0.623155 82.5142 -0.128073 67.6836 0.0173257C28.3776 -0.176539 1.13967 4.81546 1.13967 4.81546Z" fill="white"/>
<path d="M13.6946 5.03386C5.81882 4.79153 1.35992 4.93695 1.35992 4.93695C1.45686 5.80934 1.57803 6.65748 1.67497 7.52987C-3.02625 199.795 90.4891 289.796 182.235 331.841C249.143 368.312 314.524 369.693 340.72 368.433C348.62 368.675 353.078 368.53 353.078 368.53C352.982 367.657 352.86 366.809 352.763 365.937C357.465 173.672 263.949 83.6701 172.203 41.6258C105.271 5.15504 39.8905 3.77375 13.6946 5.03386Z" fill="white"/>
<path d="M793.949 4.81546C794.724 19.016 795.088 32.6592 795.064 45.7935C795.064 53.2331 795.233 93.5811 794.821 105.746C793.682 138.194 789.248 166.789 782.196 191.992C747.179 317.155 647.533 358.012 565.044 369.474C562.548 369.886 560.124 370.226 557.701 370.492C539.914 372.843 523.12 373.594 508.29 373.449C468.984 373.642 441.819 368.65 441.819 368.65C440.607 346.404 440.655 291.614 440.655 284.731C440.655 77.2238 568.727 18.1436 670.651 3.99154C673.147 3.57958 675.571 3.24032 677.994 2.97376C695.854 0.623155 712.574 -0.128073 727.405 0.0173257C766.711 -0.176539 793.949 4.81546 793.949 4.81546Z" fill="white"/>
<path d="M781.395 5.03386C789.271 4.79153 793.73 4.93695 793.73 4.93695C793.633 5.80934 793.512 6.65748 793.415 7.52987C798.116 199.795 704.601 289.796 612.854 331.841C545.947 368.312 480.566 369.693 454.37 368.433C446.47 368.675 442.011 368.53 442.011 368.53C442.108 367.657 442.229 366.809 442.326 365.937C437.625 173.672 531.14 83.6701 622.887 41.6258C689.818 5.15504 755.199 3.77375 781.395 5.03386Z" fill="white"/>
<path d="M1.13967 824.959C0.364216 810.759 0.000722005 797.115 0.024955 783.981C0.024955 776.541 -0.14468 736.193 0.267282 724.028C1.40623 691.58 5.84088 662.985 12.8927 637.783C47.9094 512.619 147.556 471.762 230.045 460.3C232.541 459.888 234.964 459.549 237.388 459.282C255.175 456.932 271.968 456.181 286.799 456.326C326.105 456.132 353.27 461.124 353.27 461.124C354.482 483.37 354.433 538.161 354.433 545.043C354.433 752.551 226.362 811.631 124.437 825.783C121.941 826.195 119.518 826.534 117.095 826.801C99.235 829.151 82.5142 829.903 67.6836 829.757C28.3776 829.951 1.13967 824.959 1.13967 824.959Z" fill="white"/>
<path d="M13.6946 824.717C5.81882 824.959 1.35992 824.814 1.35992 824.814C1.45686 823.941 1.57803 823.093 1.67497 822.221C-3.02625 629.956 90.4891 539.954 182.235 497.91C249.143 461.439 314.524 460.058 340.72 461.318C348.62 461.076 353.078 461.221 353.078 461.221C352.982 462.093 352.86 462.942 352.763 463.814C357.465 656.079 263.949 746.081 172.203 788.125C105.271 824.596 39.8905 825.977 13.6946 824.717Z" fill="white"/>
</svg>
