<svg width="2285" height="895" viewBox="0 0 2285 895" fill="none" xmlns="http://www.w3.org/2000/svg">
<path d="M677.323 496.419L728.866 456.834V745.476H677.323V561.57L626.604 600.33L584.545 632.905L542.486 600.33L491.767 561.57V745.476H440.224V456.834L491.767 496.419L584.545 567.755L677.323 496.419ZM1021.96 693.932L1048.35 745.476H990.625L964.235 693.932L901.146 570.229L838.057 693.932L811.667 745.476H753.938L780.329 693.932L901.146 456.834L1021.96 693.932ZM1310.34 456.834L1361.88 457.246V745.888L1310.34 706.303L1124.78 563.219V745.888H1073.24V458.071L1124.78 497.656L1310.34 640.74V456.834ZM1547.36 508.377C1496.22 508.377 1454.58 550.024 1454.58 601.155C1454.58 652.286 1496.22 693.932 1547.36 693.932H1640.13V638.678H1547.36V587.135H1691.68V745.476H1547.36C1467.77 745.476 1403.03 680.737 1403.03 601.155C1403.03 521.572 1467.77 456.834 1547.36 456.834H1691.68V508.377H1547.36ZM1984.77 693.932L2011.16 745.476H1953.43L1927.04 693.932L1863.96 570.229L1800.87 693.932L1774.48 745.476H1716.75L1743.14 693.932L1863.96 456.834L1984.77 693.932ZM2111.77 693.932L2263.1 694.345V745.888H2116.72C2102.29 745.888 2088.68 742.589 2076.31 736.404C2058.16 727.332 2043.32 712.488 2034.66 694.345C2028.48 681.974 2025.18 668.367 2025.18 653.935V457.246H2076.72V658.883C2079.19 677.026 2093.63 691.458 2111.77 693.932Z" fill="white"/>
<path d="M1.13955 4.81546C0.364093 19.016 0.000599935 32.6592 0.024833 45.7935C0.024833 53.2331 -0.144802 93.5811 0.26716 105.746C1.40611 138.194 5.84076 166.789 12.8926 191.992C47.9093 317.155 147.556 358.012 230.045 369.474C232.541 369.886 234.964 370.226 237.387 370.492C255.175 372.843 271.968 373.594 286.799 373.449C326.105 373.642 353.27 368.65 353.27 368.65C354.482 346.404 354.433 291.614 354.433 284.731C354.433 77.2238 226.361 18.1436 124.437 3.99154C121.941 3.57958 119.518 3.24032 117.095 2.97376C99.2349 0.623155 82.5141 -0.128073 67.6835 0.0173257C28.3775 -0.176539 1.13955 4.81546 1.13955 4.81546Z" fill="white"/>
<path d="M13.6945 5.03386C5.81875 4.79153 1.35986 4.93695 1.35986 4.93695C1.4568 5.80934 1.57797 6.65748 1.6749 7.52987C-3.02631 199.795 90.489 289.796 182.235 331.841C249.143 368.312 314.524 369.693 340.72 368.433C348.62 368.675 353.078 368.53 353.078 368.53C352.981 367.657 352.86 366.809 352.763 365.937C357.465 173.672 263.949 83.6701 172.203 41.6258C105.271 5.15504 39.8904 3.77375 13.6945 5.03386Z" fill="white"/>
<path d="M793.949 4.81546C794.725 19.016 795.088 32.6592 795.064 45.7935C795.064 53.2331 795.233 93.5811 794.821 105.746C793.683 138.194 789.248 166.789 782.196 191.992C747.179 317.155 647.533 358.012 565.044 369.474C562.548 369.886 560.124 370.226 557.701 370.492C539.914 372.843 523.121 373.594 508.29 373.449C468.984 373.642 441.819 368.65 441.819 368.65C440.607 346.404 440.656 291.614 440.656 284.731C440.656 77.2238 568.727 18.1436 670.651 3.99154C673.147 3.57958 675.571 3.24032 677.994 2.97376C695.854 0.623155 712.574 -0.128073 727.405 0.0173257C766.711 -0.176539 793.949 4.81546 793.949 4.81546Z" fill="white"/>
<path d="M781.395 5.03362C789.271 4.79129 793.73 4.9367 793.73 4.9367C793.633 5.80909 793.512 6.65723 793.415 7.52962C798.116 199.795 704.601 289.796 612.854 331.841C545.947 368.311 480.566 369.693 454.37 368.432C446.47 368.675 442.011 368.529 442.011 368.529C442.108 367.657 442.229 366.809 442.326 365.936C437.625 173.671 531.14 83.6699 622.887 41.6255C689.818 5.1548 755.199 3.7735 781.395 5.03362Z" fill="white"/>
<path d="M1.13955 824.959C0.364093 810.759 0.000599935 797.115 0.024833 783.981C0.024833 776.541 -0.144802 736.193 0.26716 724.028C1.40611 691.58 5.84076 662.985 12.8926 637.783C47.9093 512.619 147.556 471.762 230.045 460.3C232.541 459.888 234.964 459.549 237.387 459.282C255.175 456.932 271.968 456.181 286.799 456.326C326.105 456.132 353.27 461.124 353.27 461.124C354.482 483.37 354.433 538.161 354.433 545.043C354.433 752.551 226.361 811.631 124.437 825.783C121.941 826.195 119.518 826.534 117.095 826.801C99.2349 829.151 82.5141 829.903 67.6835 829.757C28.3775 829.951 1.13955 824.959 1.13955 824.959Z" fill="white"/>
<path d="M13.6945 824.717C5.81875 824.959 1.35986 824.814 1.35986 824.814C1.4568 823.941 1.57797 823.093 1.6749 822.221C-3.02631 629.956 90.489 539.954 182.235 497.91C249.143 461.439 314.524 460.058 340.72 461.318C348.62 461.075 353.078 461.221 353.078 461.221C352.981 462.093 352.86 462.941 352.763 463.814C357.465 656.079 263.949 746.08 172.203 788.125C105.271 824.595 39.8904 825.977 13.6945 824.717Z" fill="white"/>
<path d="M473.98 893.84C466.7 893.84 459.7 892.673 452.98 890.34C446.353 887.913 441.22 884.833 437.58 881.1L441.64 873.12C445.093 876.48 449.713 879.327 455.5 881.66C461.38 883.9 467.54 885.02 473.98 885.02C480.14 885.02 485.133 884.273 488.96 882.78C492.88 881.193 495.727 879.093 497.5 876.48C499.367 873.867 500.3 870.973 500.3 867.8C500.3 863.973 499.18 860.893 496.94 858.56C494.793 856.227 491.947 854.407 488.4 853.1C484.853 851.7 480.933 850.487 476.64 849.46C472.347 848.433 468.053 847.36 463.76 846.24C459.467 845.027 455.5 843.44 451.86 841.48C448.313 839.52 445.42 836.953 443.18 833.78C441.033 830.513 439.96 826.267 439.96 821.04C439.96 816.187 441.22 811.753 443.74 807.74C446.353 803.633 450.32 800.367 455.64 797.94C460.96 795.42 467.773 794.16 476.08 794.16C481.587 794.16 487.047 794.953 492.46 796.54C497.873 798.033 502.54 800.133 506.46 802.84L502.96 811.1C498.76 808.3 494.28 806.247 489.52 804.94C484.853 803.633 480.327 802.98 475.94 802.98C470.06 802.98 465.207 803.773 461.38 805.36C457.553 806.947 454.707 809.093 452.84 811.8C451.067 814.413 450.18 817.4 450.18 820.76C450.18 824.587 451.253 827.667 453.4 830C455.64 832.333 458.533 834.153 462.08 835.46C465.72 836.767 469.687 837.933 473.98 838.96C478.273 839.987 482.52 841.107 486.72 842.32C491.013 843.533 494.933 845.12 498.48 847.08C502.12 848.947 505.013 851.467 507.16 854.64C509.4 857.813 510.52 861.967 510.52 867.1C510.52 871.86 509.213 876.293 506.6 880.4C503.987 884.413 499.973 887.68 494.56 890.2C489.24 892.627 482.38 893.84 473.98 893.84ZM561.093 893V795H628.293V803.96H571.453V884.04H630.393V893H561.093ZM570.333 847.64V838.82H622.133V847.64H570.333ZM682.745 893V795H719.425C731.838 795 741.592 797.987 748.685 803.96C755.872 809.84 759.465 818.053 759.465 828.6C759.465 835.507 757.832 841.48 754.565 846.52C751.392 851.467 746.818 855.293 740.845 858C734.872 860.613 727.732 861.92 719.425 861.92H688.485L693.105 857.16V893H682.745ZM749.665 893L724.465 857.44H735.665L761.005 893H749.665ZM693.105 858L688.485 853.1H719.145C728.945 853.1 736.365 850.953 741.405 846.66C746.538 842.367 749.105 836.347 749.105 828.6C749.105 820.76 746.538 814.693 741.405 810.4C736.365 806.107 728.945 803.96 719.145 803.96H688.485L693.105 799.06V858ZM839.777 893L796.377 795H807.577L848.177 887.26H842.017L882.897 795H893.397L849.997 893H839.777ZM935.62 893V795H1002.82V803.96H945.98V884.04H1004.92V893H935.62ZM944.86 847.64V838.82H996.66V847.64H944.86ZM1192.05 894.54L1138.01 838.96C1134.75 835.507 1132.13 832.52 1130.17 830C1128.31 827.387 1127 824.913 1126.25 822.58C1125.51 820.247 1125.13 817.773 1125.13 815.16C1125.13 810.96 1126.11 807.32 1128.07 804.24C1130.13 801.067 1133.02 798.64 1136.75 796.96C1140.49 795.187 1144.87 794.3 1149.91 794.3C1154.49 794.3 1158.45 795.093 1161.81 796.68C1165.27 798.173 1167.93 800.367 1169.79 803.26C1171.75 806.153 1172.73 809.653 1172.73 813.76C1172.73 817.307 1171.85 820.62 1170.07 823.7C1168.39 826.78 1165.59 829.813 1161.67 832.8C1157.75 835.693 1152.43 838.96 1145.71 842.6C1139.83 845.867 1135.17 848.853 1131.71 851.56C1128.35 854.267 1125.97 856.927 1124.57 859.54C1123.17 862.06 1122.47 864.86 1122.47 867.94C1122.47 871.487 1123.45 874.613 1125.41 877.32C1127.47 879.933 1130.27 881.987 1133.81 883.48C1137.45 884.88 1141.61 885.58 1146.27 885.58C1152.81 885.58 1158.64 884.227 1163.77 881.52C1168.91 878.813 1173.2 874.707 1176.65 869.2C1180.2 863.693 1182.77 856.787 1184.35 848.48L1192.33 851C1190.56 860.333 1187.53 868.173 1183.23 874.52C1178.94 880.867 1173.62 885.673 1167.27 888.94C1160.93 892.207 1153.74 893.84 1145.71 893.84C1139.37 893.84 1133.72 892.813 1128.77 890.76C1123.83 888.613 1119.91 885.673 1117.01 881.94C1114.21 878.207 1112.81 873.867 1112.81 868.92C1112.81 864.72 1113.75 860.893 1115.61 857.44C1117.48 853.893 1120.47 850.44 1124.57 847.08C1128.77 843.627 1134.33 840.033 1141.23 836.3C1147.11 833.033 1151.69 830.233 1154.95 827.9C1158.31 825.473 1160.69 823.187 1162.09 821.04C1163.49 818.8 1164.19 816.42 1164.19 813.9C1164.19 810.26 1162.93 807.32 1160.41 805.08C1157.99 802.84 1154.49 801.72 1149.91 801.72C1144.97 801.72 1141.14 802.98 1138.43 805.5C1135.73 807.927 1134.37 811.1 1134.37 815.02C1134.37 816.98 1134.65 818.847 1135.21 820.62C1135.87 822.393 1137.03 824.353 1138.71 826.5C1140.49 828.647 1142.91 831.353 1145.99 834.62L1197.79 887.96L1192.05 894.54ZM1350.77 893.84C1343.39 893.84 1336.58 892.627 1330.33 890.2C1324.07 887.68 1318.66 884.18 1314.09 879.7C1309.51 875.22 1305.92 869.947 1303.31 863.88C1300.79 857.813 1299.53 851.187 1299.53 844C1299.53 836.813 1300.79 830.187 1303.31 824.12C1305.92 818.053 1309.51 812.78 1314.09 808.3C1318.75 803.82 1324.21 800.367 1330.47 797.94C1336.72 795.42 1343.53 794.16 1350.91 794.16C1358 794.16 1364.67 795.373 1370.93 797.8C1377.18 800.133 1382.45 803.68 1386.75 808.44L1380.17 815.02C1376.15 810.913 1371.72 807.973 1366.87 806.2C1362.01 804.333 1356.79 803.4 1351.19 803.4C1345.31 803.4 1339.85 804.427 1334.81 806.48C1329.77 808.44 1325.38 811.287 1321.65 815.02C1317.91 818.66 1314.97 822.953 1312.83 827.9C1310.77 832.753 1309.75 838.12 1309.75 844C1309.75 849.88 1310.77 855.293 1312.83 860.24C1314.97 865.093 1317.91 869.387 1321.65 873.12C1325.38 876.76 1329.77 879.607 1334.81 881.66C1339.85 883.62 1345.31 884.6 1351.19 884.6C1356.79 884.6 1362.01 883.667 1366.87 881.8C1371.72 879.933 1376.15 876.947 1380.17 872.84L1386.75 879.42C1382.45 884.18 1377.18 887.773 1370.93 890.2C1364.67 892.627 1357.95 893.84 1350.77 893.84ZM1473.38 893.84C1466.01 893.84 1459.15 892.627 1452.8 890.2C1446.55 887.68 1441.09 884.18 1436.42 879.7C1431.85 875.127 1428.26 869.853 1425.64 863.88C1423.12 857.813 1421.86 851.187 1421.86 844C1421.86 836.813 1423.12 830.233 1425.64 824.26C1428.26 818.193 1431.85 812.92 1436.42 808.44C1441.09 803.867 1446.55 800.367 1452.8 797.94C1459.06 795.42 1465.92 794.16 1473.38 794.16C1480.76 794.16 1487.57 795.42 1493.82 797.94C1500.08 800.367 1505.49 803.82 1510.06 808.3C1514.73 812.78 1518.32 818.053 1520.84 824.12C1523.46 830.187 1524.76 836.813 1524.76 844C1524.76 851.187 1523.46 857.813 1520.84 863.88C1518.32 869.947 1514.73 875.22 1510.06 879.7C1505.49 884.18 1500.08 887.68 1493.82 890.2C1487.57 892.627 1480.76 893.84 1473.38 893.84ZM1473.38 884.6C1479.26 884.6 1484.68 883.62 1489.62 881.66C1494.66 879.607 1499 876.76 1502.64 873.12C1506.38 869.387 1509.27 865.093 1511.32 860.24C1513.38 855.293 1514.4 849.88 1514.4 844C1514.4 838.12 1513.38 832.753 1511.32 827.9C1509.27 822.953 1506.38 818.66 1502.64 815.02C1499 811.287 1494.66 808.44 1489.62 806.48C1484.68 804.427 1479.26 803.4 1473.38 803.4C1467.5 803.4 1462.04 804.427 1457 806.48C1451.96 808.44 1447.58 811.287 1443.84 815.02C1440.2 818.66 1437.31 822.953 1435.16 827.9C1433.11 832.753 1432.08 838.12 1432.08 844C1432.08 849.787 1433.11 855.153 1435.16 860.1C1437.31 865.047 1440.2 869.387 1443.84 873.12C1447.58 876.76 1451.96 879.607 1457 881.66C1462.04 883.62 1467.5 884.6 1473.38 884.6ZM1575.98 893V795H1584.52L1652.14 880.12H1647.66V795H1657.88V893H1649.34L1581.86 807.88H1586.34V893H1575.98ZM1744.89 893.84C1737.61 893.84 1730.61 892.673 1723.89 890.34C1717.26 887.913 1712.13 884.833 1708.49 881.1L1712.55 873.12C1716 876.48 1720.62 879.327 1726.41 881.66C1732.29 883.9 1738.45 885.02 1744.89 885.02C1751.05 885.02 1756.04 884.273 1759.87 882.78C1763.79 881.193 1766.64 879.093 1768.41 876.48C1770.28 873.867 1771.21 870.973 1771.21 867.8C1771.21 863.973 1770.09 860.893 1767.85 858.56C1765.7 856.227 1762.86 854.407 1759.31 853.1C1755.76 851.7 1751.84 850.487 1747.55 849.46C1743.26 848.433 1738.96 847.36 1734.67 846.24C1730.38 845.027 1726.41 843.44 1722.77 841.48C1719.22 839.52 1716.33 836.953 1714.09 833.78C1711.94 830.513 1710.87 826.267 1710.87 821.04C1710.87 816.187 1712.13 811.753 1714.65 807.74C1717.26 803.633 1721.23 800.367 1726.55 797.94C1731.87 795.42 1738.68 794.16 1746.99 794.16C1752.5 794.16 1757.96 794.953 1763.37 796.54C1768.78 798.033 1773.45 800.133 1777.37 802.84L1773.87 811.1C1769.67 808.3 1765.19 806.247 1760.43 804.94C1755.76 803.633 1751.24 802.98 1746.85 802.98C1740.97 802.98 1736.12 803.773 1732.29 805.36C1728.46 806.947 1725.62 809.093 1723.75 811.8C1721.98 814.413 1721.09 817.4 1721.09 820.76C1721.09 824.587 1722.16 827.667 1724.31 830C1726.55 832.333 1729.44 834.153 1732.99 835.46C1736.63 836.767 1740.6 837.933 1744.89 838.96C1749.18 839.987 1753.43 841.107 1757.63 842.32C1761.92 843.533 1765.84 845.12 1769.39 847.08C1773.03 848.947 1775.92 851.467 1778.07 854.64C1780.31 857.813 1781.43 861.967 1781.43 867.1C1781.43 871.86 1780.12 876.293 1777.51 880.4C1774.9 884.413 1770.88 887.68 1765.47 890.2C1760.15 892.627 1753.29 893.84 1744.89 893.84ZM1832 893V795H1899.2V803.96H1842.36V884.04H1901.3V893H1832ZM1841.24 847.64V838.82H1893.04V847.64H1841.24ZM1953.66 893V795H1990.34C2002.75 795 2012.5 797.987 2019.6 803.96C2026.78 809.84 2030.38 818.053 2030.38 828.6C2030.38 835.507 2028.74 841.48 2025.48 846.52C2022.3 851.467 2017.73 855.293 2011.76 858C2005.78 860.613 1998.64 861.92 1990.34 861.92H1959.4L1964.02 857.16V893H1953.66ZM2020.58 893L1995.38 857.44H2006.58L2031.92 893H2020.58ZM1964.02 858L1959.4 853.1H1990.06C1999.86 853.1 2007.28 850.953 2012.32 846.66C2017.45 842.367 2020.02 836.347 2020.02 828.6C2020.02 820.76 2017.45 814.693 2012.32 810.4C2007.28 806.107 1999.86 803.96 1990.06 803.96H1959.4L1964.02 799.06V858ZM2110.69 893L2067.29 795H2078.49L2119.09 887.26H2112.93L2153.81 795H2164.31L2120.91 893H2110.69ZM2206.53 893V795H2273.73V803.96H2216.89V884.04H2275.83V893H2206.53ZM2215.77 847.64V838.82H2267.57V847.64H2215.77Z" fill="white"/>
</svg>
