<svg xmlns="http://www.w3.org/2000/svg" xmlns:xlink="http://www.w3.org/1999/xlink" width="1080" zoomAndPan="magnify" viewBox="0 0 810 809.999993" height="1080" preserveAspectRatio="xMidYMid meet" version="1.0"><defs><clipPath id="14f9d35cc1"><path d="M 0 125.15625 L 50 125.15625 L 50 347.132812 L 0 347.132812 Z M 0 125.15625 " clip-rule="nonzero"/></clipPath></defs><path fill="#212121" d="M 809.175781 174.046875 L 851.449219 149.640625 L 852.546875 151.53125 L 810.273438 175.941406 L 809.175781 174.046875 " fill-opacity="1" fill-rule="nonzero"/><path fill="#212121" d="M 808.628906 125.542969 L 809.722656 -20.28125 L 810.820312 126.175781 L 808.628906 125.542969 " fill-opacity="1" fill-rule="nonzero"/><path fill="#212121" d="M 726.269531 223.1875 L 767.449219 246.960938 L 808.621094 223.1875 L 808.621094 175.621094 L 726.269531 128.070312 Z M 766.902344 249.175781 L 724.078125 224.445312 C 724.042969 191.054688 724.0625 157.667969 724.078125 124.277344 C 752.984375 140.976562 781.894531 157.6875 810.820312 174.367188 L 810.820312 224.445312 L 767.449219 249.488281 L 766.902344 249.175781 " fill-opacity="1" fill-rule="nonzero"/><path fill="#212121" d="M 810.273438 175.941406 L 767.996094 200.351562 L 766.902344 198.457031 L 809.175781 174.046875 L 810.273438 175.941406 " fill-opacity="1" fill-rule="nonzero"/><path fill="#212121" d="M 725.71875 174.046875 L 767.996094 198.457031 L 766.902344 200.351562 L 724.632812 175.941406 L 725.71875 174.046875 " fill-opacity="1" fill-rule="nonzero"/><path fill="#212121" d="M 809.175781 224.765625 L 766.902344 200.351562 L 767.996094 198.457031 L 810.273438 222.867188 L 809.175781 224.765625 " fill-opacity="1" fill-rule="nonzero"/><path fill="#212121" d="M 724.625 222.867188 L 766.902344 198.457031 L 767.996094 200.351562 L 725.726562 224.765625 L 724.625 222.867188 " fill-opacity="1" fill-rule="nonzero"/><path fill="#212121" d="M 766.359375 199.402344 L 766.359375 150.585938 L 768.542969 150.585938 L 768.542969 199.402344 L 766.359375 199.402344 " fill-opacity="1" fill-rule="nonzero"/><path fill="#212121" d="M 766.359375 150.585938 L 767.449219 -20.28125 L 768.542969 150.585938 L 766.359375 150.585938 " fill-opacity="1" fill-rule="nonzero"/><path fill="#212121" d="M 642.8125 126.175781 L 682.898438 149.324219 L 722.984375 126.175781 L 682.898438 103.027344 Z M 682.351562 151.53125 L 638.433594 126.175781 L 682.898438 100.5 L 727.363281 126.175781 L 682.898438 151.847656 L 682.351562 151.53125 " fill-opacity="1" fill-rule="nonzero"/><path fill="#212121" d="M 724.078125 126.175781 L 724.078125 77.351562 L 726.269531 77.351562 L 726.269531 126.175781 L 724.078125 126.175781 " fill-opacity="1" fill-rule="nonzero"/><path fill="#212121" d="M 682.347656 100.8125 L 724.625 76.40625 L 725.726562 78.300781 L 683.445312 102.714844 L 682.347656 100.8125 " fill-opacity="1" fill-rule="nonzero"/><path fill="#212121" d="M 641.167969 175.941406 L 598.347656 200.671875 C 583.882812 192.332031 569.433594 183.976562 554.976562 175.628906 L 554.976562 125.542969 C 569.433594 117.210938 583.882812 108.847656 598.347656 100.5 C 612.796875 108.863281 627.253906 117.210938 641.71875 125.542969 C 641.71875 142.238281 641.707031 158.933594 641.71875 175.628906 Z M 598.347656 198.144531 L 639.519531 174.367188 L 639.519531 126.804688 L 598.347656 103.027344 L 557.167969 126.804688 L 557.167969 174.367188 L 598.347656 198.144531 " fill-opacity="1" fill-rule="nonzero"/><path fill="#212121" d="M 555.53125 174.046875 L 597.800781 149.640625 L 598.894531 151.53125 L 556.617188 175.941406 L 555.53125 174.046875 " fill-opacity="1" fill-rule="nonzero"/><path fill="#212121" d="M 640.074219 175.941406 L 597.800781 151.53125 L 598.894531 149.640625 L 641.175781 174.046875 L 640.074219 175.941406 " fill-opacity="1" fill-rule="nonzero"/><path fill="#212121" d="M 597.796875 151.53125 L 555.523438 127.125 L 556.625 125.222656 L 598.894531 149.640625 L 597.796875 151.53125 " fill-opacity="1" fill-rule="nonzero"/><path fill="#212121" d="M 597.796875 149.640625 L 640.074219 125.222656 L 641.175781 127.125 L 598.894531 151.53125 L 597.796875 149.640625 " fill-opacity="1" fill-rule="nonzero"/><path fill="#212121" d="M 597.257812 150.585938 L 597.257812 101.769531 L 599.441406 101.769531 L 599.441406 150.585938 L 597.257812 150.585938 " fill-opacity="1" fill-rule="nonzero"/><path fill="#212121" d="M 681.800781 101.769531 L 682.898438 -20.28125 L 683.992188 101.769531 L 681.800781 101.769531 " fill-opacity="1" fill-rule="nonzero"/><path fill="#212121" d="M 597.796875 100.8125 L 640.074219 76.40625 L 641.175781 78.304688 L 598.894531 102.714844 L 597.796875 100.8125 " fill-opacity="1" fill-rule="nonzero"/><path fill="#212121" d="M 470.980469 76.40625 L 513.796875 51.683594 C 528.246094 60.039062 542.710938 68.386719 557.167969 76.726562 L 557.167969 126.804688 C 542.71875 135.160156 528.253906 143.5 513.796875 151.851562 C 499.339844 143.507812 484.882812 135.152344 470.425781 126.804688 L 470.425781 76.726562 Z M 513.796875 54.203125 L 472.617188 77.984375 L 472.617188 125.550781 L 513.796875 149.324219 L 554.976562 125.542969 L 554.976562 77.984375 L 513.796875 54.203125 " fill-opacity="1" fill-rule="nonzero"/><path fill="#212121" d="M 555.53125 127.125 L 512.707031 102.394531 L 512.707031 52.945312 L 514.890625 52.945312 L 514.890625 101.132812 L 556.617188 125.222656 L 555.53125 127.125 " fill-opacity="1" fill-rule="nonzero"/><path fill="#212121" d="M 555.523438 76.40625 L 598.347656 51.675781 C 612.796875 60.03125 627.253906 68.378906 641.714844 76.71875 L 641.714844 126.175781 L 639.527344 126.175781 L 639.527344 77.984375 L 598.347656 54.210938 L 556.625 78.300781 L 555.523438 76.40625 " fill-opacity="1" fill-rule="nonzero"/><path fill="#212121" d="M 554.976562 77.351562 L 556.070312 -20.289062 L 557.167969 77.351562 L 554.976562 77.351562 " fill-opacity="1" fill-rule="nonzero"/><path fill="#212121" d="M 470.425781 77.351562 L 471.527344 -20.28125 L 472.617188 77.351562 L 470.425781 77.351562 " fill-opacity="1" fill-rule="nonzero"/><path fill="#212121" d="M 472.617188 126.175781 L 472.617188 223.1875 L 513.796875 246.960938 L 554.976562 223.1875 L 554.976562 174.996094 L 557.167969 174.996094 L 557.167969 224.445312 L 513.796875 249.496094 C 499.339844 241.148438 484.875 232.808594 470.433594 224.453125 L 470.425781 126.175781 L 472.617188 126.175781 " fill-opacity="1" fill-rule="nonzero"/><path fill="#212121" d="M 555.53125 224.765625 L 513.25 200.359375 L 514.34375 198.457031 L 556.617188 222.867188 L 555.53125 224.765625 " fill-opacity="1" fill-rule="nonzero"/><path fill="#212121" d="M 470.980469 222.867188 L 513.25 198.457031 L 514.34375 200.359375 L 472.074219 224.765625 L 470.980469 222.867188 " fill-opacity="1" fill-rule="nonzero"/><path fill="#212121" d="M 513.25 198.457031 L 555.523438 174.046875 L 556.625 175.949219 L 514.34375 200.359375 L 513.25 198.457031 " fill-opacity="1" fill-rule="nonzero"/><path fill="#212121" d="M 512.707031 199.410156 L 512.707031 150.585938 L 514.890625 150.585938 L 514.890625 199.410156 L 512.707031 199.410156 " fill-opacity="1" fill-rule="nonzero"/><path fill="#212121" d="M 388.066406 223.820312 L 388.066406 272.011719 L 429.246094 295.785156 L 470.425781 272.011719 L 470.425781 223.820312 L 472.617188 223.820312 L 472.617188 273.269531 C 458.167969 281.617188 443.710938 289.972656 429.246094 298.3125 C 414.78125 289.972656 400.332031 281.617188 385.875 273.269531 L 385.875 223.820312 L 388.066406 223.820312 " fill-opacity="1" fill-rule="nonzero"/><path fill="#212121" d="M 386.421875 271.691406 L 428.699219 247.28125 L 429.800781 249.183594 L 387.523438 273.589844 L 386.421875 271.691406 " fill-opacity="1" fill-rule="nonzero"/><path fill="#212121" d="M 470.972656 273.589844 L 428.699219 249.183594 L 429.800781 247.28125 L 472.074219 271.691406 L 470.972656 273.589844 " fill-opacity="1" fill-rule="nonzero"/><path fill="#212121" d="M 428.699219 249.183594 L 386.429688 224.765625 L 387.515625 222.867188 L 429.792969 247.28125 L 428.699219 249.183594 " fill-opacity="1" fill-rule="nonzero"/><path fill="#212121" d="M 428.699219 247.28125 L 470.980469 222.867188 L 472.074219 224.765625 L 429.792969 249.183594 L 428.699219 247.28125 " fill-opacity="1" fill-rule="nonzero"/><path fill="#212121" d="M 428.15625 248.230469 L 428.15625 199.410156 L 430.339844 199.410156 L 430.347656 248.230469 L 428.15625 248.230469 " fill-opacity="1" fill-rule="nonzero"/><path fill="#212121" d="M 345.789062 199.410156 L 345.789062 296.417969 L 386.96875 320.195312 L 428.699219 296.097656 L 429.792969 298 L 386.96875 322.722656 C 372.511719 314.382812 358.054688 306.035156 343.597656 297.679688 L 343.605469 199.410156 L 345.789062 199.410156 " fill-opacity="1" fill-rule="nonzero"/><path fill="#212121" d="M 344.144531 296.097656 L 386.421875 271.691406 L 387.523438 273.589844 L 345.242188 298 L 344.144531 296.097656 " fill-opacity="1" fill-rule="nonzero"/><path fill="#212121" d="M 429.792969 200.359375 L 385.875 225.714844 C 385.867188 208.597656 385.859375 191.484375 385.875 174.367188 L 430.347656 148.683594 L 430.347656 200.039062 Z M 388.066406 221.925781 L 428.148438 198.785156 L 428.148438 152.488281 L 388.066406 175.628906 L 388.066406 221.925781 " fill-opacity="1" fill-rule="nonzero"/><path fill="#212121" d="M 428.699219 198.457031 L 470.980469 174.046875 L 472.074219 175.949219 L 429.792969 200.359375 L 428.699219 198.457031 " fill-opacity="1" fill-rule="nonzero"/><path fill="#212121" d="M 470.972656 175.949219 L 428.699219 151.539062 L 429.800781 149.640625 L 472.074219 174.046875 L 470.972656 175.949219 " fill-opacity="1" fill-rule="nonzero"/><path fill="#212121" d="M 428.699219 149.640625 L 470.980469 125.230469 L 472.074219 127.125 L 429.792969 151.539062 L 428.699219 149.640625 " fill-opacity="1" fill-rule="nonzero"/><path fill="#212121" d="M 470.972656 127.125 L 428.699219 102.714844 L 429.800781 100.8125 L 472.074219 125.222656 L 470.972656 127.125 " fill-opacity="1" fill-rule="nonzero"/><path fill="#212121" d="M 428.699219 100.8125 L 470.980469 76.40625 L 472.066406 78.300781 L 429.792969 102.714844 L 428.699219 100.8125 " fill-opacity="1" fill-rule="nonzero"/><path fill="#212121" d="M 428.15625 150.585938 L 428.15625 101.769531 L 430.339844 101.769531 L 430.339844 150.585938 L 428.15625 150.585938 " fill-opacity="1" fill-rule="nonzero"/><path fill="#212121" d="M 385.875 126.175781 L 386.96875 -20.28125 L 388.066406 126.175781 L 386.925781 127.082031 L 385.875 126.175781 " fill-opacity="1" fill-rule="nonzero"/><path fill="#212121" d="M 428.15625 101.769531 L 429.246094 -20.289062 L 430.339844 101.761719 L 429.152344 102.738281 L 428.15625 101.769531 " fill-opacity="1" fill-rule="nonzero"/><path fill="#212121" d="M 386.421875 224.765625 L 344.144531 200.359375 L 345.25 198.457031 L 387.523438 222.867188 L 386.421875 224.765625 " fill-opacity="1" fill-rule="nonzero"/><path fill="#212121" d="M 344.144531 198.457031 L 386.421875 174.046875 L 387.523438 175.949219 L 345.25 200.359375 L 344.144531 198.457031 " fill-opacity="1" fill-rule="nonzero"/><path fill="#212121" d="M 262.339844 199.410156 L 302.425781 222.550781 L 342.511719 199.410156 L 302.425781 176.261719 Z M 301.878906 224.765625 L 257.960938 199.402344 L 302.425781 173.734375 C 317.238281 182.300781 332.066406 190.851562 346.890625 199.402344 L 302.425781 225.078125 L 301.878906 224.765625 " fill-opacity="1" fill-rule="nonzero"/><path fill="#212121" d="M 343.605469 199.410156 L 343.597656 52.945312 L 345.789062 52.945312 L 345.789062 199.410156 L 343.605469 199.410156 " fill-opacity="1" fill-rule="nonzero"/><path fill="#212121" d="M 259.054688 199.410156 L 259.054688 52.949219 L 261.238281 52.949219 L 261.246094 199.410156 L 259.054688 199.410156 " fill-opacity="1" fill-rule="nonzero"/><path fill="#212121" d="M 386.421875 175.949219 L 344.144531 151.539062 L 345.25 149.640625 L 387.523438 174.046875 L 386.421875 175.949219 " fill-opacity="1" fill-rule="nonzero"/><path fill="#212121" d="M 301.878906 174.046875 L 344.152344 149.640625 L 345.242188 151.539062 L 302.964844 175.949219 L 301.878906 174.046875 " fill-opacity="1" fill-rule="nonzero"/><path fill="#212121" d="M 344.152344 149.640625 L 386.429688 125.230469 L 387.515625 127.125 L 345.242188 151.539062 L 344.152344 149.640625 " fill-opacity="1" fill-rule="nonzero"/><path fill="#212121" d="M 344.152344 151.539062 L 259.601562 102.714844 L 260.691406 100.8125 L 345.242188 149.640625 L 344.152344 151.539062 " fill-opacity="1" fill-rule="nonzero"/><path fill="#212121" d="M 259.601562 100.8125 L 344.152344 51.996094 L 345.242188 53.890625 L 260.691406 102.714844 L 259.601562 100.8125 " fill-opacity="1" fill-rule="nonzero"/><path fill="#212121" d="M 260.691406 249.183594 L 217.875 273.90625 C 203.410156 265.566406 188.953125 257.21875 174.503906 248.863281 C 174.472656 215.472656 174.503906 182.082031 174.503906 148.691406 C 203.417969 165.386719 232.324219 182.105469 261.246094 198.777344 L 261.246094 248.863281 Z M 217.875 271.378906 L 259.054688 247.601562 L 259.054688 200.039062 L 176.6875 152.480469 L 176.6875 247.59375 L 217.875 271.378906 " fill-opacity="1" fill-rule="nonzero"/><path fill="#212121" d="M 175.050781 247.28125 L 217.328125 222.867188 L 218.421875 224.765625 L 176.140625 249.183594 L 175.050781 247.28125 " fill-opacity="1" fill-rule="nonzero"/><path fill="#212121" d="M 259.601562 249.183594 L 217.328125 224.765625 L 218.421875 222.867188 L 260.699219 247.28125 L 259.601562 249.183594 " fill-opacity="1" fill-rule="nonzero"/><path fill="#212121" d="M 216.78125 223.820312 L 216.78125 174.996094 L 218.964844 174.996094 L 218.964844 223.820312 L 216.78125 223.820312 " fill-opacity="1" fill-rule="nonzero"/><path fill="#212121" d="M 175.050781 149.640625 L 259.601562 100.8125 L 260.699219 102.714844 L 176.148438 151.539062 L 175.050781 149.640625 " fill-opacity="1" fill-rule="nonzero"/><path fill="#212121" d="M 216.78125 174.996094 L 216.78125 126.175781 L 218.964844 126.175781 L 218.964844 174.996094 L 216.78125 174.996094 " fill-opacity="1" fill-rule="nonzero"/><path fill="#212121" d="M 216.78125 126.175781 L 216.78125 77.359375 L 218.964844 77.359375 L 218.964844 126.175781 L 216.78125 126.175781 " fill-opacity="1" fill-rule="nonzero"/><path fill="#212121" d="M 217.320312 76.40625 L 259.601562 51.996094 L 260.699219 53.890625 L 218.421875 78.304688 L 217.320312 76.40625 " fill-opacity="1" fill-rule="nonzero"/><path fill="#212121" d="M 175.050781 100.8125 L 217.328125 76.40625 L 218.421875 78.304688 L 176.140625 102.714844 L 175.050781 100.8125 " fill-opacity="1" fill-rule="nonzero"/><path fill="#212121" d="M 174.503906 150.585938 L 174.503906 52.945312 L 176.6875 52.945312 L 176.6875 150.585938 L 174.503906 150.585938 " fill-opacity="1" fill-rule="nonzero"/><path fill="#212121" d="M 216.78125 77.359375 L 217.875 -20.28125 L 218.964844 77.359375 L 216.78125 77.359375 " fill-opacity="1" fill-rule="nonzero"/><path fill="#212121" d="M 92.144531 199.410156 L 92.144531 247.601562 L 133.316406 271.378906 L 175.050781 247.28125 L 176.140625 249.183594 L 133.316406 273.90625 C 118.859375 265.566406 104.410156 257.210938 89.953125 248.863281 L 89.953125 199.410156 L 92.144531 199.410156 " fill-opacity="1" fill-rule="nonzero"/><path fill="#212121" d="M 49.867188 174.996094 L 49.867188 272.011719 L 91.042969 295.785156 L 132.777344 271.691406 L 133.871094 273.589844 L 91.042969 298.3125 L 47.671875 273.269531 L 47.671875 174.996094 L 49.867188 174.996094 " fill-opacity="1" fill-rule="nonzero"/><g clip-path="url(#14f9d35cc1)"><path fill="#212121" d="M -34.683594 320.828125 L 6.5 344.609375 L 47.671875 320.835938 L 47.671875 272.636719 L 49.871094 272.636719 L 49.871094 322.089844 C 35.40625 330.445312 20.957031 338.792969 6.5 347.132812 C -6.871094 339.425781 -23.519531 329.816406 -36.878906 322.089844 L -36.878906 174.375 L 48.226562 125.222656 L 49.320312 127.125 L -34.683594 175.636719 L -34.683594 320.828125 " fill-opacity="1" fill-rule="nonzero"/></g><path fill="#212121" d="M -35.273438 319.902344 L 5.949219 296.105469 L 7.039062 298 L -35.273438 322.4375 L -35.273438 319.902344 " fill-opacity="1" fill-rule="nonzero"/><path fill="#212121" d="M 48.226562 322.410156 L 5.949219 298 L 7.039062 296.105469 L 49.3125 320.507812 L 48.226562 322.410156 " fill-opacity="1" fill-rule="nonzero"/><path fill="#212121" d="M 5.402344 297.054688 L 5.402344 248.230469 L 7.585938 248.230469 L 7.585938 297.054688 L 5.402344 297.054688 " fill-opacity="1" fill-rule="nonzero"/><path fill="#212121" d="M 175.050781 249.183594 L 90.5 200.359375 L 91.597656 198.457031 L 176.148438 247.28125 L 175.050781 249.183594 " fill-opacity="1" fill-rule="nonzero"/><path fill="#212121" d="M 48.226562 271.691406 L 132.769531 222.867188 L 133.871094 224.765625 L 49.320312 273.589844 L 48.226562 271.691406 " fill-opacity="1" fill-rule="nonzero"/><path fill="#212121" d="M 132.222656 223.8125 L 132.222656 174.996094 L 134.410156 174.996094 L 134.417969 223.8125 L 132.222656 223.8125 " fill-opacity="1" fill-rule="nonzero"/><path fill="#212121" d="M 90.5 198.457031 L 175.050781 149.640625 L 176.148438 151.53125 L 91.597656 200.359375 L 90.5 198.457031 " fill-opacity="1" fill-rule="nonzero"/><path fill="#212121" d="M 175.050781 151.53125 L 90.5 102.714844 L 91.597656 100.8125 L 176.148438 149.640625 L 175.050781 151.53125 " fill-opacity="1" fill-rule="nonzero"/><path fill="#212121" d="M 89.953125 199.410156 L 89.953125 101.769531 L 92.144531 101.769531 L 92.144531 199.410156 L 89.953125 199.410156 " fill-opacity="1" fill-rule="nonzero"/><path fill="#212121" d="M 132.769531 125.230469 L 175.050781 100.8125 L 176.140625 102.714844 L 133.871094 127.125 L 132.769531 125.230469 " fill-opacity="1" fill-rule="nonzero"/><path fill="#212121" d="M 132.222656 174.996094 L 132.222656 126.175781 L 134.410156 126.175781 L 134.410156 174.996094 L 132.222656 174.996094 " fill-opacity="1" fill-rule="nonzero"/><path fill="#212121" d="M 90.5 100.8125 L 175.59375 51.683594 L 260.699219 100.8125 L 259.601562 102.714844 L 175.59375 54.210938 L 91.597656 102.714844 L 90.5 100.8125 " fill-opacity="1" fill-rule="nonzero"/><path fill="#212121" d="M 132.222656 126.175781 L 132.222656 77.351562 L 134.410156 77.351562 L 134.410156 126.175781 L 132.222656 126.175781 " fill-opacity="1" fill-rule="nonzero"/><path fill="#212121" d="M 90.5 249.183594 L 48.226562 224.765625 L 49.320312 222.867188 L 91.597656 247.28125 L 90.5 249.183594 " fill-opacity="1" fill-rule="nonzero"/><path fill="#212121" d="M 5.949219 296.105469 L 48.226562 271.691406 L 49.3125 273.589844 L 7.039062 298 L 5.949219 296.105469 " fill-opacity="1" fill-rule="nonzero"/><path fill="#212121" d="M 5.949219 247.28125 L 48.226562 222.867188 L 49.320312 224.765625 L 7.046875 249.183594 L 5.949219 247.28125 " fill-opacity="1" fill-rule="nonzero"/><path fill="#212121" d="M 5.949219 249.183594 L -35.800781 225.074219 L -35.800781 222.546875 L 7.039062 247.28125 L 5.949219 249.183594 " fill-opacity="1" fill-rule="nonzero"/><path fill="#212121" d="M 48.226562 224.765625 L -35.273438 176.554688 L -35.273438 174.027344 L 49.320312 222.867188 L 48.226562 224.765625 " fill-opacity="1" fill-rule="nonzero"/><path fill="#212121" d="M 48.226562 174.046875 L 90.5 149.640625 L 91.597656 151.539062 L 49.320312 175.949219 L 48.226562 174.046875 " fill-opacity="1" fill-rule="nonzero"/><path fill="#212121" d="M 47.671875 174.996094 L 47.671875 77.351562 L 49.867188 77.351562 L 49.867188 174.996094 L 47.671875 174.996094 " fill-opacity="1" fill-rule="nonzero"/><path fill="#212121" d="M 90.5 151.539062 L 48.226562 127.125 L 49.320312 125.230469 L 91.597656 149.640625 L 90.5 151.539062 " fill-opacity="1" fill-rule="nonzero"/><path fill="#212121" d="M 48.226562 125.230469 L 90.5 100.8125 L 91.597656 102.714844 L 49.320312 127.125 L 48.226562 125.230469 " fill-opacity="1" fill-rule="nonzero"/><path fill="#212121" d="M 5.402344 199.410156 L 5.402344 150.585938 L 7.59375 150.585938 L 7.59375 199.410156 L 5.402344 199.410156 " fill-opacity="1" fill-rule="nonzero"/><path fill="#212121" d="M 5.402344 150.585938 L 5.402344 101.769531 L 7.585938 101.769531 L 7.59375 150.585938 L 5.402344 150.585938 " fill-opacity="1" fill-rule="nonzero"/><path fill="#212121" d="M 48.226562 127.125 L -36.878906 77.984375 L -35.785156 -20.289062 L -34.699219 76.710938 L 49.320312 125.222656 L 48.226562 127.125 " fill-opacity="1" fill-rule="nonzero"/><path fill="#212121" d="M 5.949219 100.8125 L 48.226562 76.40625 L 49.320312 78.304688 L 7.046875 102.714844 L 5.949219 100.8125 " fill-opacity="1" fill-rule="nonzero"/><path fill="#212121" d="M 724.078125 77.351562 L 725.171875 -20.28125 L 726.269531 77.351562 L 725.027344 78.167969 L 724.078125 77.351562 " fill-opacity="1" fill-rule="nonzero"/><path fill="#212121" d="M 385.875 174.996094 L 385.875 126.175781 L 388.066406 126.175781 L 388.066406 174.996094 L 385.875 174.996094 " fill-opacity="1" fill-rule="nonzero"/><path fill="#212121" d="M 343.597656 52.945312 L 344.695312 -20.28125 L 345.789062 52.945312 L 344.683594 53.773438 L 343.597656 52.945312 " fill-opacity="1" fill-rule="nonzero"/><path fill="#212121" d="M 259.054688 52.949219 L 260.144531 -20.28125 L 261.238281 52.949219 L 260.074219 53.679688 L 259.054688 52.949219 " fill-opacity="1" fill-rule="nonzero"/><path fill="#212121" d="M 89.953125 101.769531 L 91.042969 -20.28125 L 92.144531 101.769531 L 89.953125 101.769531 " fill-opacity="1" fill-rule="nonzero"/><path fill="#212121" d="M 47.671875 77.351562 L 48.773438 -20.28125 L 49.867188 77.351562 L 48.683594 78.261719 L 47.671875 77.351562 " fill-opacity="1" fill-rule="nonzero"/><path fill="#212121" d="M 5.402344 101.769531 L 6.5 -20.28125 L 7.585938 101.769531 L 5.402344 101.769531 " fill-opacity="1" fill-rule="nonzero"/><path fill="#212121" d="M 895.371094 175.621094 C 882.007812 183.335938 865.367188 192.957031 852 200.671875 C 837.535156 192.332031 823.078125 183.984375 808.628906 175.621094 C 808.613281 158.933594 808.613281 142.238281 808.628906 125.542969 L 809.175781 125.222656 L 852 100.5 C 865.359375 108.222656 882.007812 117.835938 895.371094 125.542969 C 895.371094 142.238281 895.371094 158.933594 895.371094 175.621094 Z M 893.171875 174.367188 L 893.171875 126.804688 L 852 103.027344 L 810.820312 126.8125 L 810.820312 174.367188 L 852 198.144531 L 893.171875 174.367188 " fill-opacity="1" fill-rule="evenodd"/><path fill="#000000" d="M 697.390625 958.132812 C 690.789062 929.753906 697.390625 898.882812 714.695312 875.472656 C 733.984375 849.378906 764.992188 838.398438 792.25 822.996094 C 805.191406 815.667969 817.789062 807.066406 827.480469 795.640625 C 832.304688 789.945312 836.261719 783.617188 839.195312 776.753906 C 842.285156 769.480469 844.269531 761.8125 845.875 754.105469 C 849.109375 738.464844 850.992188 722.472656 857.171875 707.609375 C 862.863281 693.917969 871.449219 681.4375 882.128906 671.152344 C 904.980469 649.125 937.160156 638.445312 968.679688 641.941406 C 972.691406 642.390625 976.699219 643.074219 980.65625 643.875 C 981.40625 644.035156 981.738281 642.902344 980.972656 642.71875 C 950.152344 634.878906 915.566406 642.824219 890.476562 662.078125 C 878.90625 670.96875 869.136719 682.160156 861.890625 694.828125 C 858.222656 701.21875 855.210938 707.992188 852.921875 715.003906 C 850.410156 722.738281 848.820312 730.71875 847.347656 738.703125 C 844.363281 754.867188 841.757812 771.597656 832.976562 785.8125 C 824.808594 799.03125 812.476562 809.054688 799.445312 817.207031 C 772.644531 833.976562 740.664062 843.761719 719.179688 868.054688 C 700.046875 889.691406 690.878906 919.742188 694.679688 948.375 C 695.128906 951.742188 695.785156 955.070312 696.601562 958.359375 C 696.707031 958.871094 697.507812 958.648438 697.390625 958.132812 Z M 697.390625 958.132812 " fill-opacity="1" fill-rule="nonzero"/><path fill="#000000" d="M 750.449219 924.386719 C 746.320312 914.929688 747.238281 904.210938 751.222656 894.871094 C 755.351562 885.167969 762.613281 877.394531 771.09375 871.265625 C 788.832031 858.453125 810.503906 852.746094 828.621094 840.582031 C 837.417969 834.675781 844.835938 827.230469 850.449219 818.234375 C 855.949219 809.421875 859.761719 799.652344 862.707031 789.707031 C 869.242188 767.636719 871.371094 744.28125 880.429688 722.960938 C 888.003906 705.140625 901.851562 688.015625 921.261719 682.804688 C 923.511719 682.203125 925.796875 681.714844 928.113281 681.398438 C 928.613281 681.332031 928.492188 680.492188 927.996094 680.519531 C 908.386719 681.871094 892.425781 697.429688 883.417969 713.859375 C 872.136719 734.441406 869.464844 758.246094 863.851562 780.683594 C 861.234375 791.128906 857.972656 801.480469 853.054688 811.09375 C 848.082031 820.8125 841.378906 829.414062 832.726562 836.121094 C 814.984375 849.878906 792.65625 855.585938 774 867.804688 C 765.308594 873.5 757.390625 880.640625 752.339844 889.835938 C 747.660156 898.34375 745.214844 908.539062 747.359375 918.152344 C 747.871094 920.464844 748.671875 922.6875 749.710938 924.832031 C 749.933594 925.359375 750.671875 924.898438 750.449219 924.386719 Z M 750.449219 924.386719 " fill-opacity="1" fill-rule="nonzero"/><path fill="#000000" d="M 914.070312 734.019531 C 902.667969 737.269531 893.464844 745.882812 886.808594 755.40625 C 879.605469 765.746094 875.015625 777.59375 871.675781 789.679688 C 867.769531 803.78125 865.230469 818.261719 860.578125 832.148438 C 858.339844 838.816406 855.644531 845.394531 852.003906 851.417969 C 848.769531 856.757812 844.824219 861.664062 840.273438 865.9375 C 831.4375 874.222656 819.917969 880.117188 807.570312 879.695312 C 806.042969 879.640625 804.519531 879.496094 803.007812 879.273438 C 802.296875 879.167969 801.96875 880.222656 802.703125 880.378906 C 814.722656 882.945312 826.941406 878.496094 836.472656 871.25 C 841.46875 867.449219 845.863281 862.914062 849.609375 857.875 C 853.582031 852.535156 856.644531 846.667969 859.167969 840.527344 C 864.796875 826.847656 867.625 812.25 871.121094 797.941406 C 874.226562 785.195312 878.027344 772.621094 884.707031 761.246094 C 890.808594 750.855469 899.128906 741.871094 910.097656 736.613281 C 911.464844 735.953125 912.859375 735.363281 914.265625 734.824219 C 914.777344 734.625 914.59375 733.863281 914.070312 734.019531 Z M 914.070312 734.019531 " fill-opacity="1" fill-rule="nonzero"/></svg>