<svg width="688" height="588" viewBox="0 0 688 588" fill="none" xmlns="http://www.w3.org/2000/svg">
<path d="M237.889 253.284L237.889 253.282C237.883 250.015 237.967 246.63 238.145 243.114C238.292 243.091 238.459 243.066 238.645 243.039C239.484 242.916 240.717 242.751 242.279 242.588C245.404 242.262 249.843 241.942 255.088 241.968L255.095 241.968L255.103 241.968C259.052 241.929 263.504 242.129 268.256 242.754L268.267 242.756L268.278 242.757C268.91 242.827 269.544 242.915 270.2 243.023L270.212 243.026L270.225 243.027C283.821 244.915 299.063 249.788 310.898 261.02C322.706 272.227 331.243 289.877 331.243 317.57L331.243 317.774C331.244 320.209 331.246 333.124 330.971 339.294C330.826 339.316 330.661 339.341 330.477 339.368C329.64 339.492 328.409 339.656 326.85 339.819C323.73 340.145 319.296 340.466 314.051 340.44L314.044 340.44L314.036 340.44C310.086 340.478 305.616 340.278 300.883 339.653L300.872 339.651L300.861 339.65C300.229 339.581 299.595 339.492 298.939 339.384L298.927 339.382L298.914 339.38C276.918 336.323 250.584 325.481 241.314 292.349L241.314 292.349C239.441 285.653 238.258 278.039 237.954 269.38C237.861 266.651 237.879 258.592 237.886 254.875C237.888 254.162 237.889 253.609 237.889 253.284Z" stroke="white" stroke-width="2"/>
<path d="M449.795 253.282V253.284C449.795 253.609 449.797 254.162 449.798 254.875C449.806 258.592 449.823 266.65 449.731 269.379C449.427 278.039 448.244 285.653 446.37 292.349C437.101 325.481 410.767 336.323 388.771 339.38L388.758 339.382L388.745 339.384C388.09 339.492 387.456 339.581 386.823 339.65L386.813 339.651L386.802 339.653C382.069 340.278 377.598 340.478 373.648 340.44L373.641 340.44L373.634 340.44C368.389 340.466 363.955 340.145 360.835 339.819C359.275 339.656 358.045 339.492 357.207 339.368C357.024 339.341 356.859 339.316 356.714 339.294C356.439 333.124 356.441 320.21 356.441 317.775L356.441 317.57C356.441 289.877 364.978 272.227 376.787 261.02C388.622 249.788 403.863 244.915 417.46 243.027L417.472 243.026L417.485 243.023C418.141 242.915 418.775 242.827 419.407 242.757L419.418 242.756L419.428 242.754C424.181 242.129 428.632 241.929 432.582 241.968L432.589 241.968L432.597 241.968C437.842 241.942 442.281 242.262 445.406 242.588C446.968 242.751 448.2 242.916 449.04 243.039C449.226 243.066 449.393 243.091 449.539 243.114C449.718 246.63 449.801 250.015 449.795 253.282Z" stroke="white" stroke-width="2"/>
<path d="M238.645 462.138C238.459 462.111 238.292 462.085 238.145 462.063C237.967 458.547 237.883 455.161 237.889 451.895V451.893C237.889 451.568 237.888 451.014 237.886 450.302C237.879 446.584 237.861 438.525 237.954 435.797C238.258 427.138 239.441 419.524 241.314 412.828L241.314 412.828C250.584 379.696 276.918 368.853 298.914 365.797L298.927 365.795L298.939 365.793C299.595 365.685 300.229 365.596 300.861 365.527L300.872 365.525L300.883 365.524C305.616 364.898 310.086 364.698 314.036 364.737L314.044 364.737L314.051 364.737C319.296 364.711 323.73 365.031 326.85 365.358C328.409 365.521 329.64 365.685 330.477 365.808C330.661 365.835 330.826 365.86 330.971 365.883C331.246 372.053 331.244 384.968 331.243 387.402L331.243 387.607C331.243 415.3 322.706 432.95 310.898 444.156C299.063 455.388 283.821 460.262 270.225 462.149L270.212 462.151L270.2 462.153C269.544 462.262 268.91 462.35 268.278 462.42L268.267 462.421L268.256 462.422C263.504 463.048 259.052 463.248 255.103 463.209L255.095 463.209L255.088 463.209C249.843 463.235 245.404 462.915 242.279 462.589C240.717 462.426 239.484 462.261 238.645 462.138Z" stroke="white" stroke-width="2"/>
<path d="M356.328 376.097L356.328 376.095C356.322 372.829 356.405 369.443 356.584 365.928C356.731 365.905 356.897 365.88 357.083 365.852C357.923 365.729 359.155 365.565 360.718 365.402C363.842 365.075 368.281 364.755 373.526 364.781L373.534 364.781L373.541 364.781C377.491 364.742 381.942 364.942 386.695 365.568L386.706 365.569L386.716 365.57C387.348 365.64 387.982 365.729 388.638 365.837L388.651 365.839L388.663 365.841C402.26 367.729 417.501 372.602 429.336 383.834C441.145 395.041 449.682 412.691 449.682 440.384L449.682 440.588C449.682 443.023 449.684 455.937 449.41 462.107C449.264 462.13 449.1 462.155 448.916 462.182C448.078 462.305 446.848 462.47 445.288 462.633C442.169 462.959 437.734 463.279 432.489 463.253L432.482 463.253L432.475 463.253C428.525 463.292 424.054 463.092 419.321 462.466L419.311 462.465L419.3 462.464C418.668 462.394 418.033 462.305 417.378 462.197L417.365 462.195L417.352 462.193C395.356 459.137 369.022 448.295 359.753 415.162L359.753 415.162C357.879 408.466 356.696 400.853 356.392 392.193C356.3 389.465 356.317 381.406 356.325 377.689C356.326 376.976 356.328 376.423 356.328 376.097Z" stroke="white" stroke-width="2"/>
<path d="M568.234 376.095V376.097C568.234 376.423 568.235 376.976 568.237 377.688C568.245 381.406 568.262 389.464 568.169 392.192C567.865 400.852 566.682 408.466 564.809 415.162C555.54 448.295 529.205 459.137 507.209 462.193L507.196 462.195L507.184 462.197C506.528 462.305 505.894 462.394 505.262 462.464L505.251 462.465L505.24 462.466C500.507 463.092 496.037 463.292 492.087 463.253L492.08 463.253L492.072 463.253C486.827 463.279 482.393 462.959 479.273 462.633C477.714 462.47 476.483 462.305 475.646 462.182C475.462 462.155 475.297 462.13 475.152 462.107C474.877 455.937 474.88 443.023 474.88 440.588L474.88 440.384C474.88 412.691 483.417 395.041 495.225 383.834C507.06 372.602 522.302 367.729 535.898 365.841L535.911 365.839L535.923 365.837C536.579 365.729 537.213 365.64 537.845 365.57L537.856 365.569L537.867 365.568C542.62 364.942 547.071 364.742 551.02 364.781L551.028 364.781L551.035 364.781C556.28 364.755 560.719 365.075 563.844 365.402C565.406 365.565 566.639 365.729 567.478 365.852C567.664 365.88 567.831 365.905 567.978 365.928C568.156 369.443 568.24 372.829 568.234 376.095Z" stroke="white" stroke-width="2"/>
<path d="M357.083 584.952C356.897 584.925 356.731 584.9 356.584 584.877C356.405 581.362 356.322 577.976 356.328 574.709V574.707C356.328 574.382 356.326 573.829 356.325 573.116C356.317 569.399 356.3 561.34 356.392 558.612C356.696 549.952 357.879 542.338 359.753 535.642L359.753 535.642C369.022 502.51 395.356 491.668 417.352 488.611L417.365 488.61L417.378 488.607C418.033 488.499 418.668 488.411 419.3 488.341L419.311 488.34L419.321 488.338C424.054 487.713 428.525 487.513 432.475 487.551L432.482 487.552L432.489 487.552C437.734 487.526 442.169 487.846 445.288 488.172C446.848 488.335 448.078 488.5 448.916 488.623C449.1 488.65 449.264 488.675 449.41 488.697C449.684 494.867 449.682 507.782 449.682 510.217L449.682 510.421C449.682 538.114 441.145 555.764 429.336 566.971C417.501 578.203 402.26 583.076 388.663 584.964L388.651 584.966L388.638 584.968C387.982 585.076 387.348 585.165 386.716 585.234L386.706 585.235L386.695 585.237C381.942 585.862 377.491 586.062 373.541 586.024L373.534 586.024L373.526 586.024C368.281 586.05 363.842 585.729 360.718 585.403C359.155 585.24 357.923 585.076 357.083 584.952Z" stroke="white" stroke-width="2"/>
<path d="M593.209 257.951L593.209 257.949C593.202 254.682 593.286 251.297 593.465 247.781C593.611 247.758 593.778 247.733 593.964 247.706C594.804 247.583 596.036 247.418 597.598 247.255C600.723 246.929 605.162 246.609 610.407 246.635L610.415 246.635L610.422 246.634C614.372 246.596 618.823 246.796 623.576 247.421L623.586 247.423L623.597 247.424C624.229 247.494 624.863 247.582 625.519 247.69L625.532 247.693L625.544 247.694C639.141 249.582 654.382 254.455 666.217 265.687C678.026 276.894 686.562 294.544 686.562 322.237L686.563 322.441C686.563 324.876 686.565 337.791 686.29 343.961C686.145 343.983 685.98 344.008 685.797 344.035C684.959 344.159 683.729 344.323 682.169 344.486C679.049 344.812 674.615 345.133 669.37 345.107L669.363 345.107L669.356 345.107C665.406 345.145 660.935 344.945 656.202 344.32L656.191 344.318L656.181 344.317C655.548 344.248 654.914 344.159 654.259 344.051L654.246 344.049L654.233 344.047C632.237 340.99 605.903 330.148 596.634 297.016L596.634 297.016C594.76 290.32 593.577 282.706 593.273 274.047C593.181 271.318 593.198 263.259 593.206 259.542C593.207 258.829 593.209 258.276 593.209 257.951Z" stroke="white" stroke-width="2"/>
<path d="M593.964 466.806C593.778 466.779 593.611 466.753 593.465 466.731C593.286 463.215 593.202 459.829 593.209 456.563V456.561C593.209 456.236 593.207 455.682 593.206 454.97C593.198 451.252 593.181 443.193 593.273 440.465C593.577 431.806 594.76 424.192 596.634 417.496L596.634 417.496C605.903 384.364 632.237 373.521 654.233 370.465L654.246 370.463L654.259 370.461C654.914 370.353 655.548 370.264 656.181 370.194L656.191 370.193L656.202 370.192C660.935 369.566 665.406 369.366 669.356 369.405L669.363 369.405L669.37 369.405C674.615 369.379 679.049 369.699 682.169 370.026C683.729 370.189 684.959 370.353 685.797 370.476C685.98 370.503 686.145 370.528 686.29 370.551C686.565 376.721 686.563 389.636 686.563 392.07L686.562 392.275C686.562 419.968 678.026 437.618 666.217 448.824C654.382 460.056 639.141 464.93 625.544 466.817L625.532 466.819L625.519 466.821C624.863 466.929 624.229 467.018 623.597 467.088L623.586 467.089L623.576 467.09C618.823 467.716 614.372 467.916 610.422 467.877L610.415 467.877L610.407 467.877C605.162 467.903 600.723 467.583 597.598 467.257C596.036 467.094 594.804 466.929 593.964 466.806Z" stroke="white" stroke-width="2"/>
<path d="M474.767 135.135L474.767 135.133C474.761 131.867 474.845 128.481 475.023 124.966C475.17 124.943 475.337 124.918 475.523 124.89C476.362 124.767 477.595 124.603 479.157 124.44C482.282 124.113 486.721 123.793 491.966 123.819L491.973 123.819L491.981 123.819C495.93 123.78 500.382 123.98 505.134 124.606L505.145 124.607L505.156 124.609C505.788 124.678 506.422 124.767 507.078 124.875L507.09 124.877L507.103 124.879C520.699 126.767 535.941 131.64 547.776 142.872C559.584 154.079 568.121 171.729 568.121 199.422L568.121 199.626C568.122 202.061 568.124 214.975 567.849 221.145C567.704 221.168 567.539 221.193 567.355 221.22C566.518 221.343 565.287 221.508 563.728 221.671C560.608 221.997 556.174 222.317 550.929 222.291L550.922 222.291L550.914 222.291C546.964 222.33 542.494 222.13 537.761 221.504L537.75 221.503L537.739 221.502C537.107 221.432 536.473 221.344 535.817 221.235L535.805 221.233L535.792 221.231C513.796 218.175 487.462 207.333 478.192 174.201L478.192 174.201C476.319 167.505 475.136 159.891 474.832 151.231C474.739 148.503 474.757 140.444 474.764 136.727C474.766 136.014 474.767 135.461 474.767 135.135Z" stroke="white" stroke-width="2"/>
<path d="M686.673 135.133V135.135C686.673 135.461 686.675 136.014 686.676 136.727C686.684 140.444 686.701 148.502 686.609 151.23C686.305 159.89 685.122 167.504 683.248 174.201C673.979 207.333 647.645 218.175 625.649 221.231L625.636 221.233L625.623 221.235C624.968 221.344 624.333 221.432 623.701 221.502L623.69 221.503L623.68 221.504C618.947 222.13 614.476 222.33 610.526 222.291L610.519 222.291L610.512 222.291C605.267 222.317 600.832 221.997 597.713 221.671C596.153 221.508 594.923 221.343 594.085 221.22C593.902 221.193 593.737 221.168 593.592 221.145C593.317 214.975 593.319 202.061 593.319 199.626L593.319 199.422C593.319 171.729 601.856 154.079 613.665 142.872C625.5 131.64 640.741 126.767 654.338 124.879L654.35 124.877L654.363 124.875C655.019 124.767 655.653 124.678 656.285 124.609L656.296 124.607L656.306 124.606C661.059 123.98 665.51 123.78 669.46 123.819L669.467 123.819L669.475 123.819C674.72 123.793 679.159 124.113 682.284 124.44C683.846 124.603 685.078 124.767 685.918 124.89C686.104 124.918 686.271 124.943 686.417 124.966C686.596 128.481 686.679 131.867 686.673 135.133Z" stroke="white" stroke-width="2"/>
<path d="M475.523 343.989C475.337 343.962 475.17 343.937 475.023 343.914C474.845 340.399 474.761 337.013 474.767 333.746V333.745C474.767 333.419 474.766 332.866 474.764 332.153C474.757 328.436 474.739 320.377 474.832 317.649C475.136 308.989 476.319 301.375 478.192 294.679L478.192 294.679C487.462 261.547 513.796 250.705 535.792 247.648L535.805 247.647L535.817 247.645C536.473 247.536 537.107 247.448 537.739 247.378L537.75 247.377L537.761 247.375C542.494 246.75 546.964 246.55 550.914 246.589L550.922 246.589L550.929 246.589C556.174 246.563 560.608 246.883 563.728 247.209C565.287 247.372 566.518 247.537 567.355 247.66C567.539 247.687 567.704 247.712 567.849 247.735C568.124 253.905 568.122 266.819 568.121 269.254L568.121 269.458C568.121 297.151 559.584 314.801 547.776 326.008C535.941 337.24 520.699 342.113 507.103 344.001L507.09 344.003L507.078 344.005C506.422 344.113 505.788 344.202 505.156 344.271L505.145 344.272L505.134 344.274C500.382 344.899 495.93 345.1 491.981 345.061L491.973 345.061L491.966 345.061C486.721 345.087 482.282 344.766 479.157 344.44C477.595 344.277 476.362 344.113 475.523 343.989Z" stroke="white" stroke-width="2"/>
<path d="M356.328 12.3208L356.328 12.319C356.322 9.05235 356.405 5.66665 356.584 2.1513C356.731 2.12852 356.897 2.10325 357.083 2.07596C357.923 1.95271 359.155 1.78823 360.718 1.62517C363.842 1.29897 368.281 0.97878 373.526 1.00465L373.534 1.00469L373.541 1.00461C377.491 0.965893 381.942 1.16599 386.695 1.79154L386.706 1.79293L386.716 1.7941C387.348 1.86363 387.982 1.95234 388.638 2.06058L388.651 2.06267L388.663 2.06443C402.26 3.95226 417.501 8.82536 429.336 20.0575C441.145 31.2642 449.682 48.9143 449.682 76.6073L449.682 76.8115C449.682 79.2462 449.684 92.1609 449.41 98.3309C449.264 98.3535 449.1 98.3785 448.916 98.4055C448.078 98.5287 446.848 98.6932 445.288 98.8563C442.169 99.1825 437.734 99.5026 432.489 99.4768L432.482 99.4767L432.475 99.4768C428.525 99.5155 424.054 99.3154 419.321 98.69L419.311 98.6885L419.3 98.6873C418.668 98.6178 418.033 98.5291 417.378 98.4209L417.365 98.4188L417.352 98.417C395.356 95.3606 369.022 84.5183 359.753 51.3861L359.753 51.3861C357.879 44.6901 356.696 37.0762 356.392 28.4166C356.3 25.6886 356.317 17.6296 356.325 13.9122C356.326 13.1994 356.328 12.6462 356.328 12.3208Z" stroke="white" stroke-width="2"/>
<path d="M568.234 12.319V12.3208C568.234 12.6462 568.235 13.1993 568.237 13.9121C568.245 17.6292 568.262 25.6873 568.169 28.416C567.865 37.0759 566.682 44.6899 564.809 51.3861C555.54 84.5183 529.205 95.3606 507.209 98.417L507.196 98.4188L507.184 98.4209C506.528 98.5291 505.894 98.6178 505.262 98.6873L505.251 98.6885L505.24 98.69C500.507 99.3154 496.037 99.5155 492.087 99.4768L492.08 99.4767L492.072 99.4768C486.827 99.5026 482.393 99.1825 479.273 98.8563C477.714 98.6932 476.483 98.5287 475.646 98.4055C475.462 98.3785 475.297 98.3535 475.152 98.3309C474.877 92.161 474.88 79.2467 474.88 76.8117L474.88 76.6073C474.88 48.9143 483.417 31.2642 495.225 20.0575C507.06 8.82536 522.302 3.95226 535.898 2.06443L535.911 2.06267L535.923 2.06058C536.579 1.95234 537.213 1.86363 537.845 1.7941L537.856 1.79293L537.867 1.79154C542.62 1.16599 547.071 0.965893 551.02 1.00461L551.028 1.00469L551.035 1.00465C556.28 0.97878 560.719 1.29897 563.844 1.62517C565.406 1.78823 566.639 1.95271 567.478 2.07596C567.664 2.10325 567.831 2.12852 567.978 2.1513C568.156 5.66665 568.24 9.05235 568.234 12.319Z" stroke="white" stroke-width="2"/>
<path d="M357.083 221.175C356.897 221.148 356.731 221.122 356.584 221.1C356.405 217.584 356.322 214.199 356.328 210.932V210.93C356.328 210.605 356.326 210.052 356.325 209.339C356.317 205.621 356.3 197.563 356.392 194.834C356.696 186.175 357.879 178.561 359.753 171.865L359.753 171.865C369.022 138.733 395.356 127.89 417.352 124.834L417.365 124.832L417.378 124.83C418.033 124.722 418.668 124.633 419.3 124.564L419.311 124.562L419.321 124.561C424.054 123.936 428.525 123.735 432.475 123.774L432.482 123.774L432.489 123.774C437.734 123.748 442.169 124.068 445.288 124.395C446.848 124.558 448.078 124.722 448.916 124.845C449.1 124.872 449.264 124.897 449.41 124.92C449.684 131.09 449.682 144.005 449.682 146.439L449.682 146.644C449.682 174.337 441.145 191.987 429.336 203.193C417.501 214.426 402.26 219.299 388.663 221.187L388.651 221.188L388.638 221.19C387.982 221.299 387.348 221.387 386.716 221.457L386.706 221.458L386.695 221.459C381.942 222.085 377.491 222.285 373.541 222.246L373.534 222.246L373.526 222.246C368.281 222.272 363.842 221.952 360.718 221.626C359.155 221.463 357.923 221.298 357.083 221.175Z" stroke="white" stroke-width="2"/>
<path d="M119.452 135.135L119.452 135.133C119.446 131.867 119.529 128.481 119.708 124.966C119.855 124.943 120.021 124.918 120.207 124.89C121.047 124.767 122.28 124.603 123.842 124.44C126.966 124.113 131.405 123.793 136.65 123.819L136.658 123.819L136.665 123.819C140.615 123.78 145.066 123.98 149.819 124.606L149.83 124.607L149.84 124.609C150.472 124.678 151.106 124.767 151.762 124.875L151.775 124.877L151.787 124.879C165.384 126.767 180.625 131.64 192.461 142.872C204.269 154.079 212.806 171.729 212.806 199.422L212.806 199.626C212.806 202.061 212.808 214.975 212.534 221.145C212.388 221.168 212.224 221.193 212.04 221.22C211.202 221.343 209.972 221.508 208.412 221.671C205.293 221.997 200.858 222.317 195.613 222.291L195.606 222.291L195.599 222.291C191.649 222.33 187.178 222.13 182.445 221.504L182.435 221.503L182.424 221.502C181.792 221.432 181.158 221.344 180.502 221.235L180.489 221.233L180.476 221.231C158.48 218.175 132.146 207.333 122.877 174.201L122.877 174.201C121.003 167.505 119.82 159.891 119.516 151.231C119.424 148.503 119.441 140.444 119.449 136.727C119.451 136.014 119.452 135.461 119.452 135.135Z" stroke="white" stroke-width="2"/>
<path d="M331.358 135.133V135.135C331.358 135.461 331.359 136.014 331.361 136.727C331.369 140.444 331.386 148.502 331.293 151.23C330.989 159.89 329.806 167.504 327.933 174.201C318.664 207.333 292.329 218.175 270.333 221.231L270.321 221.233L270.308 221.235C269.652 221.344 269.018 221.432 268.386 221.502L268.375 221.503L268.364 221.504C263.631 222.13 259.161 222.33 255.211 222.291L255.204 222.291L255.196 222.291C249.951 222.317 245.517 221.997 242.397 221.671C240.838 221.508 239.608 221.343 238.77 221.22C238.586 221.193 238.421 221.168 238.276 221.145C238.001 214.975 238.004 202.061 238.004 199.626L238.004 199.422C238.004 171.729 246.541 154.079 258.349 142.872C270.184 131.64 285.426 126.767 299.022 124.879L299.035 124.877L299.047 124.875C299.703 124.767 300.337 124.678 300.97 124.609L300.98 124.607L300.991 124.606C305.744 123.98 310.195 123.78 314.144 123.819L314.152 123.819L314.159 123.819C319.404 123.793 323.843 124.113 326.968 124.44C328.53 124.603 329.763 124.767 330.602 124.89C330.788 124.918 330.955 124.943 331.102 124.966C331.28 128.481 331.364 131.867 331.358 135.133Z" stroke="white" stroke-width="2"/>
<path d="M120.207 343.989C120.021 343.962 119.855 343.937 119.708 343.914C119.529 340.399 119.446 337.013 119.452 333.746V333.745C119.452 333.419 119.451 332.866 119.449 332.153C119.441 328.436 119.424 320.377 119.516 317.649C119.82 308.989 121.003 301.375 122.877 294.679L122.877 294.679C132.146 261.547 158.48 250.705 180.476 247.648L180.489 247.647L180.502 247.645C181.158 247.536 181.792 247.448 182.424 247.378L182.435 247.377L182.445 247.375C187.178 246.75 191.649 246.55 195.599 246.589L195.606 246.589L195.613 246.589C200.858 246.563 205.293 246.883 208.412 247.209C209.972 247.372 211.202 247.537 212.04 247.66C212.224 247.687 212.388 247.712 212.534 247.735C212.808 253.905 212.806 266.819 212.806 269.254L212.806 269.458C212.806 297.151 204.269 314.801 192.461 326.008C180.625 337.24 165.384 342.113 151.787 344.001L151.775 344.003L151.762 344.005C151.106 344.113 150.472 344.202 149.84 344.271L149.83 344.272L149.819 344.274C145.066 344.899 140.615 345.1 136.665 345.061L136.658 345.061L136.65 345.061C131.405 345.087 126.966 344.766 123.842 344.44C122.28 344.277 121.047 344.113 120.207 343.989Z" stroke="white" stroke-width="2"/>
<path d="M119.452 498.913L119.452 498.911C119.446 495.644 119.529 492.258 119.708 488.743C119.855 488.72 120.021 488.695 120.207 488.668C121.047 488.545 122.28 488.38 123.842 488.217C126.966 487.891 131.405 487.571 136.65 487.596L136.658 487.596L136.665 487.596C140.615 487.558 145.066 487.758 149.819 488.383L149.83 488.385L149.84 488.386C150.472 488.455 151.106 488.544 151.762 488.652L151.775 488.654L151.787 488.656C165.384 490.544 180.625 495.417 192.461 506.649C204.269 517.856 212.806 535.506 212.806 563.199L212.806 563.403C212.806 565.838 212.808 578.753 212.534 584.923C212.388 584.945 212.224 584.97 212.04 584.997C211.202 585.121 209.972 585.285 208.412 585.448C205.293 585.774 200.858 586.094 195.613 586.069L195.606 586.069L195.599 586.069C191.649 586.107 187.178 585.907 182.445 585.282L182.435 585.28L182.424 585.279C181.792 585.21 181.158 585.121 180.502 585.013L180.489 585.011L180.476 585.009C158.48 581.952 132.146 571.11 122.877 537.978L122.877 537.978C121.003 531.282 119.82 523.668 119.516 515.008C119.424 512.28 119.441 504.221 119.449 500.504C119.451 499.791 119.452 499.238 119.452 498.913Z" stroke="white" stroke-width="2"/>
<path d="M331.358 498.911V498.913C331.358 499.238 331.359 499.791 331.361 500.504C331.369 504.221 331.386 512.279 331.293 515.008C330.989 523.668 329.806 531.282 327.933 537.978C318.664 571.11 292.329 581.952 270.333 585.009L270.321 585.011L270.308 585.013C269.652 585.121 269.018 585.21 268.386 585.279L268.375 585.28L268.364 585.282C263.631 585.907 259.161 586.107 255.211 586.069L255.204 586.069L255.196 586.069C249.951 586.094 245.517 585.774 242.397 585.448C240.838 585.285 239.608 585.121 238.77 584.997C238.586 584.97 238.421 584.945 238.276 584.923C238.001 578.753 238.004 565.839 238.004 563.403L238.004 563.199C238.004 535.506 246.541 517.856 258.349 506.649C270.184 495.417 285.426 490.544 299.022 488.656L299.035 488.654L299.047 488.652C299.703 488.544 300.337 488.455 300.97 488.386L300.98 488.385L300.991 488.383C305.744 487.758 310.195 487.558 314.144 487.596L314.152 487.596L314.159 487.596C319.404 487.571 323.843 487.891 326.968 488.217C328.53 488.38 329.763 488.545 330.602 488.668C330.788 488.695 330.955 488.72 331.102 488.743C331.28 492.258 331.364 495.644 331.358 498.911Z" stroke="white" stroke-width="2"/>
<path d="M474.767 498.913L474.767 498.911C474.761 495.644 474.845 492.258 475.023 488.743C475.17 488.72 475.337 488.695 475.523 488.668C476.362 488.545 477.595 488.38 479.157 488.217C482.282 487.891 486.721 487.571 491.966 487.596L491.973 487.596L491.981 487.596C495.93 487.558 500.382 487.758 505.134 488.383L505.145 488.385L505.156 488.386C505.788 488.455 506.422 488.544 507.078 488.652L507.09 488.654L507.103 488.656C520.699 490.544 535.941 495.417 547.776 506.649C559.584 517.856 568.121 535.506 568.121 563.199L568.121 563.403C568.122 565.838 568.124 578.753 567.849 584.923C567.704 584.945 567.539 584.97 567.355 584.997C566.518 585.121 565.287 585.285 563.728 585.448C560.608 585.774 556.174 586.094 550.929 586.069L550.922 586.069L550.914 586.069C546.964 586.107 542.494 585.907 537.761 585.282L537.75 585.28L537.739 585.279C537.107 585.21 536.473 585.121 535.817 585.013L535.805 585.011L535.792 585.009C513.796 581.952 487.462 571.11 478.192 537.978L478.192 537.978C476.319 531.282 475.136 523.668 474.832 515.008C474.739 512.28 474.757 504.221 474.764 500.504C474.766 499.791 474.767 499.238 474.767 498.913Z" stroke="white" stroke-width="2"/>
<path d="M686.673 498.911V498.913C686.673 499.238 686.675 499.791 686.676 500.504C686.684 504.221 686.701 512.279 686.609 515.008C686.305 523.668 685.122 531.282 683.248 537.978C673.979 571.11 647.645 581.952 625.649 585.009L625.636 585.011L625.623 585.013C624.968 585.121 624.333 585.21 623.701 585.279L623.69 585.28L623.68 585.282C618.947 585.907 614.476 586.107 610.526 586.069L610.519 586.069L610.512 586.069C605.267 586.094 600.832 585.774 597.713 585.448C596.153 585.285 594.923 585.121 594.085 584.997C593.902 584.97 593.737 584.945 593.592 584.923C593.317 578.753 593.319 565.839 593.319 563.403L593.319 563.199C593.319 535.506 601.856 517.856 613.665 506.649C625.5 495.417 640.741 490.544 654.338 488.656L654.35 488.654L654.363 488.652C655.019 488.544 655.653 488.455 656.285 488.386L656.296 488.385L656.306 488.383C661.059 487.758 665.51 487.558 669.46 487.596L669.467 487.596L669.475 487.596C674.72 487.571 679.159 487.891 682.284 488.217C683.846 488.38 685.078 488.545 685.918 488.668C686.104 488.695 686.271 488.72 686.417 488.743C686.596 492.258 686.679 495.644 686.673 498.911Z" stroke="white" stroke-width="2"/>
<path d="M1.00931 376.098L1.00931 376.096C1.00328 372.83 1.08689 369.444 1.26551 365.929C1.41217 365.906 1.57882 365.881 1.76476 365.853C2.60444 365.73 3.83712 365.566 5.39917 365.403C8.52392 365.076 12.963 364.756 18.208 364.782L18.2154 364.782L18.2228 364.782C22.1723 364.743 26.6237 364.943 31.3766 365.569L31.3872 365.57L31.3977 365.571C32.0299 365.641 32.664 365.73 33.3198 365.838L33.3324 365.84L33.3451 365.842C46.9414 367.73 62.1828 372.603 74.0181 383.835C85.8265 395.042 94.3633 412.692 94.3633 440.385L94.3633 440.589C94.3637 443.023 94.3659 455.938 94.0912 462.108C93.9459 462.131 93.7812 462.156 93.5975 462.183C92.7597 462.306 91.5295 462.471 89.97 462.634C86.8502 462.96 82.4161 463.28 77.1711 463.254L77.1637 463.254L77.1563 463.254C73.2065 463.293 68.7358 463.093 64.003 462.467L63.9922 462.466L63.9813 462.465C63.3492 462.395 62.7151 462.306 62.0593 462.198L62.0467 462.196L62.0341 462.194C40.038 459.138 13.7037 448.296 4.43441 415.163L4.4344 415.163C2.56081 408.467 1.37792 400.854 1.07391 392.194C0.981571 389.466 0.99871 381.407 1.00662 377.69C1.00813 376.977 1.00931 376.424 1.00931 376.098Z" stroke="white" stroke-width="2"/>
<path d="M212.916 376.096V376.098C212.916 376.424 212.917 376.977 212.918 377.689C212.926 381.407 212.943 389.465 212.851 392.193C212.547 400.853 211.364 408.467 209.49 415.163C200.221 448.296 173.887 459.138 151.891 462.194L151.878 462.196L151.866 462.198C151.21 462.306 150.576 462.395 149.944 462.465L149.933 462.466L149.922 462.467C145.189 463.093 140.718 463.293 136.769 463.254L136.761 463.254L136.754 463.254C131.509 463.28 127.075 462.96 123.955 462.634C122.395 462.471 121.165 462.306 120.327 462.183C120.144 462.156 119.979 462.131 119.834 462.108C119.559 455.938 119.561 443.024 119.562 440.589L119.562 440.385C119.562 412.692 128.098 395.042 139.907 383.835C151.742 372.603 166.984 367.73 180.58 365.842L180.592 365.84L180.605 365.838C181.261 365.73 181.895 365.641 182.527 365.571L182.538 365.57L182.548 365.569C187.301 364.943 191.753 364.743 195.702 364.782L195.709 364.782L195.717 364.782C200.962 364.756 205.401 365.076 208.526 365.403C210.088 365.566 211.32 365.73 212.16 365.853C212.346 365.881 212.513 365.906 212.659 365.929C212.838 369.444 212.922 372.83 212.916 376.096Z" stroke="white" stroke-width="2"/>
<path d="M1.76476 584.952C1.57882 584.925 1.41218 584.9 1.26551 584.877C1.08689 581.362 1.00328 577.976 1.00931 574.709V574.707C1.00931 574.382 1.00813 573.829 1.00662 573.116C0.99871 569.399 0.981571 561.34 1.07391 558.612C1.37791 549.952 2.5608 542.338 4.4344 535.642L4.43441 535.642C13.7037 502.51 40.038 491.668 62.0341 488.611L62.0467 488.61L62.0593 488.607C62.7151 488.499 63.3492 488.411 63.9813 488.341L63.9922 488.34L64.003 488.338C68.7358 487.713 73.2065 487.513 77.1563 487.551L77.1637 487.552L77.1711 487.552C82.4161 487.526 86.8502 487.846 89.97 488.172C91.5296 488.335 92.7597 488.5 93.5975 488.623C93.7812 488.65 93.9459 488.675 94.0912 488.697C94.3659 494.867 94.3637 507.782 94.3633 510.217L94.3633 510.421C94.3633 538.114 85.8265 555.764 74.0181 566.971C62.1828 578.203 46.9414 583.076 33.3451 584.964L33.3324 584.966L33.3198 584.968C32.6639 585.076 32.0299 585.165 31.3977 585.234L31.3872 585.235L31.3766 585.237C26.6237 585.862 22.1723 586.062 18.2228 586.024L18.2154 586.024L18.208 586.024C12.963 586.05 8.52392 585.729 5.39917 585.403C3.83712 585.24 2.60444 585.076 1.76476 584.952Z" stroke="white" stroke-width="2"/>
</svg>
