<svg width="1373" height="431" viewBox="0 0 1373 431" fill="none" xmlns="http://www.w3.org/2000/svg">
<path d="M191.583 430.068L191.582 430.068C189.042 430.073 186.408 430.006 183.67 429.863C183.646 429.711 183.615 429.515 183.58 429.278C183.487 428.639 183.362 427.703 183.238 426.518C182.99 424.147 182.748 420.78 182.767 416.801L182.767 416.801L182.767 416.794C182.738 413.796 182.89 410.417 183.365 406.809L183.365 406.809L183.366 406.798C183.419 406.315 183.487 405.831 183.569 405.33L183.569 405.33L183.571 405.318C185.003 395.004 188.703 383.417 197.249 374.412C205.783 365.42 219.205 358.943 240.209 358.943L240.365 358.943C242.234 358.942 252.276 358.94 256.862 359.158C256.886 359.31 256.916 359.505 256.951 359.741C257.045 360.378 257.17 361.312 257.293 362.495C257.541 364.863 257.784 368.226 257.764 372.204L257.764 372.212C257.794 375.21 257.642 378.604 257.167 382.197L257.167 382.197L257.165 382.208C257.112 382.691 257.045 383.175 256.962 383.675L256.962 383.675L256.96 383.688C254.641 400.377 246.402 420.418 221.201 427.468L221.336 427.949L221.201 427.468C216.115 428.891 210.335 429.789 203.767 430.019C201.698 430.089 195.592 430.076 192.782 430.07C192.245 430.069 191.828 430.068 191.583 430.068Z" stroke="black"/>
<path d="M203.767 269.319C201.698 269.249 195.592 269.262 192.782 269.268C192.245 269.269 191.828 269.27 191.583 269.27L191.582 269.27C189.042 269.265 186.408 269.332 183.67 269.475C183.646 269.627 183.615 269.823 183.58 270.06C183.487 270.699 183.362 271.635 183.238 272.82C182.99 275.191 182.748 278.558 182.767 282.537L182.767 282.544L182.767 282.544C182.738 285.542 182.89 288.921 183.365 292.529L183.366 292.54L183.366 292.54C183.419 293.023 183.487 293.508 183.569 294.008L183.571 294.02L183.571 294.02C185.003 304.334 188.703 315.921 197.249 324.927C205.783 333.918 219.205 340.395 240.209 340.395L240.365 340.395C242.234 340.396 252.276 340.398 256.862 340.18C256.886 340.028 256.916 339.833 256.951 339.597C257.045 338.96 257.17 338.026 257.293 336.843C257.541 334.475 257.784 331.112 257.764 327.134L257.764 327.126C257.794 324.128 257.642 320.734 257.167 317.141L257.165 317.13L257.165 317.13C257.112 316.647 257.045 316.163 256.962 315.663L256.96 315.65L256.96 315.65C254.641 298.962 246.402 278.92 221.201 271.87L221.325 271.428L221.201 271.87C216.115 270.447 210.335 269.549 203.767 269.319ZM203.767 269.319C203.767 269.319 203.767 269.319 203.767 269.319L203.784 268.819L203.767 269.319Z" stroke="black"/>
<path d="M275.939 383.757C278.271 400.544 286.586 420.823 312.058 427.949C317.187 429.385 323.007 430.287 329.61 430.519C331.69 430.589 337.816 430.576 340.621 430.57C341.155 430.569 341.569 430.568 341.811 430.568C344.484 430.573 347.26 430.499 350.15 430.341L350.123 429.842C349.99 429.849 349.857 429.856 349.724 429.863M275.939 383.757L349.724 429.863M275.939 383.757C275.855 383.249 275.786 382.756 275.732 382.263C275.253 378.643 275.1 375.225 275.13 372.207C275.091 364.208 276.106 358.679 276.106 358.679M275.939 383.757L276.106 358.679M349.724 429.863C349.749 429.711 349.779 429.515 349.814 429.278C349.908 428.639 350.032 427.703 350.156 426.518C350.404 424.147 350.647 420.78 350.627 416.801L350.627 416.794C350.656 413.796 350.504 410.417 350.03 406.809L350.028 406.798L350.028 406.798C349.975 406.315 349.907 405.831 349.825 405.33L349.823 405.318L349.823 405.318C348.391 395.004 344.691 383.417 336.145 374.412C327.611 365.42 314.189 358.943 293.185 358.943L293.029 358.943C291.16 358.942 281.118 358.94 276.533 359.158C276.508 359.31 276.478 359.505 276.443 359.741C276.349 360.378 276.224 361.312 276.101 362.495C275.853 364.863 275.61 368.226 275.63 372.204L275.63 372.212L275.63 372.212C275.601 375.21 275.752 378.604 276.227 382.197L276.229 382.208L276.229 382.208C276.282 382.691 276.35 383.175 276.432 383.675L276.434 383.688L276.434 383.688C278.753 400.377 286.993 420.418 312.193 427.468L312.059 427.949L312.193 427.468C317.28 428.891 323.059 429.789 329.627 430.019C331.696 430.089 337.802 430.076 340.612 430.07C341.149 430.069 341.566 430.068 341.811 430.068L341.812 430.068C344.352 430.073 346.986 430.006 349.724 429.863ZM276.106 358.679C280.494 358.44 291.103 358.442 293.028 358.443L293.185 358.443C335.415 358.443 347.438 384.506 350.318 405.249C350.402 405.757 350.471 406.25 350.525 406.743C351.004 410.378 351.157 413.781 351.127 416.799L276.106 358.679Z" stroke="black"/>
<path d="M748.966 430.068L748.965 430.068C746.425 430.073 743.791 430.006 741.053 429.863C741.028 429.711 740.998 429.515 740.963 429.278C740.869 428.639 740.744 427.703 740.621 426.518C740.373 424.147 740.13 420.78 740.15 416.801L740.15 416.801L740.15 416.794C740.121 413.796 740.272 410.417 740.747 406.809L740.748 406.809L740.749 406.798C740.802 406.315 740.87 405.831 740.952 405.33L740.952 405.33L740.954 405.318C742.386 395.004 746.086 383.417 754.632 374.412C763.166 365.42 776.588 358.943 797.592 358.943L797.748 358.943C799.617 358.942 809.659 358.94 814.244 359.158C814.269 359.31 814.299 359.505 814.334 359.741C814.428 360.378 814.552 361.312 814.676 362.495C814.924 364.863 815.167 368.226 815.147 372.204L815.147 372.212C815.176 375.21 815.024 378.604 814.55 382.197L814.549 382.197L814.548 382.208C814.495 382.691 814.427 383.175 814.345 383.675L814.345 383.675L814.343 383.688C812.024 400.377 803.784 420.418 778.584 427.468L778.719 427.949L778.584 427.468C773.497 428.891 767.718 429.789 761.15 430.019C759.081 430.089 752.975 430.076 750.165 430.07C749.628 430.069 749.211 430.068 748.966 430.068Z" stroke="black"/>
<path d="M761.15 269.319C759.081 269.249 752.975 269.262 750.165 269.268C749.628 269.269 749.211 269.27 748.966 269.27L748.965 269.27C746.425 269.265 743.791 269.332 741.053 269.475C741.028 269.627 740.998 269.823 740.963 270.06C740.869 270.699 740.744 271.635 740.621 272.82C740.373 275.191 740.13 278.558 740.15 282.537L740.15 282.544L740.15 282.544C740.121 285.542 740.272 288.921 740.747 292.529L740.749 292.54L740.749 292.54C740.802 293.023 740.87 293.508 740.952 294.008L740.954 294.02L740.954 294.02C742.386 304.334 746.086 315.921 754.632 324.927C763.166 333.918 776.588 340.395 797.592 340.395L797.748 340.395C799.617 340.396 809.659 340.398 814.244 340.18C814.269 340.028 814.299 339.833 814.334 339.597C814.428 338.96 814.552 338.026 814.676 336.843C814.924 334.475 815.167 331.112 815.147 327.134L815.147 327.126C815.176 324.128 815.024 320.734 814.55 317.141L814.548 317.13L814.548 317.13C814.495 316.647 814.427 316.163 814.345 315.663L814.343 315.65L814.343 315.65C812.024 298.962 803.784 278.92 778.584 271.87L778.708 271.428L778.584 271.87C773.497 270.447 767.718 269.549 761.15 269.319ZM761.15 269.319C761.15 269.319 761.15 269.319 761.149 269.319L761.167 268.819L761.15 269.319Z" stroke="black"/>
<path d="M833.322 383.757C835.654 400.544 843.969 420.823 869.441 427.949C874.57 429.385 880.389 430.287 886.993 430.519C889.072 430.589 895.199 430.576 898.003 430.57C898.538 430.569 898.952 430.568 899.194 430.568C901.867 430.573 904.643 430.499 907.533 430.341L907.506 429.842C907.373 429.849 907.24 429.856 907.107 429.863M833.322 383.757L907.107 429.863M833.322 383.757C833.238 383.249 833.169 382.756 833.114 382.263C832.636 378.643 832.483 375.225 832.513 372.207C832.473 364.208 833.489 358.679 833.489 358.679M833.322 383.757L833.489 358.679M907.107 429.863C907.131 429.711 907.162 429.515 907.197 429.278C907.29 428.639 907.415 427.703 907.539 426.518C907.787 424.147 908.029 420.78 908.01 416.801L908.01 416.794C908.039 413.796 907.887 410.417 907.412 406.809L907.411 406.798L907.411 406.798C907.358 406.315 907.29 405.831 907.208 405.33L907.206 405.318L907.206 405.318C905.774 395.004 902.074 383.417 893.528 374.412C884.994 365.42 871.571 358.943 850.568 358.943L850.412 358.943C848.543 358.942 838.501 358.94 833.915 359.158C833.891 359.31 833.86 359.505 833.826 359.741C833.732 360.378 833.607 361.312 833.484 362.495C833.236 364.863 832.993 368.226 833.013 372.204L833.013 372.212L833.013 372.212C832.983 375.21 833.135 378.604 833.61 382.197L833.612 382.208L833.611 382.208C833.665 382.691 833.732 383.175 833.815 383.675L833.817 383.688L833.817 383.688C836.136 400.377 844.375 420.418 869.576 427.468L869.441 427.949L869.576 427.468C874.662 428.891 880.442 429.789 887.01 430.019C889.079 430.089 895.185 430.076 897.995 430.07C898.532 430.069 898.949 430.068 899.194 430.068L899.195 430.068C901.735 430.073 904.369 430.006 907.107 429.863ZM833.489 358.679C837.877 358.44 848.486 358.442 850.411 358.443L850.568 358.443C892.797 358.443 904.821 384.506 907.701 405.249C907.785 405.757 907.854 406.25 907.908 406.743C908.386 410.378 908.539 413.781 908.51 416.799L833.489 358.679Z" stroke="black"/>
<path d="M284.48 340.482L284.479 340.482C281.939 340.487 279.304 340.42 276.567 340.277C276.542 340.125 276.512 339.929 276.477 339.692C276.383 339.053 276.258 338.117 276.134 336.932C275.887 334.561 275.644 331.194 275.664 327.215L275.664 327.215L275.664 327.208C275.634 324.21 275.786 320.831 276.261 317.223L276.261 317.223L276.262 317.212C276.316 316.729 276.383 316.245 276.466 315.744L276.466 315.745L276.468 315.732C277.9 305.418 281.599 293.831 290.146 284.826C298.679 275.834 312.102 269.357 333.106 269.357L333.261 269.357C335.131 269.356 345.172 269.355 349.758 269.572C349.783 269.724 349.813 269.919 349.848 270.155C349.941 270.792 350.066 271.726 350.19 272.909C350.437 275.277 350.68 278.64 350.661 282.618L350.661 282.626C350.69 285.624 350.538 289.018 350.063 292.611L350.063 292.611L350.062 292.622C350.009 293.105 349.941 293.589 349.859 294.089L349.858 294.089L349.857 294.102C347.538 310.791 339.298 330.832 314.098 337.882L314.232 338.364L314.098 337.882C309.011 339.305 303.231 340.203 296.663 340.433C294.594 340.503 288.488 340.49 285.679 340.484C285.141 340.483 284.724 340.482 284.48 340.482Z" stroke="black"/>
<path d="M296.664 179.733C294.595 179.663 288.488 179.676 285.679 179.682C285.141 179.683 284.724 179.684 284.48 179.684L284.479 179.684C281.939 179.679 279.304 179.746 276.567 179.889C276.542 180.041 276.512 180.237 276.477 180.475C276.383 181.113 276.258 182.049 276.134 183.234C275.887 185.605 275.644 188.972 275.664 192.951L275.664 192.958L275.664 192.958C275.634 195.956 275.786 199.335 276.261 202.944L276.262 202.954L276.262 202.954C276.316 203.437 276.383 203.922 276.466 204.422L276.468 204.434L276.468 204.434C277.9 214.748 281.599 226.335 290.146 235.341C298.679 244.332 312.102 250.81 333.106 250.81L333.261 250.81C335.131 250.81 345.172 250.812 349.758 250.594C349.783 250.442 349.813 250.247 349.848 250.011C349.941 249.374 350.066 248.44 350.19 247.257C350.437 244.889 350.68 241.526 350.661 237.548L350.661 237.54C350.69 234.542 350.538 231.148 350.063 227.555L350.062 227.544L350.062 227.544C350.009 227.061 349.941 226.577 349.859 226.077L349.856 226.064L349.857 226.064C347.538 209.376 339.298 189.334 314.098 182.284L314.221 181.842L314.098 182.284C309.011 180.861 303.232 179.964 296.664 179.733ZM296.664 179.733C296.663 179.733 296.663 179.733 296.663 179.733L296.681 179.233L296.664 179.733Z" stroke="black"/>
<path d="M368.835 294.171C371.168 310.958 379.483 331.237 404.955 338.364C410.084 339.799 415.903 340.701 422.507 340.933C424.586 341.003 430.712 340.99 433.517 340.984C434.051 340.983 434.465 340.982 434.707 340.982C437.38 340.987 440.157 340.913 443.047 340.755L443.02 340.256C442.886 340.263 442.753 340.27 442.62 340.277M368.835 294.171L442.62 340.277M368.835 294.171C368.751 293.663 368.682 293.17 368.628 292.677C368.15 289.057 367.997 285.639 368.026 282.621C367.987 274.622 369.003 269.093 369.003 269.093M368.835 294.171L369.003 269.093M442.62 340.277C442.645 340.125 442.676 339.929 442.71 339.692C442.804 339.053 442.929 338.117 443.053 336.932C443.3 334.561 443.543 331.194 443.523 327.215L443.523 327.208C443.553 324.21 443.401 320.831 442.926 317.223L442.925 317.212L442.925 317.212C442.872 316.729 442.804 316.245 442.721 315.744L442.719 315.732L442.719 315.732C441.287 305.418 437.588 293.831 429.041 284.826C420.508 275.834 407.085 269.357 386.081 269.357L385.926 269.357C384.057 269.356 374.015 269.355 369.429 269.572C369.405 269.724 369.374 269.919 369.339 270.155C369.246 270.792 369.121 271.726 368.997 272.909C368.75 275.277 368.507 278.64 368.526 282.618L368.527 282.626L368.526 282.626C368.497 285.624 368.649 289.018 369.124 292.611L369.125 292.622L369.125 292.622C369.178 293.105 369.246 293.589 369.329 294.089L369.331 294.102L369.331 294.102C371.649 310.791 379.889 330.832 405.089 337.882L404.955 338.363L405.09 337.882C410.176 339.305 415.956 340.203 422.524 340.433C424.593 340.503 430.699 340.49 433.508 340.484C434.046 340.483 434.463 340.482 434.707 340.482L434.708 340.482C437.248 340.487 439.883 340.42 442.62 340.277ZM369.003 269.093C373.391 268.854 383.999 268.856 385.924 268.857L386.081 268.857C428.311 268.857 440.335 294.92 443.215 315.663C443.298 316.171 443.367 316.664 443.422 317.157C443.9 320.792 444.053 324.195 444.023 327.213L369.003 269.093Z" stroke="black"/>
<path d="M841.864 340.482L841.863 340.482C839.323 340.487 836.689 340.42 833.951 340.277C833.926 340.125 833.896 339.929 833.861 339.692C833.767 339.053 833.642 338.117 833.519 336.932C833.271 334.561 833.028 331.194 833.048 327.215L833.048 327.215L833.048 327.208C833.019 324.21 833.17 320.831 833.645 317.223L833.645 317.223L833.647 317.212C833.7 316.729 833.768 316.245 833.85 315.744L833.85 315.745L833.852 315.732C835.284 305.418 838.984 293.831 847.53 284.826C856.064 275.834 869.486 269.357 890.49 269.357L890.645 269.357C892.515 269.356 902.557 269.355 907.142 269.572C907.167 269.724 907.197 269.919 907.232 270.155C907.326 270.792 907.45 271.726 907.574 272.909C907.822 275.277 908.065 278.64 908.045 282.618L908.045 282.626C908.074 285.624 907.922 289.018 907.448 292.611L907.447 292.611L907.446 292.622C907.393 293.105 907.325 293.589 907.243 294.089L907.243 294.089L907.241 294.102C904.922 310.791 896.682 330.832 871.482 337.882L871.617 338.364L871.482 337.882C866.395 339.305 860.616 340.203 854.048 340.433C851.979 340.503 845.872 340.49 843.063 340.484C842.526 340.483 842.109 340.482 841.864 340.482Z" stroke="black"/>
<path d="M854.048 179.733C851.979 179.663 845.873 179.676 843.063 179.682C842.525 179.683 842.109 179.684 841.864 179.684L841.863 179.684C839.323 179.679 836.689 179.746 833.951 179.889C833.926 180.041 833.896 180.237 833.861 180.475C833.767 181.113 833.642 182.049 833.519 183.234C833.271 185.605 833.028 188.972 833.048 192.951L833.048 192.958L833.048 192.958C833.019 195.956 833.17 199.335 833.645 202.944L833.647 202.954L833.647 202.954C833.7 203.437 833.768 203.922 833.85 204.422L833.852 204.434L833.852 204.434C835.284 214.748 838.984 226.335 847.53 235.341C856.064 244.332 869.486 250.81 890.49 250.81L890.646 250.81C892.515 250.81 902.557 250.812 907.142 250.594C907.167 250.442 907.197 250.247 907.232 250.011C907.326 249.374 907.45 248.44 907.574 247.257C907.822 244.889 908.065 241.526 908.045 237.548L908.045 237.54C908.074 234.542 907.922 231.148 907.448 227.555L907.446 227.544L907.446 227.544C907.393 227.061 907.325 226.577 907.243 226.077L907.241 226.064L907.241 226.064C904.922 209.376 896.682 189.334 871.482 182.284L871.605 181.842L871.482 182.284C866.395 180.861 860.616 179.964 854.048 179.733ZM854.048 179.733C854.048 179.733 854.047 179.733 854.047 179.733L854.065 179.233L854.048 179.733Z" stroke="black"/>
<path d="M926.22 294.171C928.552 310.958 936.867 331.237 962.339 338.364C967.468 339.799 973.287 340.701 979.891 340.933C981.97 341.003 988.097 340.99 990.901 340.984C991.436 340.983 991.849 340.982 992.092 340.982C994.765 340.987 997.541 340.913 1000.43 340.755L1000.4 340.256C1000.27 340.263 1000.14 340.27 1000 340.277M926.22 294.171L1000 340.277M926.22 294.171C926.136 293.663 926.067 293.17 926.012 292.677C925.534 289.057 925.381 285.639 925.411 282.621C925.371 274.622 926.387 269.093 926.387 269.093M926.22 294.171L926.387 269.093M1000 340.277C1000.03 340.125 1000.06 339.929 1000.09 339.692C1000.19 339.053 1000.31 338.117 1000.44 336.932C1000.68 334.561 1000.93 331.194 1000.91 327.215L1000.91 327.208C1000.94 324.21 1000.79 320.831 1000.31 317.223L1000.31 317.212L1000.31 317.212C1000.26 316.729 1000.19 316.245 1000.11 315.744L1000.1 315.732L1000.1 315.732C998.672 305.418 994.972 293.831 986.426 284.826C977.892 275.834 964.469 269.357 943.466 269.357L943.31 269.357C941.441 269.356 931.399 269.355 926.813 269.572C926.789 269.724 926.758 269.919 926.724 270.155C926.63 270.792 926.505 271.726 926.381 272.909C926.134 275.277 925.891 278.64 925.911 282.618L925.911 282.626L925.911 282.626C925.881 285.624 926.033 289.018 926.508 292.611L926.51 292.622L926.509 292.622C926.563 293.105 926.63 293.589 926.713 294.089L926.715 294.102L926.715 294.102C929.034 310.791 937.273 330.832 962.474 337.882L962.339 338.363L962.474 337.882C967.56 339.305 973.34 340.203 979.908 340.433C981.977 340.503 988.083 340.49 990.893 340.484C991.43 340.483 991.847 340.482 992.092 340.482L992.093 340.482C994.633 340.487 997.267 340.42 1000 340.277ZM926.387 269.093C930.775 268.854 941.384 268.856 943.309 268.857L943.466 268.857C985.695 268.857 997.719 294.92 1000.6 315.663C1000.68 316.171 1000.75 316.664 1000.81 317.157C1001.28 320.792 1001.44 324.195 1001.41 327.213L926.387 269.093Z" stroke="black"/>
<path d="M195.113 161.305L195.112 161.305C192.573 161.31 189.938 161.243 187.2 161.101C187.176 160.948 187.145 160.752 187.111 160.515C187.017 159.877 186.892 158.941 186.768 157.755C186.521 155.384 186.278 152.017 186.297 148.039L186.298 148.039L186.297 148.031C186.268 145.034 186.42 141.654 186.895 138.046L186.895 138.046L186.896 138.035C186.949 137.552 187.017 137.068 187.1 136.568L187.1 136.568L187.102 136.555C188.534 126.241 192.233 114.654 200.779 105.649C209.313 96.657 222.736 90.1799 243.74 90.1799L243.895 90.1799C245.764 90.1795 255.806 90.1778 260.392 90.3956C260.416 90.5475 260.447 90.7425 260.481 90.9782C260.575 91.6151 260.7 92.5492 260.824 93.7327C261.071 96.1 261.314 99.4634 261.294 103.442L261.294 103.449C261.324 106.447 261.172 109.841 260.697 113.434L260.697 113.434L260.696 113.445C260.643 113.928 260.575 114.413 260.492 114.913L260.492 114.913L260.49 114.925C258.171 131.614 249.932 151.655 224.731 158.705L224.866 159.187L224.731 158.705C219.645 160.129 213.865 161.026 207.297 161.256C205.228 161.326 199.122 161.313 196.313 161.307C195.775 161.306 195.358 161.305 195.113 161.305Z" stroke="black"/>
<path d="M207.297 0.556214C205.229 0.486161 199.122 0.499161 196.312 0.50515C195.775 0.506294 195.358 0.507179 195.113 0.507179L195.112 0.507179C192.573 0.502495 189.938 0.569305 187.2 0.71199C187.176 0.864494 187.145 1.06058 187.111 1.29776C187.017 1.93612 186.892 2.87207 186.768 4.05744C186.521 6.4285 186.278 9.79566 186.297 13.7739L186.298 13.7813L186.297 13.7813C186.268 16.7791 186.42 20.1583 186.895 23.7668L186.896 23.7774L186.896 23.7774C186.949 24.2606 187.017 24.7448 187.1 25.2449L187.102 25.2576L187.102 25.2576C188.534 35.5713 192.233 47.1585 200.779 56.1638C209.313 65.1557 222.736 71.6328 243.74 71.6328L243.895 71.6328C245.764 71.6331 255.806 71.6348 260.392 71.4171C260.416 71.2652 260.447 71.0702 260.481 70.8345C260.575 70.1975 260.7 69.2635 260.824 68.08C261.071 65.7126 261.314 62.3492 261.294 58.3709L261.294 58.3636C261.324 55.3656 261.172 51.9717 260.697 48.3783L260.696 48.3675L260.696 48.3675C260.643 47.8842 260.575 47.4001 260.492 46.9L260.49 46.8874L260.49 46.8874C258.171 30.1988 249.932 10.1577 224.731 3.10741L224.855 2.66563L224.731 3.1074C219.645 1.68416 213.865 0.786805 207.297 0.556214ZM207.297 0.556214C207.297 0.556214 207.297 0.556191 207.297 0.556191L207.314 0.0565036L207.297 0.556214Z" stroke="black"/>
<path d="M279.47 114.994C281.802 131.781 290.117 152.06 315.589 159.187C320.718 160.622 326.537 161.524 333.141 161.756C335.22 161.827 341.347 161.813 344.151 161.807C344.686 161.806 345.099 161.805 345.342 161.805C348.015 161.81 350.791 161.736 353.681 161.579L353.654 161.079C353.521 161.087 353.388 161.094 353.255 161.101M279.47 114.994L353.255 161.101M279.47 114.994C279.386 114.486 279.317 113.993 279.262 113.5C278.784 109.88 278.631 106.462 278.661 103.444C278.621 95.445 279.637 89.9166 279.637 89.9166M279.47 114.994L279.637 89.9166M353.255 161.101C353.279 160.948 353.31 160.752 353.345 160.515C353.438 159.877 353.563 158.941 353.687 157.755C353.934 155.384 354.177 152.017 354.158 148.039L354.158 148.031C354.187 145.034 354.035 141.654 353.56 138.046L353.559 138.035L353.559 138.035C353.506 137.552 353.438 137.068 353.356 136.568L353.353 136.555L353.354 136.555C351.922 126.241 348.222 114.654 339.676 105.649C331.142 96.657 317.719 90.1799 296.716 90.1799L296.56 90.1799C294.691 90.1795 284.649 90.1778 280.063 90.3956C280.039 90.5475 280.008 90.7425 279.974 90.9782C279.88 91.6151 279.755 92.5492 279.631 93.7327C279.384 96.1 279.141 99.4634 279.161 103.442L279.161 103.449L279.161 103.449C279.131 106.447 279.283 109.841 279.758 113.434L279.76 113.445L279.759 113.445C279.813 113.928 279.88 114.413 279.963 114.913L279.965 114.925L279.965 114.925C282.284 131.614 290.523 151.655 315.724 158.705L315.589 159.186L315.724 158.705C320.81 160.129 326.59 161.026 333.158 161.256C335.227 161.326 341.333 161.313 344.143 161.307C344.68 161.306 345.097 161.305 345.342 161.305L345.343 161.305C347.883 161.31 350.517 161.243 353.255 161.101ZM279.637 89.9166C284.025 89.6776 294.634 89.6795 296.559 89.6799L296.716 89.6799C338.945 89.6799 350.969 115.744 353.849 136.486C353.933 136.994 354.002 137.487 354.056 137.981C354.534 141.615 354.687 145.018 354.658 148.036L279.637 89.9166Z" stroke="black"/>
<path d="M752.497 161.305L752.496 161.305C749.956 161.31 747.321 161.243 744.584 161.101C744.559 160.948 744.529 160.752 744.494 160.515C744.4 159.877 744.275 158.941 744.152 157.755C743.904 155.384 743.661 152.017 743.681 148.039L743.681 148.039L743.681 148.031C743.651 145.034 743.803 141.654 744.278 138.046L744.278 138.046L744.279 138.035C744.333 137.552 744.4 137.068 744.483 136.568L744.483 136.568L744.485 136.555C745.917 126.241 749.616 114.654 758.163 105.649C766.696 96.657 780.119 90.1799 801.123 90.1799L801.278 90.1799C803.148 90.1795 813.189 90.1778 817.775 90.3956C817.8 90.5475 817.83 90.7425 817.865 90.9782C817.958 91.6151 818.083 92.5492 818.207 93.7327C818.454 96.1 818.697 99.4634 818.678 103.442L818.678 103.449C818.707 106.447 818.555 109.841 818.08 113.434L818.08 113.434L818.079 113.445C818.026 113.928 817.958 114.413 817.876 114.913L817.875 114.913L817.874 114.925C815.555 131.614 807.315 151.655 782.115 158.705L782.249 159.187L782.115 158.705C777.028 160.129 771.249 161.026 764.68 161.256C762.611 161.326 756.505 161.313 753.696 161.307C753.158 161.306 752.741 161.305 752.497 161.305Z" stroke="black"/>
<path d="M764.681 0.556214C762.612 0.486161 756.505 0.499161 753.696 0.50515C753.158 0.506294 752.741 0.507179 752.497 0.507179L752.496 0.507179C749.956 0.502495 747.321 0.569305 744.584 0.71199C744.559 0.864494 744.529 1.06058 744.494 1.29776C744.4 1.93612 744.275 2.87207 744.152 4.05744C743.904 6.4285 743.661 9.79566 743.681 13.7739L743.681 13.7813L743.681 13.7813C743.651 16.7791 743.803 20.1583 744.278 23.7668L744.28 23.7774L744.279 23.7774C744.333 24.2606 744.4 24.7448 744.483 25.2449L744.485 25.2576L744.485 25.2576C745.917 35.5713 749.616 47.1585 758.163 56.1638C766.696 65.1557 780.119 71.6328 801.123 71.6328L801.278 71.6328C803.148 71.6331 813.19 71.6348 817.775 71.4171C817.8 71.2652 817.83 71.0702 817.865 70.8345C817.958 70.1975 818.083 69.2635 818.207 68.08C818.454 65.7126 818.697 62.3492 818.678 58.3709L818.678 58.3636C818.707 55.3656 818.555 51.9717 818.08 48.3783L818.079 48.3675L818.079 48.3675C818.026 47.8842 817.958 47.4001 817.876 46.9L817.874 46.8874L817.874 46.8874C815.555 30.1988 807.315 10.1577 782.115 3.10741L782.238 2.66563L782.115 3.1074C777.028 1.68416 771.249 0.786805 764.681 0.556214ZM764.681 0.556214C764.68 0.556214 764.68 0.556191 764.68 0.556191L764.698 0.0565036L764.681 0.556214Z" stroke="black"/>
<path d="M836.852 114.994C839.185 131.781 847.5 152.06 872.972 159.187C878.101 160.622 883.92 161.524 890.524 161.756C892.603 161.827 898.729 161.813 901.534 161.807C902.069 161.806 902.482 161.805 902.725 161.805C905.398 161.81 908.174 161.736 911.064 161.579L911.037 161.079C910.903 161.087 910.77 161.094 910.638 161.101M836.852 114.994L910.638 161.101M836.852 114.994C836.769 114.486 836.699 113.993 836.645 113.5C836.167 109.88 836.014 106.462 836.044 103.444C836.004 95.445 837.02 89.9166 837.02 89.9166M836.852 114.994L837.02 89.9166M910.638 161.101C910.662 160.948 910.693 160.752 910.727 160.515C910.821 159.877 910.946 158.941 911.07 157.755C911.317 155.384 911.56 152.017 911.541 148.039L911.54 148.031C911.57 145.034 911.418 141.654 910.943 138.046L910.942 138.035L910.942 138.035C910.889 137.552 910.821 137.068 910.738 136.568L910.736 136.555L910.736 136.555C909.304 126.241 905.605 114.654 897.059 105.649C888.525 96.657 875.102 90.1799 854.098 90.1799L853.943 90.1799C852.074 90.1795 842.032 90.1778 837.446 90.3956C837.422 90.5475 837.391 90.7425 837.357 90.9782C837.263 91.6151 837.138 92.5492 837.014 93.7327C836.767 96.1 836.524 99.4634 836.544 103.442L836.544 103.449L836.544 103.449C836.514 106.447 836.666 109.841 837.141 113.434L837.142 113.445L837.142 113.445C837.195 113.928 837.263 114.413 837.346 114.913L837.348 114.925L837.348 114.925C839.667 131.614 847.906 151.655 873.107 158.705L872.972 159.186L873.107 158.705C878.193 160.129 883.973 161.026 890.541 161.256C892.61 161.326 898.716 161.313 901.525 161.307C902.063 161.306 902.48 161.305 902.725 161.305L902.726 161.305C905.265 161.31 907.9 161.243 910.638 161.101ZM837.02 89.9166C841.408 89.6776 852.016 89.6795 853.941 89.6799L854.098 89.6799C896.328 89.6799 908.352 115.744 911.232 136.486C911.316 136.994 911.385 137.487 911.439 137.981C911.917 141.615 912.07 145.018 912.04 148.036L837.02 89.9166Z" stroke="black"/>
<path d="M102.216 250.894L102.215 250.894C99.6751 250.899 97.0406 250.832 94.3029 250.69C94.2784 250.537 94.2479 250.341 94.2131 250.104C94.1194 249.465 93.9945 248.529 93.8707 247.344C93.6232 244.973 93.3804 241.606 93.4 237.628L93.4001 237.628L93.4 237.62C93.3706 234.622 93.5225 231.243 93.9974 227.635L93.9975 227.635L93.9987 227.624C94.0518 227.141 94.1196 226.657 94.2021 226.157L94.2023 226.157L94.2041 226.144C95.6361 215.83 99.3356 204.243 107.882 195.238C116.416 186.246 129.838 179.769 150.842 179.769L150.998 179.769C152.867 179.768 162.909 179.767 167.494 179.984C167.519 180.136 167.549 180.331 167.584 180.567C167.678 181.204 167.802 182.138 167.926 183.322C168.174 185.689 168.417 189.052 168.397 193.031L168.397 193.038C168.426 196.036 168.274 199.43 167.8 203.023L167.799 203.023L167.798 203.034C167.745 203.517 167.677 204.001 167.595 204.502L167.595 204.502L167.593 204.514C165.274 221.203 157.034 241.244 131.834 248.294L131.969 248.776L131.834 248.294C126.747 249.717 120.968 250.615 114.4 250.845C112.331 250.915 106.225 250.902 103.415 250.896C102.878 250.895 102.461 250.894 102.216 250.894Z" stroke="black"/>
<path d="M114.4 90.1451C112.331 90.075 106.225 90.088 103.415 90.094C102.878 90.0952 102.461 90.096 102.216 90.096L102.215 90.096C99.6751 90.0914 97.0406 90.1582 94.3029 90.3009C94.2784 90.4534 94.2479 90.6494 94.2131 90.8866C94.1194 91.525 93.9945 92.4609 93.8707 93.6463C93.6232 96.0174 93.3804 99.3845 93.4 103.363L93.4 103.37L93.4 103.37C93.3706 106.368 93.5225 109.747 93.9974 113.356L93.9988 113.366L93.9987 113.366C94.0518 113.849 94.1196 114.334 94.2021 114.834L94.2042 114.846L94.2041 114.846C95.6361 125.16 99.3356 136.747 107.882 145.753C116.416 154.745 129.838 161.222 150.842 161.222L150.998 161.222C152.867 161.222 162.909 161.224 167.494 161.006C167.519 160.854 167.549 160.659 167.584 160.423C167.678 159.786 167.802 158.852 167.926 157.669C168.174 155.302 168.417 151.938 168.397 147.96L168.397 147.952C168.426 144.954 168.274 141.561 167.8 137.967L167.798 137.956L167.798 137.956C167.745 137.473 167.677 136.989 167.595 136.489L167.593 136.476L167.593 136.476C165.274 119.788 157.034 99.7465 131.834 92.6963L131.958 92.2545L131.834 92.6963C126.747 91.273 120.968 90.3757 114.4 90.1451ZM114.4 90.1451C114.4 90.1451 114.4 90.1451 114.399 90.1451L114.417 89.6454L114.4 90.1451Z" stroke="black"/>
<path d="M186.572 204.583C188.905 221.37 197.22 241.649 222.692 248.776C227.821 250.211 233.64 251.113 240.243 251.345C242.323 251.415 248.449 251.402 251.254 251.396C251.788 251.395 252.202 251.394 252.444 251.394C255.117 251.399 257.894 251.325 260.784 251.167L260.756 250.668C260.623 250.675 260.49 250.683 260.357 250.69M186.572 204.583L260.357 250.69M186.572 204.583C186.488 204.075 186.419 203.582 186.365 203.089C185.887 199.469 185.734 196.051 185.763 193.033C185.724 185.034 186.74 179.505 186.74 179.505M186.572 204.583L186.74 179.505M260.357 250.69C260.382 250.537 260.412 250.341 260.447 250.104C260.541 249.465 260.666 248.529 260.789 247.344C261.037 244.973 261.28 241.606 261.26 237.628L261.26 237.62C261.29 234.622 261.138 231.243 260.663 227.635L260.661 227.624L260.662 227.624C260.608 227.141 260.541 226.657 260.458 226.157L260.456 226.144L260.456 226.144C259.024 215.83 255.325 204.243 246.778 195.238C238.245 186.246 224.822 179.769 203.818 179.769L203.663 179.769C201.793 179.768 191.751 179.767 187.166 179.984C187.141 180.136 187.111 180.331 187.076 180.567C186.983 181.204 186.858 182.138 186.734 183.322C186.487 185.689 186.244 189.052 186.263 193.031L186.263 193.038L186.263 193.038C186.234 196.036 186.386 199.43 186.861 203.023L186.862 203.034L186.862 203.034C186.915 203.517 186.983 204.001 187.065 204.502L187.067 204.514L187.067 204.514C189.386 221.203 197.626 241.244 222.826 248.294L222.692 248.775L222.826 248.294C227.913 249.717 233.692 250.615 240.261 250.845C242.33 250.915 248.436 250.902 251.245 250.896C251.783 250.895 252.2 250.894 252.444 250.894L252.445 250.894C254.985 250.899 257.62 250.832 260.357 250.69ZM186.74 179.505C191.127 179.266 201.736 179.268 203.661 179.269L203.818 179.269C246.048 179.269 258.071 205.333 260.951 226.075C261.035 226.583 261.104 227.076 261.159 227.569C261.637 231.204 261.79 234.607 261.76 237.625L186.74 179.505Z" stroke="black"/>
<path d="M9.31944 340.482L9.31851 340.482C6.77864 340.487 4.14415 340.42 1.40644 340.277C1.3819 340.125 1.35139 339.929 1.31657 339.692C1.22287 339.053 1.09801 338.117 0.974262 336.932C0.726741 334.561 0.483898 331.194 0.50352 327.215L0.503574 327.215L0.503502 327.208C0.474111 324.21 0.625986 320.831 1.10091 317.223L1.10103 317.223L1.10219 317.212C1.15535 316.729 1.2231 316.245 1.30564 315.744L1.30581 315.745L1.30757 315.732C2.73962 305.418 6.43914 293.831 14.9855 284.826C23.5191 275.834 36.9418 269.357 57.9456 269.357L58.101 269.357C59.9704 269.356 70.0122 269.355 74.5979 269.572C74.6224 269.724 74.6528 269.919 74.6874 270.155C74.7811 270.792 74.906 271.726 75.0297 272.909C75.2772 275.277 75.5201 278.64 75.5004 282.618L75.5005 282.626C75.5299 285.624 75.378 289.018 74.9031 292.611L74.903 292.611L74.9018 292.622C74.8486 293.105 74.7809 293.589 74.6983 294.089L74.6982 294.089L74.6964 294.102C72.3775 310.791 64.1378 330.832 38.9375 337.882L39.0722 338.364L38.9374 337.882C33.8509 339.305 28.0713 340.203 21.5031 340.433C19.4341 340.503 13.3281 340.49 10.5186 340.484C9.98109 340.483 9.56424 340.482 9.31944 340.482Z" stroke="black"/>
<path d="M21.5034 179.733C19.4348 179.663 13.3281 179.676 10.5185 179.682C9.98104 179.683 9.56423 179.684 9.31944 179.684L9.31852 179.684C6.77864 179.679 4.14415 179.746 1.40645 179.889C1.3819 180.041 1.35139 180.237 1.31657 180.475C1.22287 181.113 1.09801 182.049 0.974263 183.234C0.726742 185.605 0.483899 188.972 0.503521 192.951L0.503557 192.958L0.503503 192.958C0.474112 195.956 0.625986 199.335 1.10091 202.944L1.10231 202.954L1.10219 202.954C1.15535 203.437 1.2231 203.922 1.30564 204.422L1.30773 204.434L1.30757 204.434C2.73962 214.748 6.43914 226.335 14.9855 235.341C23.5191 244.332 36.9418 250.81 57.9456 250.81L58.1011 250.81C59.9705 250.81 70.0123 250.812 74.5979 250.594C74.6224 250.442 74.6528 250.247 74.6874 250.011C74.7811 249.374 74.906 248.44 75.0297 247.257C75.2772 244.889 75.5201 241.526 75.5005 237.548L75.5004 237.54C75.5299 234.542 75.378 231.148 74.9031 227.555L74.9017 227.544L74.9018 227.544C74.8486 227.061 74.7809 226.577 74.6983 226.077L74.6963 226.064L74.6964 226.064C72.3775 209.376 64.1378 189.334 38.9375 182.284L39.0611 181.842L38.9374 182.284C33.8509 180.861 28.0715 179.964 21.5034 179.733ZM21.5034 179.733C21.5032 179.733 21.503 179.733 21.5028 179.733L21.5204 179.233L21.5034 179.733Z" stroke="black"/>
<path d="M93.6751 294.171C96.0078 310.958 104.323 331.237 129.795 338.364C134.924 339.799 140.743 340.701 147.346 340.933C149.426 341.003 155.552 340.99 158.357 340.984C158.891 340.983 159.305 340.982 159.547 340.982C162.22 340.987 164.997 340.913 167.887 340.755L167.86 340.256C167.726 340.263 167.593 340.27 167.46 340.277M93.6751 294.171L167.46 340.277M93.6751 294.171C93.5913 293.663 93.5222 293.17 93.468 292.677C92.9896 289.057 92.8367 285.639 92.8663 282.621C92.8269 274.622 93.8428 269.093 93.8428 269.093M93.6751 294.171L93.8428 269.093M167.46 340.277C167.485 340.125 167.515 339.929 167.55 339.692C167.644 339.053 167.769 338.117 167.893 336.932C168.14 334.561 168.383 331.194 168.363 327.215L168.363 327.208C168.393 324.21 168.241 320.831 167.766 317.223L167.764 317.212L167.765 317.212C167.711 316.729 167.644 316.245 167.561 315.744L167.559 315.732L167.559 315.732C166.127 305.418 162.428 293.831 153.881 284.826C145.348 275.834 131.925 269.357 110.921 269.357L110.766 269.357C108.896 269.356 98.8545 269.355 94.2689 269.572C94.2444 269.724 94.214 269.919 94.1793 270.155C94.0856 270.792 93.9608 271.726 93.837 272.909C93.5895 275.277 93.3467 278.64 93.3663 282.618L93.3663 282.626L93.3663 282.626C93.3369 285.624 93.4888 289.018 93.9637 292.611L93.9651 292.622L93.965 292.622C94.0181 293.105 94.0859 293.589 94.1684 294.089L94.1705 294.102L94.1703 294.102C96.4893 310.791 104.729 330.832 129.929 337.882L129.795 338.363L129.929 337.882C135.016 339.305 140.795 340.203 147.364 340.433C149.433 340.503 155.539 340.49 158.348 340.484C158.886 340.483 159.303 340.482 159.547 340.482L159.548 340.482C162.088 340.487 164.723 340.42 167.46 340.277ZM93.8428 269.093C98.2304 268.854 108.839 268.856 110.764 268.857L110.921 268.857C153.151 268.857 165.174 294.92 168.054 315.663C168.138 316.171 168.207 316.664 168.262 317.157C168.74 320.792 168.893 324.195 168.863 327.213L93.8428 269.093Z" stroke="black"/>
<path d="M114.4 358.905C112.331 358.835 106.225 358.848 103.415 358.854C102.878 358.855 102.461 358.856 102.216 358.856L102.215 358.856C99.6751 358.851 97.0406 358.918 94.3029 359.061C94.2784 359.213 94.2479 359.409 94.2131 359.646C94.1194 360.285 93.9945 361.221 93.8707 362.406C93.6232 364.777 93.3804 368.144 93.4 372.123L93.4 372.13L93.4 372.13C93.3706 375.128 93.5225 378.507 93.9974 382.115L93.9988 382.126L93.9987 382.126C94.0518 382.609 94.1196 383.093 94.2021 383.594L94.2042 383.606L94.2041 383.606C95.6361 393.92 99.3356 405.507 107.882 414.512C116.416 423.504 129.838 429.981 150.842 429.981L150.998 429.981C152.867 429.982 162.909 429.983 167.494 429.766C167.519 429.614 167.549 429.419 167.584 429.183C167.678 428.546 167.802 427.612 167.926 426.429C168.174 424.061 168.417 420.698 168.397 416.72L168.397 416.712C168.426 413.714 168.274 410.32 167.8 406.727L167.798 406.716L167.798 406.716C167.745 406.233 167.677 405.749 167.595 405.249L167.593 405.236L167.593 405.236C165.274 388.547 157.034 368.506 131.834 361.456L131.958 361.014L131.834 361.456C126.747 360.033 120.968 359.135 114.4 358.905ZM114.4 358.905C114.4 358.905 114.4 358.905 114.399 358.905L114.417 358.405L114.4 358.905Z" stroke="black"/>
<path d="M389.561 358.905C387.492 358.835 381.386 358.848 378.576 358.854C378.039 358.855 377.622 358.856 377.377 358.856L377.376 358.856C374.836 358.851 372.202 358.918 369.464 359.061C369.44 359.213 369.409 359.409 369.374 359.646C369.28 360.285 369.156 361.221 369.032 362.406C368.784 364.777 368.542 368.144 368.561 372.123L368.561 372.13L368.561 372.13C368.532 375.128 368.684 378.507 369.159 382.115L369.16 382.126L369.16 382.126C369.213 382.609 369.281 383.093 369.363 383.594L369.365 383.606L369.365 383.606C370.797 393.92 374.497 405.507 383.043 414.512C391.577 423.504 404.999 429.981 426.003 429.981L426.159 429.981C428.028 429.982 438.07 429.983 442.655 429.766C442.68 429.614 442.71 429.419 442.745 429.183C442.839 428.546 442.964 427.612 443.087 426.429C443.335 424.061 443.578 420.698 443.558 416.72L443.558 416.712C443.587 413.714 443.436 410.32 442.961 406.727L442.959 406.716L442.959 406.716C442.906 406.233 442.839 405.749 442.756 405.249L442.754 405.236L442.754 405.236C440.435 388.547 432.195 368.506 406.995 361.456L407.119 361.014L406.995 361.456C401.909 360.033 396.129 359.135 389.561 358.905ZM389.561 358.905C389.561 358.905 389.561 358.905 389.56 358.905L389.578 358.405L389.561 358.905Z" stroke="black"/>
<path d="M946.944 358.905C944.875 358.835 938.768 358.848 935.959 358.854C935.421 358.855 935.005 358.856 934.76 358.856L934.759 358.856C932.219 358.851 929.585 358.918 926.847 359.061C926.822 359.213 926.792 359.409 926.757 359.646C926.663 360.285 926.538 361.221 926.415 362.406C926.167 364.777 925.924 368.144 925.944 372.123L925.944 372.13L925.944 372.13C925.915 375.128 926.066 378.507 926.541 382.115L926.543 382.126L926.543 382.126C926.596 382.609 926.664 383.093 926.746 383.594L926.748 383.606L926.748 383.606C928.18 393.92 931.88 405.507 940.426 414.512C948.96 423.504 962.382 429.981 983.386 429.981L983.541 429.981C985.411 429.982 995.453 429.983 1000.04 429.766C1000.06 429.614 1000.09 429.419 1000.13 429.183C1000.22 428.546 1000.35 427.612 1000.47 426.429C1000.72 424.061 1000.96 420.698 1000.94 416.72L1000.94 416.712C1000.97 413.714 1000.82 410.32 1000.34 406.727L1000.34 406.716L1000.34 406.716C1000.29 406.233 1000.22 405.749 1000.14 405.249L1000.14 405.236L1000.14 405.236C997.818 388.547 989.578 368.506 964.378 361.456L964.501 361.014L964.378 361.456C959.291 360.033 953.512 359.135 946.944 358.905ZM946.944 358.905C946.944 358.905 946.943 358.905 946.943 358.905L946.961 358.405L946.944 358.905Z" stroke="black"/>
<path d="M377.377 250.894L377.376 250.894C374.836 250.899 372.202 250.832 369.464 250.69C369.44 250.537 369.409 250.341 369.374 250.104C369.28 249.465 369.156 248.529 369.032 247.344C368.784 244.973 368.542 241.606 368.561 237.628L368.561 237.628L368.561 237.62C368.532 234.622 368.684 231.243 369.159 227.635L369.159 227.635L369.16 227.624C369.213 227.141 369.281 226.657 369.363 226.157L369.363 226.157L369.365 226.144C370.797 215.83 374.497 204.243 383.043 195.238C391.577 186.246 404.999 179.769 426.003 179.769L426.159 179.769C428.028 179.768 438.07 179.767 442.655 179.984C442.68 180.136 442.71 180.331 442.745 180.567C442.839 181.204 442.964 182.138 443.087 183.322C443.335 185.689 443.578 189.052 443.558 193.031L443.558 193.038C443.587 196.036 443.436 199.43 442.961 203.023L442.961 203.023L442.959 203.034C442.906 203.517 442.839 204.001 442.756 204.502L442.756 204.502L442.754 204.514C440.435 221.203 432.195 241.244 406.995 248.294L407.13 248.776L406.995 248.294C401.908 249.717 396.129 250.615 389.561 250.845C387.492 250.915 381.386 250.902 378.576 250.896C378.039 250.895 377.622 250.894 377.377 250.894Z" stroke="black"/>
<path d="M389.561 90.1451C387.492 90.075 381.386 90.088 378.576 90.094C378.039 90.0952 377.622 90.096 377.377 90.096L377.376 90.096C374.836 90.0914 372.202 90.1582 369.464 90.3009C369.44 90.4534 369.409 90.6494 369.374 90.8866C369.28 91.525 369.156 92.4609 369.032 93.6463C368.784 96.0174 368.542 99.3845 368.561 103.363L368.561 103.37L368.561 103.37C368.532 106.368 368.684 109.747 369.159 113.356L369.16 113.366L369.16 113.366C369.213 113.849 369.281 114.334 369.363 114.834L369.365 114.846L369.365 114.846C370.797 125.16 374.497 136.747 383.043 145.753C391.577 154.745 404.999 161.222 426.003 161.222L426.159 161.222C428.028 161.222 438.07 161.224 442.655 161.006C442.68 160.854 442.71 160.659 442.745 160.423C442.839 159.786 442.964 158.852 443.087 157.669C443.335 155.302 443.578 151.938 443.558 147.96L443.558 147.952C443.587 144.954 443.436 141.561 442.961 137.967L442.959 137.956L442.959 137.956C442.906 137.473 442.839 136.989 442.756 136.489L442.754 136.476L442.754 136.476C440.435 119.788 432.195 99.7465 406.995 92.6963L407.119 92.2545L406.995 92.6963C401.909 91.273 396.129 90.3757 389.561 90.1451ZM389.561 90.1451C389.561 90.1451 389.561 90.1451 389.56 90.1451L389.578 89.6454L389.561 90.1451Z" stroke="black"/>
<path d="M461.733 204.583C464.065 221.37 472.38 241.649 497.852 248.776C502.981 250.211 508.801 251.113 515.404 251.345C517.484 251.415 523.61 251.402 526.415 251.396C526.949 251.395 527.363 251.394 527.605 251.394C530.278 251.399 533.054 251.325 535.944 251.167L535.917 250.668C535.784 250.675 535.651 250.683 535.518 250.69M461.733 204.583L535.518 250.69M461.733 204.583C461.649 204.075 461.58 203.582 461.526 203.089C461.047 199.469 460.894 196.051 460.924 193.033C460.884 185.034 461.9 179.505 461.9 179.505M461.733 204.583L461.9 179.505M535.518 250.69C535.542 250.537 535.573 250.341 535.608 250.104C535.702 249.465 535.826 248.529 535.95 247.344C536.198 244.973 536.44 241.606 536.421 237.628L536.421 237.62C536.45 234.622 536.298 231.243 535.823 227.635L535.822 227.624L535.822 227.624C535.769 227.141 535.701 226.657 535.619 226.157L535.617 226.144L535.617 226.144C534.185 215.83 530.485 204.243 521.939 195.238C513.405 186.246 499.983 179.769 478.979 179.769L478.823 179.769C476.954 179.768 466.912 179.767 462.327 179.984C462.302 180.136 462.272 180.331 462.237 180.567C462.143 181.204 462.018 182.138 461.895 183.322C461.647 185.689 461.404 189.052 461.424 193.031L461.424 193.038L461.424 193.038C461.395 196.036 461.546 199.43 462.021 203.023L462.023 203.034L462.023 203.034C462.076 203.517 462.144 204.001 462.226 204.502L462.228 204.514L462.228 204.514C464.547 221.203 472.787 241.244 497.987 248.294L497.852 248.775L497.987 248.294C503.074 249.717 508.853 250.615 515.421 250.845C517.49 250.915 523.596 250.902 526.406 250.896C526.943 250.895 527.36 250.894 527.605 250.894L527.606 250.894C530.146 250.899 532.78 250.832 535.518 250.69ZM461.9 179.505C466.288 179.266 476.897 179.268 478.822 179.269L478.979 179.269C521.209 179.269 533.232 205.333 536.112 226.075C536.196 226.583 536.265 227.076 536.319 227.569C536.798 231.204 536.95 234.607 536.921 237.625L461.9 179.505Z" stroke="black"/>
<path d="M934.76 250.894L934.759 250.894C932.219 250.899 929.585 250.832 926.847 250.69C926.822 250.537 926.792 250.341 926.757 250.104C926.663 249.465 926.538 248.529 926.415 247.344C926.167 244.973 925.924 241.606 925.944 237.628L925.944 237.628L925.944 237.62C925.915 234.622 926.066 231.243 926.541 227.635L926.541 227.635L926.543 227.624C926.596 227.141 926.664 226.657 926.746 226.157L926.746 226.157L926.748 226.144C928.18 215.83 931.88 204.243 940.426 195.238C948.96 186.246 962.382 179.769 983.386 179.769L983.541 179.769C985.411 179.768 995.453 179.767 1000.04 179.984C1000.06 180.136 1000.09 180.331 1000.13 180.567C1000.22 181.204 1000.35 182.138 1000.47 183.322C1000.72 185.689 1000.96 189.052 1000.94 193.031L1000.94 193.038C1000.97 196.036 1000.82 199.43 1000.34 203.023L1000.34 203.023L1000.34 203.034C1000.29 203.517 1000.22 204.001 1000.14 204.502L1000.14 204.502L1000.14 204.514C997.818 221.203 989.578 241.244 964.378 248.294L964.513 248.776L964.378 248.294C959.291 249.717 953.512 250.615 946.944 250.845C944.875 250.915 938.768 250.902 935.959 250.896C935.422 250.895 935.005 250.894 934.76 250.894Z" stroke="black"/>
<path d="M946.944 90.1451C944.875 90.075 938.768 90.088 935.959 90.094C935.421 90.0952 935.005 90.096 934.76 90.096L934.759 90.096C932.219 90.0914 929.585 90.1582 926.847 90.3009C926.822 90.4534 926.792 90.6494 926.757 90.8866C926.663 91.525 926.538 92.4609 926.415 93.6463C926.167 96.0174 925.924 99.3845 925.944 103.363L925.944 103.37L925.944 103.37C925.915 106.368 926.066 109.747 926.541 113.356L926.543 113.366L926.543 113.366C926.596 113.849 926.664 114.334 926.746 114.834L926.748 114.846L926.748 114.846C928.18 125.16 931.88 136.747 940.426 145.753C948.96 154.745 962.382 161.222 983.386 161.222L983.541 161.222C985.411 161.222 995.453 161.224 1000.04 161.006C1000.06 160.854 1000.09 160.659 1000.13 160.423C1000.22 159.786 1000.35 158.852 1000.47 157.669C1000.72 155.302 1000.96 151.938 1000.94 147.96L1000.94 147.952C1000.97 144.954 1000.82 141.561 1000.34 137.967L1000.34 137.956L1000.34 137.956C1000.29 137.473 1000.22 136.989 1000.14 136.489L1000.14 136.476L1000.14 136.476C997.818 119.788 989.578 99.7465 964.378 92.6963L964.501 92.2545L964.378 92.6963C959.291 91.273 953.512 90.3757 946.944 90.1451ZM946.944 90.1451C946.944 90.1451 946.943 90.1451 946.943 90.1451L946.961 89.6454L946.944 90.1451Z" stroke="black"/>
<path d="M1019.12 204.583C1021.45 221.37 1029.76 241.649 1055.24 248.776C1060.36 250.211 1066.18 251.113 1072.79 251.345C1074.87 251.415 1080.99 251.402 1083.8 251.396C1084.33 251.395 1084.75 251.394 1084.99 251.394C1087.66 251.399 1090.44 251.325 1093.33 251.167L1093.3 250.668C1093.17 250.675 1093.03 250.683 1092.9 250.69M1019.12 204.583L1092.9 250.69M1019.12 204.583C1019.03 204.075 1018.96 203.582 1018.91 203.089C1018.43 199.469 1018.28 196.051 1018.31 193.033C1018.27 185.034 1019.28 179.505 1019.28 179.505M1019.12 204.583L1019.28 179.505M1092.9 250.69C1092.93 250.537 1092.96 250.341 1092.99 250.104C1093.08 249.465 1093.21 248.529 1093.33 247.344C1093.58 244.973 1093.82 241.606 1093.8 237.628L1093.8 237.62C1093.83 234.622 1093.68 231.243 1093.21 227.635L1093.21 227.624L1093.21 227.624C1093.15 227.141 1093.08 226.657 1093 226.157L1093 226.144L1093 226.144C1091.57 215.83 1087.87 204.243 1079.32 195.238C1070.79 186.246 1057.37 179.769 1036.36 179.769L1036.21 179.769C1034.34 179.768 1024.3 179.767 1019.71 179.984C1019.69 180.136 1019.65 180.331 1019.62 180.567C1019.53 181.204 1019.4 182.138 1019.28 183.322C1019.03 185.689 1018.79 189.052 1018.81 193.031L1018.81 193.038L1018.81 193.038C1018.78 196.036 1018.93 199.43 1019.4 203.023L1019.41 203.034L1019.41 203.034C1019.46 203.517 1019.53 204.001 1019.61 204.502L1019.61 204.514L1019.61 204.514C1021.93 221.203 1030.17 241.244 1055.37 248.294L1055.24 248.775L1055.37 248.294C1060.46 249.717 1066.24 250.615 1072.8 250.845C1074.87 250.915 1080.98 250.902 1083.79 250.896C1084.33 250.895 1084.74 250.894 1084.99 250.894L1084.99 250.894C1087.53 250.899 1090.16 250.832 1092.9 250.69ZM1019.28 179.505C1023.67 179.266 1034.28 179.268 1036.21 179.269L1036.36 179.269C1078.59 179.269 1090.62 205.333 1093.5 226.075C1093.58 226.583 1093.65 227.076 1093.7 227.569C1094.18 231.204 1094.33 234.607 1094.3 237.625L1019.28 179.505Z" stroke="black"/>
<path d="M470.275 161.305L470.274 161.305C467.734 161.31 465.1 161.243 462.362 161.101C462.337 160.948 462.307 160.752 462.272 160.515C462.178 159.877 462.054 158.941 461.93 157.755C461.682 155.384 461.439 152.017 461.459 148.039L461.459 148.039L461.459 148.031C461.43 145.034 461.582 141.654 462.056 138.046L462.057 138.046L462.058 138.035C462.111 137.552 462.179 137.068 462.261 136.568L462.261 136.568L462.263 136.555C463.695 126.241 467.395 114.654 475.941 105.649C484.475 96.657 497.897 90.1799 518.901 90.1799L519.057 90.1799C520.926 90.1795 530.968 90.1778 535.553 90.3956C535.578 90.5475 535.608 90.7425 535.643 90.9782C535.737 91.6151 535.862 92.5492 535.985 93.7327C536.233 96.1 536.476 99.4634 536.456 103.442L536.456 103.449C536.485 106.447 536.334 109.841 535.859 113.434L535.859 113.434L535.857 113.445C535.804 113.928 535.736 114.413 535.654 114.913L535.654 114.913L535.652 114.925C533.333 131.614 525.093 151.655 499.893 158.705L500.028 159.187L499.893 158.705C494.806 160.129 489.027 161.026 482.459 161.256C480.39 161.326 474.284 161.313 471.474 161.307C470.937 161.306 470.52 161.305 470.275 161.305Z" stroke="black"/>
<path d="M482.459 0.556214C480.39 0.486161 474.284 0.499161 471.474 0.50515C470.937 0.506294 470.52 0.507179 470.275 0.507179L470.274 0.507179C467.734 0.502495 465.1 0.569305 462.362 0.71199C462.337 0.864494 462.307 1.06058 462.272 1.29776C462.178 1.93612 462.054 2.87207 461.93 4.05744C461.682 6.4285 461.439 9.79566 461.459 13.7739L461.459 13.7813L461.459 13.7813C461.43 16.7791 461.582 20.1583 462.056 23.7668L462.058 23.7774L462.058 23.7774C462.111 24.2606 462.179 24.7448 462.261 25.2449L462.263 25.2576L462.263 25.2576C463.695 35.5713 467.395 47.1585 475.941 56.1638C484.475 65.1557 497.897 71.6328 518.901 71.6328L519.057 71.6328C520.926 71.6331 530.968 71.6348 535.553 71.4171C535.578 71.2652 535.608 71.0702 535.643 70.8345C535.737 70.1975 535.862 69.2635 535.985 68.08C536.233 65.7126 536.476 62.3492 536.456 58.3709L536.456 58.3636C536.485 55.3656 536.334 51.9717 535.859 48.3783L535.857 48.3675L535.857 48.3675C535.804 47.8842 535.736 47.4001 535.654 46.9L535.652 46.8874L535.652 46.8874C533.333 30.1988 525.093 10.1577 499.893 3.10741L500.017 2.66563L499.893 3.1074C494.807 1.68416 489.027 0.786805 482.459 0.556214ZM482.459 0.556214C482.459 0.556214 482.459 0.556191 482.458 0.556191L482.476 0.0565036L482.459 0.556214Z" stroke="black"/>
<path d="M554.631 114.994C556.964 131.781 565.279 152.06 590.751 159.187C595.88 160.622 601.699 161.524 608.302 161.756C610.382 161.827 616.508 161.813 619.313 161.807C619.847 161.806 620.261 161.805 620.503 161.805C623.176 161.81 625.953 161.736 628.843 161.579L628.816 161.079C628.682 161.087 628.549 161.094 628.416 161.101M554.631 114.994L628.416 161.101M554.631 114.994C554.547 114.486 554.478 113.993 554.424 113.5C553.946 109.88 553.793 106.462 553.822 103.444C553.783 95.445 554.799 89.9166 554.799 89.9166M554.631 114.994L554.799 89.9166M628.416 161.101C628.441 160.948 628.471 160.752 628.506 160.515C628.6 159.877 628.725 158.941 628.849 157.755C629.096 155.384 629.339 152.017 629.319 148.039L629.319 148.031C629.349 145.034 629.197 141.654 628.722 138.046L628.721 138.035L628.721 138.035C628.667 137.552 628.6 137.068 628.517 136.568L628.515 136.555L628.515 136.555C627.083 126.241 623.384 114.654 614.837 105.649C606.304 96.657 592.881 90.1799 571.877 90.1799L571.722 90.1799C569.852 90.1795 559.811 90.1778 555.225 90.3956C555.2 90.5475 555.17 90.7425 555.135 90.9782C555.042 91.6151 554.917 92.5492 554.793 93.7327C554.546 96.1 554.303 99.4634 554.322 103.442L554.322 103.449L554.322 103.449C554.293 106.447 554.445 109.841 554.92 113.434L554.921 113.445L554.921 113.445C554.974 113.928 555.042 114.413 555.124 114.913L555.127 114.925L555.126 114.925C557.445 131.614 565.685 151.655 590.885 158.705L590.751 159.186L590.885 158.705C595.972 160.129 601.752 161.026 608.32 161.256C610.389 161.326 616.495 161.313 619.304 161.307C619.842 161.306 620.259 161.305 620.503 161.305L620.504 161.305C623.044 161.31 625.679 161.243 628.416 161.101ZM554.799 89.9166C559.187 89.6776 569.795 89.6795 571.72 89.6799L571.877 89.6799C614.107 89.6799 626.13 115.744 629.011 136.486C629.094 136.994 629.163 137.487 629.218 137.981C629.696 141.615 629.849 145.018 629.819 148.036L554.799 89.9166Z" stroke="black"/>
<path d="M1027.66 161.305L1027.66 161.305C1025.12 161.31 1022.48 161.243 1019.74 161.101C1019.72 160.948 1019.69 160.752 1019.65 160.515C1019.56 159.877 1019.44 158.941 1019.31 157.755C1019.07 155.384 1018.82 152.017 1018.84 148.039L1018.84 148.039L1018.84 148.031C1018.81 145.034 1018.96 141.654 1019.44 138.046L1019.44 138.046L1019.44 138.035C1019.49 137.552 1019.56 137.068 1019.64 136.568L1019.64 136.568L1019.65 136.555C1021.08 126.241 1024.78 114.654 1033.32 105.649C1041.86 96.657 1055.28 90.1799 1076.28 90.1799L1076.44 90.1799C1078.31 90.1795 1088.35 90.1778 1092.94 90.3956C1092.96 90.5475 1092.99 90.7425 1093.03 90.9782C1093.12 91.6151 1093.24 92.5492 1093.37 93.7327C1093.62 96.1 1093.86 99.4634 1093.84 103.442L1093.84 103.449C1093.87 106.447 1093.72 109.841 1093.24 113.434L1093.24 113.434L1093.24 113.445C1093.19 113.928 1093.12 114.413 1093.04 114.913L1093.04 114.913L1093.03 114.925C1090.72 131.614 1082.48 151.655 1057.28 158.705L1057.41 159.187L1057.28 158.705C1052.19 160.129 1046.41 161.026 1039.84 161.256C1037.77 161.326 1031.67 161.313 1028.86 161.307C1028.32 161.306 1027.9 161.305 1027.66 161.305Z" stroke="black"/>
<path d="M1039.84 0.556214C1037.77 0.486161 1031.67 0.499161 1028.86 0.50515C1028.32 0.506294 1027.9 0.507179 1027.66 0.507179L1027.66 0.507179C1025.12 0.502495 1022.48 0.569305 1019.74 0.71199C1019.72 0.864494 1019.69 1.06058 1019.65 1.29776C1019.56 1.93612 1019.44 2.87207 1019.31 4.05744C1019.07 6.4285 1018.82 9.79566 1018.84 13.7739L1018.84 13.7813L1018.84 13.7813C1018.81 16.7791 1018.96 20.1583 1019.44 23.7668L1019.44 23.7774L1019.44 23.7774C1019.49 24.2606 1019.56 24.7448 1019.64 25.2449L1019.65 25.2576L1019.65 25.2576C1021.08 35.5713 1024.78 47.1585 1033.32 56.1638C1041.86 65.1557 1055.28 71.6328 1076.28 71.6328L1076.44 71.6328C1078.31 71.6331 1088.35 71.6348 1092.94 71.4171C1092.96 71.2652 1092.99 71.0702 1093.03 70.8345C1093.12 70.1975 1093.24 69.2635 1093.37 68.08C1093.62 65.7126 1093.86 62.3492 1093.84 58.3709L1093.84 58.3636C1093.87 55.3656 1093.72 51.9717 1093.24 48.3783L1093.24 48.3675L1093.24 48.3675C1093.19 47.8842 1093.12 47.4001 1093.04 46.9L1093.03 46.8874L1093.03 46.8874C1090.72 30.1988 1082.48 10.1577 1057.28 3.10741L1057.4 2.66563L1057.28 3.1074C1052.19 1.68416 1046.41 0.786805 1039.84 0.556214ZM1039.84 0.556214C1039.84 0.556214 1039.84 0.556191 1039.84 0.556191L1039.86 0.0565036L1039.84 0.556214Z" stroke="black"/>
<path d="M1112.01 114.994C1114.35 131.781 1122.66 152.06 1148.13 159.187C1153.26 160.622 1159.08 161.524 1165.68 161.756C1167.76 161.827 1173.89 161.813 1176.7 161.807C1177.23 161.806 1177.64 161.805 1177.89 161.805C1180.56 161.81 1183.34 161.736 1186.23 161.579L1186.2 161.079C1186.06 161.087 1185.93 161.094 1185.8 161.101M1112.01 114.994L1185.8 161.101M1112.01 114.994C1111.93 114.486 1111.86 113.993 1111.81 113.5C1111.33 109.88 1111.18 106.462 1111.2 103.444C1111.17 95.445 1112.18 89.9166 1112.18 89.9166M1112.01 114.994L1112.18 89.9166M1185.8 161.101C1185.82 160.948 1185.85 160.752 1185.89 160.515C1185.98 159.877 1186.11 158.941 1186.23 157.755C1186.48 155.384 1186.72 152.017 1186.7 148.039L1186.7 148.031C1186.73 145.034 1186.58 141.654 1186.1 138.046L1186.1 138.035L1186.1 138.035C1186.05 137.552 1185.98 137.068 1185.9 136.568L1185.9 136.555L1185.9 136.555C1184.47 126.241 1180.77 114.654 1172.22 105.649C1163.69 96.657 1150.26 90.1799 1129.26 90.1799L1129.1 90.1799C1127.23 90.1795 1117.19 90.1778 1112.61 90.3956C1112.58 90.5475 1112.55 90.7425 1112.52 90.9782C1112.42 91.6151 1112.3 92.5492 1112.18 93.7327C1111.93 96.1 1111.69 99.4634 1111.7 103.442L1111.7 103.449L1111.7 103.449C1111.68 106.447 1111.83 109.841 1112.3 113.434L1112.3 113.445L1112.3 113.445C1112.36 113.928 1112.42 114.413 1112.51 114.913L1112.51 114.925L1112.51 114.925C1114.83 131.614 1123.07 151.655 1148.27 158.705L1148.13 159.186L1148.27 158.705C1153.35 160.129 1159.13 161.026 1165.7 161.256C1167.77 161.326 1173.88 161.313 1176.69 161.307C1177.22 161.306 1177.64 161.305 1177.89 161.305L1177.89 161.305C1180.43 161.31 1183.06 161.243 1185.8 161.101ZM1112.18 89.9166C1116.57 89.6776 1127.18 89.6795 1129.1 89.6799L1129.26 89.6799C1171.49 89.6799 1183.51 115.744 1186.39 136.486C1186.48 136.994 1186.55 137.487 1186.6 137.981C1187.08 141.615 1187.23 145.018 1187.2 148.036L1112.18 89.9166Z" stroke="black"/>
<path d="M470.275 430.068L470.274 430.068C467.734 430.073 465.1 430.006 462.362 429.863C462.337 429.711 462.307 429.515 462.272 429.278C462.178 428.639 462.054 427.703 461.93 426.518C461.682 424.147 461.439 420.78 461.459 416.801L461.459 416.801L461.459 416.794C461.43 413.796 461.582 410.417 462.056 406.809L462.057 406.809L462.058 406.798C462.111 406.315 462.179 405.831 462.261 405.33L462.261 405.33L462.263 405.318C463.695 395.004 467.395 383.417 475.941 374.412C484.475 365.42 497.897 358.943 518.901 358.943L519.057 358.943C520.926 358.942 530.968 358.94 535.553 359.158C535.578 359.31 535.608 359.505 535.643 359.741C535.737 360.378 535.862 361.312 535.985 362.495C536.233 364.863 536.476 368.226 536.456 372.204L536.456 372.212C536.485 375.21 536.334 378.604 535.859 382.197L535.859 382.197L535.857 382.208C535.804 382.691 535.736 383.175 535.654 383.675L535.654 383.675L535.652 383.688C533.333 400.377 525.093 420.418 499.893 427.468L500.028 427.949L499.893 427.468C494.806 428.891 489.027 429.789 482.459 430.019C480.39 430.089 474.284 430.076 471.474 430.07C470.937 430.069 470.52 430.068 470.275 430.068Z" stroke="black"/>
<path d="M482.459 269.319C480.39 269.249 474.284 269.262 471.474 269.268C470.937 269.269 470.52 269.27 470.275 269.27L470.274 269.27C467.734 269.265 465.1 269.332 462.362 269.475C462.337 269.627 462.307 269.823 462.272 270.06C462.178 270.699 462.054 271.635 461.93 272.82C461.682 275.191 461.439 278.558 461.459 282.537L461.459 282.544L461.459 282.544C461.43 285.542 461.582 288.921 462.056 292.529L462.058 292.54L462.058 292.54C462.111 293.023 462.179 293.508 462.261 294.008L462.263 294.02L462.263 294.02C463.695 304.334 467.395 315.921 475.941 324.927C484.475 333.918 497.897 340.395 518.901 340.395L519.057 340.395C520.926 340.396 530.968 340.398 535.553 340.18C535.578 340.028 535.608 339.833 535.643 339.597C535.737 338.96 535.862 338.026 535.985 336.843C536.233 334.475 536.476 331.112 536.456 327.134L536.456 327.126C536.485 324.128 536.334 320.734 535.859 317.141L535.857 317.13L535.857 317.13C535.804 316.647 535.736 316.163 535.654 315.663L535.652 315.65L535.652 315.65C533.333 298.962 525.093 278.92 499.893 271.87L500.017 271.428L499.893 271.87C494.807 270.447 489.027 269.549 482.459 269.319ZM482.459 269.319C482.459 269.319 482.459 269.319 482.458 269.319L482.476 268.819L482.459 269.319Z" stroke="black"/>
<path d="M554.631 383.757C556.964 400.544 565.279 420.823 590.751 427.949C595.88 429.385 601.699 430.287 608.302 430.519C610.382 430.589 616.508 430.576 619.313 430.57C619.847 430.569 620.261 430.568 620.503 430.568C623.176 430.573 625.953 430.499 628.843 430.341L628.816 429.842C628.682 429.849 628.549 429.856 628.416 429.863M554.631 383.757L628.416 429.863M554.631 383.757C554.547 383.249 554.478 382.756 554.424 382.263C553.946 378.643 553.793 375.225 553.822 372.207C553.783 364.208 554.799 358.679 554.799 358.679M554.631 383.757L554.799 358.679M628.416 429.863C628.441 429.711 628.471 429.515 628.506 429.278C628.6 428.639 628.725 427.703 628.849 426.518C629.096 424.147 629.339 420.78 629.319 416.801L629.319 416.794C629.349 413.796 629.197 410.417 628.722 406.809L628.721 406.798L628.721 406.798C628.667 406.315 628.6 405.831 628.517 405.33L628.515 405.318L628.515 405.318C627.083 395.004 623.384 383.417 614.837 374.412C606.304 365.42 592.881 358.943 571.877 358.943L571.722 358.943C569.852 358.942 559.811 358.94 555.225 359.158C555.2 359.31 555.17 359.505 555.135 359.741C555.042 360.378 554.917 361.312 554.793 362.495C554.546 364.863 554.303 368.226 554.322 372.204L554.322 372.212L554.322 372.212C554.293 375.21 554.445 378.604 554.92 382.197L554.921 382.208L554.921 382.208C554.974 382.691 555.042 383.175 555.124 383.675L555.127 383.688L555.126 383.688C557.445 400.377 565.685 420.418 590.885 427.468L590.751 427.949L590.885 427.468C595.972 428.891 601.752 429.789 608.32 430.019C610.389 430.089 616.495 430.076 619.304 430.07C619.842 430.069 620.259 430.068 620.503 430.068L620.504 430.068C623.044 430.073 625.679 430.006 628.416 429.863ZM554.799 358.679C559.187 358.44 569.795 358.442 571.72 358.443L571.877 358.443C614.107 358.443 626.13 384.506 629.011 405.249C629.094 405.757 629.163 406.25 629.218 406.743C629.696 410.378 629.849 413.781 629.819 416.799L554.799 358.679Z" stroke="black"/>
<path d="M1027.66 430.068L1027.66 430.068C1025.12 430.073 1022.48 430.006 1019.74 429.863C1019.72 429.711 1019.69 429.515 1019.65 429.278C1019.56 428.639 1019.44 427.703 1019.31 426.518C1019.07 424.147 1018.82 420.78 1018.84 416.801L1018.84 416.801L1018.84 416.794C1018.81 413.796 1018.96 410.417 1019.44 406.809L1019.44 406.809L1019.44 406.798C1019.49 406.315 1019.56 405.831 1019.64 405.33L1019.64 405.33L1019.65 405.318C1021.08 395.004 1024.78 383.417 1033.32 374.412C1041.86 365.42 1055.28 358.943 1076.28 358.943L1076.44 358.943C1078.31 358.942 1088.35 358.94 1092.94 359.158C1092.96 359.31 1092.99 359.505 1093.03 359.741C1093.12 360.378 1093.24 361.312 1093.37 362.495C1093.62 364.863 1093.86 368.226 1093.84 372.204L1093.84 372.212C1093.87 375.21 1093.72 378.604 1093.24 382.197L1093.24 382.197L1093.24 382.208C1093.19 382.691 1093.12 383.175 1093.04 383.675L1093.04 383.675L1093.03 383.688C1090.72 400.377 1082.48 420.418 1057.28 427.468L1057.41 427.949L1057.28 427.468C1052.19 428.891 1046.41 429.789 1039.84 430.019C1037.77 430.089 1031.67 430.076 1028.86 430.07C1028.32 430.069 1027.9 430.068 1027.66 430.068Z" stroke="black"/>
<path d="M1039.84 269.319C1037.77 269.249 1031.67 269.262 1028.86 269.268C1028.32 269.269 1027.9 269.27 1027.66 269.27L1027.66 269.27C1025.12 269.265 1022.48 269.332 1019.74 269.475C1019.72 269.627 1019.69 269.823 1019.65 270.06C1019.56 270.699 1019.44 271.635 1019.31 272.82C1019.07 275.191 1018.82 278.558 1018.84 282.537L1018.84 282.544L1018.84 282.544C1018.81 285.542 1018.96 288.921 1019.44 292.529L1019.44 292.54L1019.44 292.54C1019.49 293.023 1019.56 293.508 1019.64 294.008L1019.65 294.02L1019.65 294.02C1021.08 304.334 1024.78 315.921 1033.32 324.927C1041.86 333.918 1055.28 340.395 1076.28 340.395L1076.44 340.395C1078.31 340.396 1088.35 340.398 1092.94 340.18C1092.96 340.028 1092.99 339.833 1093.03 339.597C1093.12 338.96 1093.24 338.026 1093.37 336.843C1093.62 334.475 1093.86 331.112 1093.84 327.134L1093.84 327.126C1093.87 324.128 1093.72 320.734 1093.24 317.141L1093.24 317.13L1093.24 317.13C1093.19 316.647 1093.12 316.163 1093.04 315.663L1093.03 315.65L1093.03 315.65C1090.72 298.962 1082.48 278.92 1057.28 271.87L1057.4 271.428L1057.28 271.87C1052.19 270.447 1046.41 269.549 1039.84 269.319ZM1039.84 269.319C1039.84 269.319 1039.84 269.319 1039.84 269.319L1039.86 268.819L1039.84 269.319Z" stroke="black"/>
<path d="M1112.01 383.757C1114.35 400.544 1122.66 420.823 1148.13 427.949C1153.26 429.385 1159.08 430.287 1165.69 430.519C1167.76 430.589 1173.89 430.576 1176.7 430.57C1177.23 430.569 1177.64 430.568 1177.89 430.568C1180.56 430.573 1183.34 430.499 1186.23 430.341L1186.2 429.842C1186.07 429.849 1185.93 429.856 1185.8 429.863M1112.01 383.757L1185.8 429.863M1112.01 383.757C1111.93 383.249 1111.86 382.756 1111.81 382.263C1111.33 378.643 1111.18 375.225 1111.21 372.207C1111.17 364.208 1112.18 358.679 1112.18 358.679M1112.01 383.757L1112.18 358.679M1185.8 429.863C1185.82 429.711 1185.85 429.515 1185.89 429.278C1185.98 428.639 1186.11 427.703 1186.23 426.518C1186.48 424.147 1186.72 420.78 1186.7 416.801L1186.7 416.794C1186.73 413.796 1186.58 410.417 1186.1 406.809L1186.1 406.798L1186.1 406.798C1186.05 406.315 1185.98 405.831 1185.9 405.33L1185.9 405.318L1185.9 405.318C1184.47 395.004 1180.77 383.417 1172.22 374.412C1163.69 365.42 1150.26 358.943 1129.26 358.943L1129.1 358.943C1127.24 358.942 1117.19 358.94 1112.61 359.158C1112.58 359.31 1112.55 359.505 1112.52 359.741C1112.42 360.378 1112.3 361.312 1112.18 362.495C1111.93 364.863 1111.69 368.226 1111.71 372.204L1111.71 372.212L1111.71 372.212C1111.68 375.21 1111.83 378.604 1112.3 382.197L1112.3 382.208L1112.3 382.208C1112.36 382.691 1112.42 383.175 1112.51 383.675L1112.51 383.688L1112.51 383.688C1114.83 400.377 1123.07 420.418 1148.27 427.468L1148.13 427.949L1148.27 427.468C1153.35 428.891 1159.13 429.789 1165.7 430.019C1167.77 430.089 1173.88 430.076 1176.69 430.07C1177.22 430.069 1177.64 430.068 1177.89 430.068L1177.89 430.068C1180.43 430.073 1183.06 430.006 1185.8 429.863ZM1112.18 358.679C1116.57 358.44 1127.18 358.442 1129.1 358.443L1129.26 358.443C1171.49 358.443 1183.51 384.506 1186.39 405.249C1186.48 405.757 1186.55 406.25 1186.6 406.743C1187.08 410.378 1187.23 413.781 1187.2 416.799L1112.18 358.679Z" stroke="black"/>
<path d="M668.251 358.905C666.183 358.835 660.076 358.848 657.267 358.854C656.729 358.855 656.312 358.856 656.067 358.856L656.067 358.856C653.527 358.851 650.892 358.918 648.154 359.061C648.13 359.213 648.099 359.409 648.065 359.646C647.971 360.285 647.846 361.221 647.722 362.406C647.475 364.777 647.232 368.144 647.252 372.123L647.252 372.13L647.252 372.13C647.222 375.128 647.374 378.507 647.849 382.115L647.85 382.126L647.85 382.126C647.903 382.609 647.971 383.093 648.054 383.594L648.056 383.606L648.056 383.606C649.488 393.92 653.187 405.507 661.734 414.512C670.267 423.504 683.69 429.981 704.694 429.981L704.849 429.981C706.719 429.982 716.76 429.983 721.346 429.766C721.37 429.614 721.401 429.419 721.435 429.183C721.529 428.546 721.654 427.612 721.778 426.429C722.025 424.061 722.268 420.698 722.249 416.72L722.248 416.712C722.278 413.714 722.126 410.32 721.651 406.727L721.65 406.716L721.65 406.716C721.597 406.233 721.529 405.749 721.446 405.249L721.444 405.236L721.444 405.236C719.126 388.547 710.886 368.506 685.686 361.456L685.809 361.014L685.685 361.456C680.599 360.033 674.82 359.135 668.251 358.905ZM668.251 358.905C668.251 358.905 668.251 358.905 668.251 358.905L668.268 358.405L668.251 358.905Z" stroke="black"/>
<path d="M1225.64 358.905C1223.57 358.835 1217.46 358.848 1214.65 358.854C1214.11 358.855 1213.7 358.856 1213.45 358.856L1213.45 358.856C1210.91 358.851 1208.28 358.918 1205.54 359.061C1205.51 359.213 1205.48 359.409 1205.45 359.646C1205.36 360.285 1205.23 361.221 1205.11 362.406C1204.86 364.777 1204.62 368.144 1204.64 372.123L1204.64 372.13L1204.64 372.13C1204.61 375.128 1204.76 378.507 1205.23 382.115L1205.24 382.126L1205.24 382.126C1205.29 382.609 1205.36 383.093 1205.44 383.594L1205.44 383.606L1205.44 383.606C1206.87 393.92 1210.57 405.507 1219.12 414.512C1227.65 423.504 1241.07 429.981 1262.08 429.981L1262.23 429.981C1264.1 429.982 1274.15 429.983 1278.73 429.766C1278.76 429.614 1278.79 429.419 1278.82 429.183C1278.91 428.546 1279.04 427.612 1279.16 426.429C1279.41 424.061 1279.65 420.698 1279.63 416.72L1279.63 416.712C1279.66 413.714 1279.51 410.32 1279.04 406.727L1279.03 406.716L1279.03 406.716C1278.98 406.233 1278.91 405.749 1278.83 405.249L1278.83 405.236L1278.83 405.236C1276.51 388.547 1268.27 368.506 1243.07 361.456L1243.19 361.014L1243.07 361.456C1237.98 360.033 1232.2 359.135 1225.64 358.905ZM1225.64 358.905C1225.64 358.905 1225.64 358.905 1225.64 358.905L1225.65 358.405L1225.64 358.905Z" stroke="black"/>
<path d="M656.067 250.894L656.067 250.894C653.527 250.899 650.892 250.832 648.154 250.69C648.13 250.537 648.099 250.341 648.065 250.104C647.971 249.465 647.846 248.529 647.722 247.344C647.475 244.973 647.232 241.606 647.252 237.628L647.252 237.628L647.252 237.62C647.222 234.622 647.374 231.243 647.849 227.635L647.849 227.635L647.85 227.624C647.903 227.141 647.971 226.657 648.054 226.157L648.054 226.157L648.056 226.144C649.488 215.83 653.187 204.243 661.734 195.238C670.267 186.246 683.69 179.769 704.694 179.769L704.849 179.769C706.718 179.768 716.76 179.767 721.346 179.984C721.37 180.136 721.401 180.331 721.435 180.567C721.529 181.204 721.654 182.138 721.778 183.322C722.025 185.689 722.268 189.052 722.248 193.031L722.249 193.038C722.278 196.036 722.126 199.43 721.651 203.023L721.651 203.023L721.65 203.034C721.597 203.517 721.529 204.001 721.446 204.502L721.446 204.502L721.444 204.514C719.126 221.203 710.886 241.244 685.686 248.294L685.82 248.776L685.685 248.294C680.599 249.717 674.819 250.615 668.251 250.845C666.182 250.915 660.076 250.902 657.267 250.896C656.729 250.895 656.312 250.894 656.067 250.894Z" stroke="black"/>
<path d="M668.251 90.1451C666.183 90.075 660.076 90.088 657.267 90.094C656.729 90.0952 656.312 90.096 656.067 90.096L656.067 90.096C653.527 90.0914 650.892 90.1582 648.154 90.3009C648.13 90.4534 648.099 90.6494 648.065 90.8866C647.971 91.525 647.846 92.4609 647.722 93.6463C647.475 96.0174 647.232 99.3845 647.252 103.363L647.252 103.37L647.252 103.37C647.222 106.368 647.374 109.747 647.849 113.356L647.85 113.366L647.85 113.366C647.903 113.849 647.971 114.334 648.054 114.834L648.056 114.846L648.056 114.846C649.488 125.16 653.187 136.747 661.734 145.753C670.267 154.745 683.69 161.222 704.694 161.222L704.849 161.222C706.719 161.222 716.76 161.224 721.346 161.006C721.37 160.854 721.401 160.659 721.435 160.423C721.529 159.786 721.654 158.852 721.778 157.669C722.025 155.302 722.268 151.938 722.249 147.96L722.248 147.952C722.278 144.954 722.126 141.561 721.651 137.967L721.65 137.956L721.65 137.956C721.597 137.473 721.529 136.989 721.446 136.489L721.444 136.476L721.444 136.476C719.126 119.788 710.886 99.7465 685.686 92.6963L685.809 92.2545L685.685 92.6963C680.599 91.273 674.82 90.3757 668.251 90.1451ZM668.251 90.1451C668.251 90.1451 668.251 90.1451 668.251 90.1451L668.268 89.6454L668.251 90.1451Z" stroke="black"/>
<path d="M740.424 204.583C742.756 221.37 751.071 241.649 776.543 248.776C781.672 250.211 787.491 251.113 794.095 251.345C796.174 251.415 802.301 251.402 805.106 251.396C805.64 251.395 806.054 251.394 806.296 251.394C808.969 251.399 811.745 251.325 814.635 251.167L814.608 250.668C814.475 250.675 814.342 250.683 814.209 250.69M740.424 204.583L814.209 250.69M740.424 204.583C740.34 204.075 740.271 203.582 740.217 203.089C739.738 199.469 739.585 196.051 739.615 193.033C739.575 185.034 740.591 179.505 740.591 179.505M740.424 204.583L740.591 179.505M814.209 250.69C814.233 250.537 814.264 250.341 814.299 250.104C814.392 249.465 814.517 248.529 814.641 247.344C814.889 244.973 815.131 241.606 815.112 237.628L815.112 237.62C815.141 234.622 814.989 231.243 814.514 227.635L814.513 227.624L814.513 227.624C814.46 227.141 814.392 226.657 814.31 226.157L814.308 226.144L814.308 226.144C812.876 215.83 809.176 204.243 800.63 195.238C792.096 186.246 778.674 179.769 757.67 179.769L757.514 179.769C755.645 179.768 745.603 179.767 741.017 179.984C740.993 180.136 740.963 180.331 740.928 180.567C740.834 181.204 740.709 182.138 740.586 183.322C740.338 185.689 740.095 189.052 740.115 193.031L740.115 193.038L740.115 193.038C740.085 196.036 740.237 199.43 740.712 203.023L740.714 203.034L740.714 203.034C740.767 203.517 740.834 204.001 740.917 204.502L740.919 204.514L740.919 204.514C743.238 221.203 751.477 241.244 776.678 248.294L776.543 248.775L776.678 248.294C781.764 249.717 787.544 250.615 794.112 250.845C796.181 250.915 802.287 250.902 805.097 250.896C805.634 250.895 806.051 250.894 806.296 250.894L806.297 250.894C808.837 250.899 811.471 250.832 814.209 250.69ZM740.591 179.505C744.979 179.266 755.588 179.268 757.513 179.269L757.67 179.269C799.899 179.269 811.923 205.333 814.803 226.075C814.887 226.583 814.956 227.076 815.01 227.569C815.488 231.204 815.641 234.607 815.612 237.625L740.591 179.505Z" stroke="black"/>
<path d="M1213.45 250.894L1213.45 250.894C1210.91 250.899 1208.28 250.832 1205.54 250.69C1205.51 250.537 1205.48 250.341 1205.45 250.104C1205.36 249.465 1205.23 248.529 1205.11 247.344C1204.86 244.973 1204.62 241.606 1204.64 237.628L1204.64 237.628L1204.64 237.62C1204.61 234.622 1204.76 231.243 1205.23 227.635L1205.23 227.635L1205.24 227.624C1205.29 227.141 1205.36 226.657 1205.44 226.157L1205.44 226.157L1205.44 226.144C1206.87 215.83 1210.57 204.243 1219.12 195.238C1227.65 186.246 1241.07 179.769 1262.08 179.769L1262.23 179.769C1264.1 179.768 1274.15 179.767 1278.73 179.984C1278.76 180.136 1278.79 180.331 1278.82 180.567C1278.91 181.204 1279.04 182.138 1279.16 183.322C1279.41 185.689 1279.65 189.052 1279.63 193.031L1279.63 193.038C1279.66 196.036 1279.51 199.43 1279.04 203.023L1279.04 203.023L1279.03 203.034C1278.98 203.517 1278.91 204.001 1278.83 204.502L1278.83 204.502L1278.83 204.514C1276.51 221.203 1268.27 241.244 1243.07 248.294L1243.2 248.776L1243.07 248.294C1237.98 249.717 1232.2 250.615 1225.64 250.845C1223.57 250.915 1217.46 250.902 1214.65 250.896C1214.11 250.895 1213.7 250.894 1213.45 250.894Z" stroke="black"/>
<path d="M1225.64 90.1451C1223.57 90.075 1217.46 90.088 1214.65 90.094C1214.11 90.0952 1213.7 90.096 1213.45 90.096L1213.45 90.096C1210.91 90.0914 1208.28 90.1582 1205.54 90.3009C1205.51 90.4534 1205.48 90.6494 1205.45 90.8866C1205.36 91.525 1205.23 92.4609 1205.11 93.6463C1204.86 96.0174 1204.62 99.3845 1204.64 103.363L1204.64 103.37L1204.64 103.37C1204.61 106.368 1204.76 109.747 1205.23 113.356L1205.24 113.366L1205.24 113.366C1205.29 113.849 1205.36 114.334 1205.44 114.834L1205.44 114.846L1205.44 114.846C1206.87 125.16 1210.57 136.747 1219.12 145.753C1227.65 154.745 1241.07 161.222 1262.08 161.222L1262.23 161.222C1264.1 161.222 1274.15 161.224 1278.73 161.006C1278.76 160.854 1278.79 160.659 1278.82 160.423C1278.91 159.786 1279.04 158.852 1279.16 157.669C1279.41 155.302 1279.65 151.938 1279.63 147.96L1279.63 147.952C1279.66 144.954 1279.51 141.561 1279.04 137.967L1279.03 137.956L1279.03 137.956C1278.98 137.473 1278.91 136.989 1278.83 136.489L1278.83 136.476L1278.83 136.476C1276.51 119.788 1268.27 99.7465 1243.07 92.6963L1243.19 92.2545L1243.07 92.6963C1237.98 91.273 1232.2 90.3757 1225.64 90.1451ZM1225.64 90.1451C1225.64 90.1451 1225.64 90.1451 1225.64 90.1451L1225.65 89.6454L1225.64 90.1451Z" stroke="black"/>
<path d="M1297.81 204.583C1300.14 221.37 1308.46 241.649 1333.93 248.776C1339.06 250.211 1344.88 251.113 1351.48 251.345C1353.56 251.415 1359.69 251.402 1362.49 251.396C1363.02 251.395 1363.44 251.394 1363.68 251.394C1366.35 251.399 1369.13 251.325 1372.02 251.167L1371.99 250.668C1371.86 250.675 1371.73 250.683 1371.59 250.69M1297.81 204.583L1371.59 250.69M1297.81 204.583C1297.72 204.075 1297.66 203.582 1297.6 203.089C1297.12 199.469 1296.97 196.051 1297 193.033C1296.96 185.034 1297.98 179.505 1297.98 179.505M1297.81 204.583L1297.98 179.505M1371.59 250.69C1371.62 250.537 1371.65 250.341 1371.68 250.104C1371.78 249.465 1371.9 248.529 1372.03 247.344C1372.27 244.973 1372.52 241.606 1372.5 237.628L1372.5 237.62C1372.53 234.622 1372.37 231.243 1371.9 227.635L1371.9 227.624L1371.9 227.624C1371.84 227.141 1371.78 226.657 1371.69 226.157L1371.69 226.144L1371.69 226.144C1370.26 215.83 1366.56 204.243 1358.01 195.238C1349.48 186.246 1336.06 179.769 1315.05 179.769L1314.9 179.769C1313.03 179.768 1302.99 179.767 1298.4 179.984C1298.38 180.136 1298.35 180.331 1298.31 180.567C1298.22 181.204 1298.09 182.138 1297.97 183.322C1297.72 185.689 1297.48 189.052 1297.5 193.031L1297.5 193.038L1297.5 193.038C1297.47 196.036 1297.62 199.43 1298.1 203.023L1298.1 203.034L1298.1 203.034C1298.15 203.517 1298.22 204.001 1298.3 204.502L1298.3 204.514L1298.3 204.514C1300.62 221.203 1308.86 241.244 1334.06 248.294L1333.93 248.775L1334.06 248.294C1339.15 249.717 1344.93 250.615 1351.5 250.845C1353.57 250.915 1359.67 250.902 1362.48 250.896C1363.02 250.895 1363.44 250.894 1363.68 250.894L1363.68 250.894C1366.22 250.899 1368.86 250.832 1371.59 250.69ZM1297.98 179.505C1302.36 179.266 1312.97 179.268 1314.9 179.269L1315.05 179.269C1357.28 179.269 1369.31 205.333 1372.19 226.075C1372.27 226.583 1372.34 227.076 1372.39 227.569C1372.87 231.204 1373.03 234.607 1373 237.625L1297.98 179.505Z" stroke="black"/>
<path d="M563.171 340.482L563.171 340.482C560.631 340.487 557.996 340.42 555.258 340.277C555.234 340.125 555.203 339.929 555.169 339.692C555.075 339.053 554.95 338.117 554.826 336.932C554.579 334.561 554.336 331.194 554.356 327.215L554.356 327.215L554.356 327.208C554.326 324.21 554.478 320.831 554.953 317.223L554.953 317.223L554.954 317.212C555.007 316.729 555.075 316.245 555.158 315.744L555.158 315.745L555.16 315.732C556.592 305.418 560.291 293.831 568.838 284.826C577.371 275.834 590.794 269.357 611.798 269.357L611.953 269.357C613.822 269.356 623.864 269.355 628.45 269.572C628.474 269.724 628.505 269.919 628.539 270.155C628.633 270.792 628.758 271.726 628.882 272.909C629.129 275.277 629.372 278.64 629.352 282.618L629.353 282.626C629.382 285.624 629.23 289.018 628.755 292.611L628.755 292.611L628.754 292.622C628.701 293.105 628.633 293.589 628.55 294.089L628.55 294.089L628.548 294.102C626.23 310.791 617.99 330.832 592.79 337.882L592.924 338.364L592.789 337.882C587.703 339.305 581.923 340.203 575.355 340.433C573.286 340.503 567.18 340.49 564.371 340.484C563.833 340.483 563.416 340.482 563.171 340.482Z" stroke="black"/>
<path d="M575.355 179.733C573.287 179.663 567.18 179.676 564.371 179.682C563.833 179.683 563.416 179.684 563.171 179.684L563.171 179.684C560.631 179.679 557.996 179.746 555.258 179.889C555.234 180.041 555.203 180.237 555.169 180.475C555.075 181.113 554.95 182.049 554.826 183.234C554.579 185.605 554.336 188.972 554.356 192.951L554.356 192.958L554.356 192.958C554.326 195.956 554.478 199.335 554.953 202.944L554.954 202.954L554.954 202.954C555.007 203.437 555.075 203.922 555.158 204.422L555.16 204.434L555.16 204.434C556.592 214.748 560.291 226.335 568.838 235.341C577.371 244.332 590.794 250.81 611.798 250.81L611.953 250.81C613.823 250.81 623.864 250.812 628.45 250.594C628.474 250.442 628.505 250.247 628.539 250.011C628.633 249.374 628.758 248.44 628.882 247.257C629.129 244.889 629.372 241.526 629.353 237.548L629.352 237.54C629.382 234.542 629.23 231.148 628.755 227.555L628.754 227.544L628.754 227.544C628.701 227.061 628.633 226.577 628.55 226.077L628.548 226.064L628.548 226.064C626.23 209.376 617.99 189.334 592.79 182.284L592.913 181.842L592.789 182.284C587.703 180.861 581.924 179.964 575.355 179.733ZM575.355 179.733C575.355 179.733 575.355 179.733 575.355 179.733L575.372 179.233L575.355 179.733Z" stroke="black"/>
<path d="M647.528 294.171C649.86 310.958 658.175 331.237 683.647 338.364C688.776 339.799 694.595 340.701 701.199 340.933C703.278 341.003 709.405 340.99 712.21 340.984C712.744 340.983 713.158 340.982 713.4 340.982C716.073 340.987 718.849 340.913 721.739 340.755L721.712 340.256C721.579 340.263 721.446 340.27 721.313 340.277M647.528 294.171L721.313 340.277M647.528 294.171C647.444 293.663 647.375 293.17 647.321 292.677C646.842 289.057 646.689 285.639 646.719 282.621C646.679 274.622 647.695 269.093 647.695 269.093M647.528 294.171L647.695 269.093M721.313 340.277C721.337 340.125 721.368 339.929 721.403 339.692C721.496 339.053 721.621 338.117 721.745 336.932C721.993 334.561 722.235 331.194 722.216 327.215L722.216 327.208C722.245 324.21 722.093 320.831 721.618 317.223L721.617 317.212L721.617 317.212C721.564 316.729 721.496 316.245 721.414 315.744L721.412 315.732L721.412 315.732C719.98 305.418 716.28 293.831 707.734 284.826C699.2 275.834 685.778 269.357 664.774 269.357L664.618 269.357C662.749 269.356 652.707 269.355 648.121 269.572C648.097 269.724 648.067 269.919 648.032 270.155C647.938 270.792 647.813 271.726 647.69 272.909C647.442 275.277 647.199 278.64 647.219 282.618L647.219 282.626L647.219 282.626C647.189 285.624 647.341 289.018 647.816 292.611L647.818 292.622L647.818 292.622C647.871 293.105 647.938 293.589 648.021 294.089L648.023 294.102L648.023 294.102C650.342 310.791 658.581 330.832 683.782 337.882L683.647 338.363L683.782 337.882C688.868 339.305 694.648 340.203 701.216 340.433C703.285 340.503 709.391 340.49 712.201 340.484C712.738 340.483 713.155 340.482 713.4 340.482L713.401 340.482C715.941 340.487 718.575 340.42 721.313 340.277ZM647.695 269.093C652.083 268.854 662.692 268.856 664.617 268.857L664.774 268.857C707.003 268.857 719.027 294.92 721.907 315.663C721.991 316.171 722.06 316.664 722.114 317.157C722.592 320.792 722.745 324.195 722.716 327.213L647.695 269.093Z" stroke="black"/>
<path d="M1120.55 340.482L1120.55 340.482C1118.01 340.487 1115.38 340.42 1112.64 340.277C1112.62 340.125 1112.59 339.929 1112.55 339.692C1112.46 339.053 1112.33 338.117 1112.21 336.932C1111.96 334.561 1111.72 331.194 1111.74 327.215L1111.74 327.215L1111.74 327.208C1111.71 324.21 1111.86 320.831 1112.34 317.223L1112.34 317.223L1112.34 317.212C1112.39 316.729 1112.46 316.245 1112.54 315.744L1112.54 315.745L1112.54 315.732C1113.97 305.418 1117.67 293.831 1126.22 284.826C1134.75 275.834 1148.18 269.357 1169.18 269.357L1169.34 269.357C1171.21 269.356 1181.25 269.355 1185.83 269.572C1185.86 269.724 1185.89 269.919 1185.92 270.155C1186.02 270.792 1186.14 271.726 1186.26 272.909C1186.51 275.277 1186.75 278.64 1186.74 282.618L1186.74 282.626C1186.76 285.624 1186.61 289.018 1186.14 292.611L1186.14 292.611L1186.14 292.622C1186.08 293.105 1186.02 293.589 1185.93 294.089L1185.93 294.089L1185.93 294.102C1183.61 310.791 1175.37 330.832 1150.17 337.882L1150.31 338.364L1150.17 337.882C1145.09 339.305 1139.31 340.203 1132.74 340.433C1130.67 340.503 1124.56 340.49 1121.75 340.484C1121.22 340.483 1120.8 340.482 1120.55 340.482Z" stroke="black"/>
<path d="M1132.74 179.733C1130.67 179.663 1124.56 179.676 1121.75 179.682C1121.22 179.683 1120.8 179.684 1120.55 179.684L1120.55 179.684C1118.01 179.679 1115.38 179.746 1112.64 179.889C1112.62 180.041 1112.59 180.237 1112.55 180.475C1112.46 181.113 1112.33 182.049 1112.21 183.234C1111.96 185.605 1111.72 188.972 1111.74 192.951L1111.74 192.958L1111.74 192.958C1111.71 195.956 1111.86 199.335 1112.34 202.944L1112.34 202.954L1112.34 202.954C1112.39 203.437 1112.46 203.922 1112.54 204.422L1112.54 204.434L1112.54 204.434C1113.97 214.748 1117.67 226.335 1126.22 235.341C1134.75 244.332 1148.18 250.81 1169.18 250.81L1169.34 250.81C1171.21 250.81 1181.25 250.812 1185.83 250.594C1185.86 250.442 1185.89 250.247 1185.92 250.011C1186.02 249.374 1186.14 248.44 1186.26 247.257C1186.51 244.889 1186.75 241.526 1186.74 237.548L1186.74 237.54C1186.76 234.542 1186.61 231.148 1186.14 227.555L1186.14 227.544L1186.14 227.544C1186.08 227.061 1186.02 226.577 1185.93 226.077L1185.93 226.064L1185.93 226.064C1183.61 209.376 1175.37 189.334 1150.17 182.284L1150.3 181.842L1150.17 182.284C1145.09 180.861 1139.31 179.964 1132.74 179.733ZM1132.74 179.733C1132.74 179.733 1132.74 179.733 1132.74 179.733L1132.76 179.233L1132.74 179.733Z" stroke="black"/>
<path d="M1204.91 294.171C1207.24 310.958 1215.56 331.237 1241.03 338.364C1246.16 339.799 1251.98 340.701 1258.58 340.933C1260.66 341.003 1266.79 340.99 1269.59 340.984C1270.13 340.983 1270.54 340.982 1270.78 340.982C1273.46 340.987 1276.23 340.913 1279.12 340.755L1279.09 340.256C1278.96 340.263 1278.83 340.27 1278.7 340.277M1204.91 294.171L1278.7 340.277M1204.91 294.171C1204.83 293.663 1204.76 293.17 1204.7 292.677C1204.22 289.057 1204.07 285.639 1204.1 282.621C1204.06 274.622 1205.08 269.093 1205.08 269.093M1204.91 294.171L1205.08 269.093M1278.7 340.277C1278.72 340.125 1278.75 339.929 1278.79 339.692C1278.88 339.053 1279 338.117 1279.13 336.932C1279.37 334.561 1279.62 331.194 1279.6 327.215L1279.6 327.208C1279.63 324.21 1279.48 320.831 1279 317.223L1279 317.212L1279 317.212C1278.95 316.729 1278.88 316.245 1278.8 315.744L1278.79 315.732L1278.79 315.732C1277.36 305.418 1273.66 293.831 1265.12 284.826C1256.58 275.834 1243.16 269.357 1222.16 269.357L1222 269.357C1220.13 269.356 1210.09 269.355 1205.5 269.572C1205.48 269.724 1205.45 269.919 1205.41 270.155C1205.32 270.792 1205.2 271.726 1205.07 272.909C1204.82 275.277 1204.58 278.64 1204.6 282.618L1204.6 282.626L1204.6 282.626C1204.57 285.624 1204.72 289.018 1205.2 292.611L1205.2 292.622L1205.2 292.622C1205.25 293.105 1205.32 293.589 1205.4 294.089L1205.41 294.102L1205.41 294.102C1207.72 310.791 1215.96 330.832 1241.16 337.882L1241.03 338.363L1241.16 337.882C1246.25 339.305 1252.03 340.203 1258.6 340.433C1260.67 340.503 1266.77 340.49 1269.58 340.484C1270.12 340.483 1270.54 340.482 1270.78 340.482L1270.78 340.482C1273.32 340.487 1275.96 340.42 1278.7 340.277ZM1205.08 269.093C1209.47 268.854 1220.07 268.856 1222 268.857L1222.16 268.857C1264.39 268.857 1276.41 294.92 1279.29 315.663C1279.37 316.171 1279.44 316.664 1279.5 317.157C1279.97 320.792 1280.13 324.195 1280.1 327.213L1205.08 269.093Z" stroke="black"/>
</svg>
