<svg width="1373" height="431" viewBox="0 0 1373 431" fill="none" xmlns="http://www.w3.org/2000/svg">
<path d="M183.244 430.341C186.134 430.499 188.91 430.573 191.583 430.568C193.097 430.568 201.308 430.603 203.784 430.519C210.388 430.287 216.207 429.385 221.336 427.949C246.808 420.823 255.123 400.544 257.455 383.757C257.539 383.249 257.608 382.756 257.662 382.263C258.141 378.643 258.294 375.225 258.264 372.207C258.304 364.208 257.288 358.679 257.288 358.679C252.76 358.433 241.61 358.443 240.209 358.443C197.979 358.443 185.956 384.506 183.076 405.249C182.992 405.757 182.923 406.25 182.869 406.743C182.39 410.378 182.238 413.781 182.267 416.799C182.228 424.798 183.244 430.341 183.244 430.341Z" fill="#5AB947" fill-opacity="0.24"/>
<path d="M183.244 268.997C186.134 268.839 188.91 268.765 191.583 268.77C193.097 268.77 201.308 268.735 203.784 268.819C210.388 269.051 216.207 269.953 221.336 271.389C246.808 278.515 255.123 298.794 257.455 315.581C257.539 316.089 257.608 316.582 257.662 317.076C258.141 320.695 258.294 324.113 258.264 327.131C258.304 335.13 257.288 340.659 257.288 340.659C252.76 340.905 241.61 340.895 240.209 340.895C197.979 340.895 185.956 314.832 183.076 294.089C182.992 293.581 182.923 293.088 182.869 292.595C182.39 288.96 182.238 285.557 182.267 282.539C182.228 274.54 183.244 268.997 183.244 268.997Z" fill="#5AB947" fill-opacity="0.24"/>
<path d="M350.15 430.341C347.26 430.499 344.484 430.573 341.811 430.568C340.297 430.568 332.086 430.603 329.61 430.519C323.007 430.287 317.187 429.385 312.058 427.949C286.586 420.823 278.271 400.544 275.939 383.757C275.855 383.249 275.786 382.756 275.732 382.263C275.253 378.643 275.1 375.225 275.13 372.207C275.091 364.208 276.106 358.679 276.106 358.679C280.634 358.433 291.784 358.443 293.185 358.443C335.415 358.443 347.438 384.506 350.318 405.249C350.402 405.757 350.471 406.25 350.525 406.743C351.004 410.378 351.157 413.781 351.127 416.799C351.166 424.798 350.15 430.341 350.15 430.341Z" fill="#5AB947" fill-opacity="0.24"/>
<path d="M740.626 430.341C743.516 430.499 746.293 430.573 748.966 430.568C750.48 430.568 758.691 430.603 761.167 430.519C767.77 430.287 773.59 429.385 778.719 427.949C804.191 420.823 812.505 400.544 814.838 383.757C814.922 383.249 814.991 382.756 815.045 382.263C815.524 378.643 815.677 375.225 815.647 372.207C815.686 364.208 814.67 358.679 814.67 358.679C810.143 358.433 798.993 358.443 797.592 358.443C755.362 358.443 743.339 384.506 740.459 405.249C740.375 405.757 740.306 406.25 740.252 406.743C739.773 410.378 739.62 413.781 739.65 416.799C739.611 424.798 740.626 430.341 740.626 430.341Z" fill="#5AB947" fill-opacity="0.24"/>
<path d="M740.626 268.997C743.516 268.839 746.293 268.765 748.966 268.77C750.48 268.77 758.691 268.735 761.167 268.819C767.77 269.051 773.59 269.953 778.719 271.389C804.191 278.515 812.505 298.794 814.838 315.581C814.922 316.089 814.991 316.582 815.045 317.076C815.524 320.695 815.677 324.113 815.647 327.131C815.686 335.13 814.67 340.659 814.67 340.659C810.143 340.905 798.993 340.895 797.592 340.895C755.362 340.895 743.339 314.832 740.459 294.089C740.375 293.581 740.306 293.088 740.252 292.595C739.773 288.96 739.62 285.557 739.65 282.539C739.611 274.54 740.626 268.997 740.626 268.997Z" fill="#5AB947" fill-opacity="0.24"/>
<path d="M907.533 430.341C904.643 430.499 901.867 430.573 899.194 430.568C897.68 430.568 889.469 430.603 886.993 430.519C880.389 430.287 874.57 429.385 869.441 427.949C843.969 420.823 835.654 400.544 833.322 383.757C833.238 383.249 833.169 382.756 833.114 382.263C832.636 378.643 832.483 375.225 832.513 372.207C832.473 364.208 833.489 358.679 833.489 358.679C838.017 358.433 849.167 358.443 850.568 358.443C892.797 358.443 904.821 384.506 907.701 405.249C907.785 405.757 907.854 406.25 907.908 406.743C908.386 410.378 908.539 413.781 908.51 416.799C908.549 424.798 907.533 430.341 907.533 430.341Z" fill="#5AB947" fill-opacity="0.24"/>
<path d="M276.14 340.755C279.03 340.913 281.807 340.987 284.48 340.982C285.994 340.982 294.205 341.017 296.681 340.933C303.284 340.701 309.103 339.799 314.232 338.364C339.704 331.237 348.019 310.958 350.352 294.171C350.436 293.663 350.505 293.17 350.559 292.677C351.037 289.057 351.19 285.639 351.161 282.621C351.2 274.622 350.184 269.093 350.184 269.093C345.657 268.847 334.506 268.857 333.106 268.857C290.876 268.857 278.853 294.92 275.972 315.663C275.889 316.171 275.82 316.664 275.765 317.157C275.287 320.792 275.134 324.195 275.164 327.213C275.124 335.212 276.14 340.755 276.14 340.755Z" fill="#5AB947" fill-opacity="0.24"/>
<path d="M276.14 179.411C279.03 179.253 281.807 179.179 284.48 179.184C285.994 179.184 294.205 179.149 296.681 179.233C303.284 179.465 309.103 180.368 314.232 181.803C339.704 188.929 348.019 209.208 350.352 225.995C350.436 226.503 350.505 226.996 350.559 227.49C351.037 231.109 351.19 234.527 351.161 237.545C351.2 245.544 350.184 251.073 350.184 251.073C345.657 251.319 334.506 251.31 333.106 251.31C290.876 251.31 278.853 225.246 275.972 204.503C275.889 203.995 275.82 203.502 275.765 203.009C275.287 199.374 275.134 195.971 275.164 192.953C275.124 184.954 276.14 179.411 276.14 179.411Z" fill="#5AB947" fill-opacity="0.24"/>
<path d="M443.047 340.755C440.157 340.913 437.38 340.987 434.707 340.982C433.193 340.982 424.982 341.017 422.507 340.933C415.903 340.701 410.084 339.799 404.955 338.364C379.483 331.237 371.168 310.958 368.835 294.171C368.751 293.663 368.682 293.17 368.628 292.677C368.15 289.057 367.997 285.639 368.026 282.621C367.987 274.622 369.003 269.093 369.003 269.093C373.53 268.847 384.681 268.857 386.081 268.857C428.311 268.857 440.335 294.92 443.215 315.663C443.298 316.171 443.367 316.664 443.422 317.157C443.9 320.792 444.053 324.195 444.023 327.213C444.063 335.212 443.047 340.755 443.047 340.755Z" fill="#5AB947" fill-opacity="0.24"/>
<path d="M833.524 340.755C836.414 340.913 839.191 340.987 841.864 340.982C843.378 340.982 851.589 341.017 854.065 340.933C860.668 340.701 866.488 339.799 871.617 338.364C897.089 331.237 905.403 310.958 907.736 294.171C907.82 293.663 907.889 293.17 907.943 292.677C908.422 289.057 908.574 285.639 908.545 282.621C908.584 274.622 907.568 269.093 907.568 269.093C903.041 268.847 891.891 268.857 890.49 268.857C848.26 268.857 836.237 294.92 833.357 315.663C833.273 316.171 833.204 316.664 833.15 317.157C832.671 320.792 832.518 324.195 832.548 327.213C832.509 335.212 833.524 340.755 833.524 340.755Z" fill="#5AB947" fill-opacity="0.24"/>
<path d="M833.524 179.411C836.414 179.253 839.191 179.179 841.864 179.184C843.378 179.184 851.589 179.149 854.065 179.233C860.668 179.465 866.488 180.368 871.617 181.803C897.089 188.929 905.403 209.208 907.736 225.995C907.82 226.503 907.889 226.996 907.943 227.49C908.422 231.109 908.574 234.527 908.545 237.545C908.584 245.544 907.568 251.073 907.568 251.073C903.041 251.319 891.891 251.31 890.49 251.31C848.26 251.31 836.237 225.246 833.357 204.503C833.273 203.995 833.204 203.502 833.15 203.009C832.671 199.374 832.518 195.971 832.548 192.953C832.509 184.954 833.524 179.411 833.524 179.411Z" fill="#5AB947" fill-opacity="0.24"/>
<path d="M1000.43 340.755C997.541 340.913 994.765 340.987 992.092 340.982C990.578 340.982 982.367 341.017 979.891 340.933C973.287 340.701 967.468 339.799 962.339 338.364C936.867 331.237 928.552 310.958 926.22 294.171C926.136 293.663 926.067 293.17 926.012 292.677C925.534 289.057 925.381 285.639 925.411 282.621C925.371 274.622 926.387 269.093 926.387 269.093C930.914 268.847 942.065 268.857 943.466 268.857C985.695 268.857 997.719 294.92 1000.6 315.663C1000.68 316.171 1000.75 316.664 1000.81 317.157C1001.28 320.792 1001.44 324.195 1001.41 327.213C1001.45 335.212 1000.43 340.755 1000.43 340.755Z" fill="#5AB947" fill-opacity="0.24"/>
<path d="M186.774 161.579C189.664 161.736 192.44 161.81 195.113 161.805C196.627 161.805 204.839 161.84 207.314 161.756C213.918 161.524 219.737 160.622 224.866 159.187C250.338 152.06 258.653 131.781 260.986 114.994C261.069 114.486 261.138 113.993 261.193 113.5C261.671 109.88 261.824 106.462 261.794 103.444C261.834 95.445 260.818 89.9166 260.818 89.9166C256.291 89.67 245.14 89.6799 243.74 89.6799C201.51 89.6799 189.486 115.744 186.606 136.486C186.522 136.994 186.453 137.487 186.399 137.981C185.921 141.615 185.768 145.018 185.797 148.036C185.758 156.035 186.774 161.579 186.774 161.579Z" fill="#5AB947" fill-opacity="0.24"/>
<path d="M186.774 0.234032C189.664 0.0762192 192.44 0.00224849 195.113 0.00718018C196.627 0.0071802 204.839 -0.0273383 207.314 0.0565C213.918 0.288288 219.737 1.19078 224.866 2.62589C250.338 9.75215 258.653 30.0312 260.986 46.8185C261.069 47.3265 261.138 47.8197 261.193 48.3128C261.671 51.9327 261.824 55.3503 261.794 58.3685C261.834 66.3676 260.818 71.896 260.818 71.896C256.291 72.1426 245.14 72.1328 243.74 72.1328C201.51 72.1328 189.486 46.0689 186.606 25.3263C186.522 24.8184 186.453 24.3252 186.399 23.832C185.921 20.1974 185.768 16.7946 185.797 13.7764C185.758 5.77723 186.774 0.234032 186.774 0.234032Z" fill="#5AB947" fill-opacity="0.24"/>
<path d="M353.681 161.579C350.791 161.736 348.015 161.81 345.342 161.805C343.828 161.805 335.617 161.84 333.141 161.756C326.537 161.524 320.718 160.622 315.589 159.187C290.117 152.06 281.802 131.781 279.47 114.994C279.386 114.486 279.317 113.993 279.262 113.5C278.784 109.88 278.631 106.462 278.661 103.444C278.621 95.445 279.637 89.9166 279.637 89.9166C284.164 89.67 295.315 89.6799 296.716 89.6799C338.945 89.6799 350.969 115.744 353.849 136.486C353.933 136.994 354.002 137.487 354.056 137.981C354.534 141.615 354.687 145.018 354.658 148.036C354.697 156.035 353.681 161.579 353.681 161.579Z" fill="#5AB947" fill-opacity="0.24"/>
<path d="M744.157 161.579C747.047 161.736 749.824 161.81 752.497 161.805C754.011 161.805 762.222 161.84 764.698 161.756C771.301 161.524 777.12 160.622 782.249 159.187C807.721 152.06 816.036 131.781 818.369 114.994C818.453 114.486 818.522 113.993 818.576 113.5C819.054 109.88 819.207 106.462 819.178 103.444C819.217 95.445 818.201 89.9166 818.201 89.9166C813.674 89.67 802.523 89.6799 801.123 89.6799C758.893 89.6799 746.87 115.744 743.99 136.486C743.906 136.994 743.837 137.487 743.782 137.981C743.304 141.615 743.151 145.018 743.181 148.036C743.141 156.035 744.157 161.579 744.157 161.579Z" fill="#5AB947" fill-opacity="0.24"/>
<path d="M744.157 0.234032C747.047 0.0762192 749.824 0.00224849 752.497 0.00718018C754.011 0.0071802 762.222 -0.0273383 764.698 0.0565C771.301 0.288288 777.12 1.19078 782.249 2.62589C807.721 9.75215 816.036 30.0312 818.369 46.8185C818.453 47.3265 818.522 47.8197 818.576 48.3128C819.054 51.9327 819.207 55.3503 819.178 58.3685C819.217 66.3676 818.201 71.896 818.201 71.896C813.674 72.1426 802.523 72.1328 801.123 72.1328C758.893 72.1328 746.87 46.0689 743.99 25.3263C743.906 24.8184 743.837 24.3252 743.782 23.832C743.304 20.1974 743.151 16.7946 743.181 13.7764C743.141 5.77723 744.157 0.234032 744.157 0.234032Z" fill="#5AB947" fill-opacity="0.24"/>
<path d="M911.064 161.579C908.174 161.736 905.398 161.81 902.725 161.805C901.211 161.805 892.999 161.84 890.524 161.756C883.92 161.524 878.101 160.622 872.972 159.187C847.5 152.06 839.185 131.781 836.852 114.994C836.769 114.486 836.699 113.993 836.645 113.5C836.167 109.88 836.014 106.462 836.044 103.444C836.004 95.445 837.02 89.9166 837.02 89.9166C841.547 89.67 852.698 89.6799 854.098 89.6799C896.328 89.6799 908.352 115.744 911.232 136.486C911.316 136.994 911.385 137.487 911.439 137.981C911.917 141.615 912.07 145.018 912.04 148.036C912.08 156.035 911.064 161.579 911.064 161.579Z" fill="#5AB947" fill-opacity="0.24"/>
<path d="M93.8765 251.167C96.7664 251.325 99.543 251.399 102.216 251.394C103.73 251.394 111.941 251.429 114.417 251.345C121.02 251.113 126.84 250.211 131.969 248.776C157.441 241.649 165.755 221.37 168.088 204.583C168.172 204.075 168.241 203.582 168.295 203.089C168.774 199.469 168.927 196.051 168.897 193.033C168.936 185.034 167.92 179.505 167.92 179.505C163.393 179.259 152.243 179.269 150.842 179.269C108.612 179.269 96.5889 205.333 93.7088 226.075C93.625 226.583 93.5559 227.076 93.5017 227.569C93.0233 231.204 92.8704 234.607 92.9 237.625C92.8606 245.624 93.8765 251.167 93.8765 251.167Z" fill="#5AB947" fill-opacity="0.24"/>
<path d="M93.8765 89.8229C96.7664 89.6651 99.543 89.5911 102.216 89.596C103.73 89.596 111.941 89.5615 114.417 89.6454C121.02 89.8772 126.84 90.7796 131.969 92.2148C157.441 99.341 165.755 119.62 168.088 136.407C168.172 136.915 168.241 137.409 168.295 137.902C168.774 141.522 168.927 144.939 168.897 147.957C168.936 155.957 167.92 161.485 167.92 161.485C163.393 161.731 152.243 161.722 150.842 161.722C108.612 161.722 96.5889 135.658 93.7088 114.915C93.625 114.407 93.5559 113.914 93.5017 113.421C93.0233 109.786 92.8704 106.383 92.9 103.365C92.8606 95.3661 93.8765 89.8229 93.8765 89.8229Z" fill="#5AB947" fill-opacity="0.24"/>
<path d="M260.784 251.167C257.894 251.325 255.117 251.399 252.444 251.394C250.93 251.394 242.719 251.429 240.243 251.345C233.64 251.113 227.821 250.211 222.692 248.776C197.22 241.649 188.905 221.37 186.572 204.583C186.488 204.075 186.419 203.582 186.365 203.089C185.887 199.469 185.734 196.051 185.763 193.033C185.724 185.034 186.74 179.505 186.74 179.505C191.267 179.259 202.418 179.269 203.818 179.269C246.048 179.269 258.071 205.333 260.951 226.075C261.035 226.583 261.104 227.076 261.159 227.569C261.637 231.204 261.79 234.607 261.76 237.625C261.8 245.624 260.784 251.167 260.784 251.167Z" fill="#5AB947" fill-opacity="0.24"/>
<path d="M0.979993 340.755C3.86995 340.913 6.64648 340.987 9.31944 340.982C10.8335 340.982 19.0447 341.017 21.5204 340.933C28.1239 340.701 33.9432 339.799 39.0722 338.364C64.5442 331.237 72.859 310.958 75.1917 294.171C75.2755 293.663 75.3445 293.17 75.3988 292.677C75.8772 289.057 76.0301 285.639 76.0005 282.621C76.0399 274.622 75.024 269.093 75.024 269.093C70.4967 268.847 59.3462 268.857 57.9456 268.857C15.7158 268.857 3.69241 294.92 0.812319 315.663C0.72848 316.171 0.659438 316.664 0.60519 317.157C0.126818 320.792 -0.0260638 324.195 0.00352612 327.213C-0.0359273 335.212 0.979993 340.755 0.979993 340.755Z" fill="#5AB947" fill-opacity="0.24"/>
<path d="M0.979994 179.411C3.86995 179.253 6.64648 179.179 9.31944 179.184C10.8335 179.184 19.0447 179.149 21.5204 179.233C28.1239 179.465 33.9432 180.368 39.0722 181.803C64.5442 188.929 72.859 209.208 75.1917 225.995C75.2755 226.503 75.3445 226.996 75.3988 227.49C75.8772 231.109 76.0301 234.527 76.0005 237.545C76.0399 245.544 75.024 251.073 75.024 251.073C70.4967 251.319 59.3462 251.31 57.9456 251.31C15.7158 251.31 3.69241 225.246 0.812319 204.503C0.728481 203.995 0.659438 203.502 0.60519 203.009C0.126819 199.374 -0.0260634 195.971 0.00352665 192.953C-0.0359266 184.954 0.979994 179.411 0.979994 179.411Z" fill="#5AB947" fill-opacity="0.24"/>
<path d="M167.887 340.755C164.997 340.913 162.22 340.987 159.547 340.982C158.033 340.982 149.822 341.017 147.346 340.933C140.743 340.701 134.924 339.799 129.795 338.364C104.323 331.237 96.0078 310.958 93.6751 294.171C93.5913 293.663 93.5222 293.17 93.468 292.677C92.9896 289.057 92.8367 285.639 92.8663 282.621C92.8269 274.622 93.8428 269.093 93.8428 269.093C98.37 268.847 109.521 268.857 110.921 268.857C153.151 268.857 165.174 294.92 168.054 315.663C168.138 316.171 168.207 316.664 168.262 317.157C168.74 320.792 168.893 324.195 168.863 327.213C168.903 335.212 167.887 340.755 167.887 340.755Z" fill="#5AB947" fill-opacity="0.24"/>
<path d="M93.8765 358.583C96.7664 358.425 99.543 358.351 102.216 358.356C103.73 358.356 111.941 358.321 114.417 358.405C121.02 358.637 126.84 359.539 131.969 360.975C157.441 368.101 165.755 388.38 168.088 405.167C168.172 405.675 168.241 406.168 168.295 406.661C168.774 410.281 168.927 413.699 168.897 416.717C168.936 424.716 167.92 430.245 167.92 430.245C163.393 430.491 152.243 430.481 150.842 430.481C108.612 430.481 96.5889 404.418 93.7088 383.675C93.625 383.167 93.5559 382.674 93.5017 382.181C93.0233 378.546 92.8704 375.143 92.9 372.125C92.8606 364.126 93.8765 358.583 93.8765 358.583Z" fill="#5AB947" fill-opacity="0.24"/>
<path d="M369.038 358.583C371.928 358.425 374.704 358.351 377.377 358.356C378.891 358.356 387.102 358.321 389.578 358.405C396.181 358.637 402.001 359.539 407.13 360.975C432.602 368.101 440.917 388.38 443.249 405.167C443.333 405.675 443.402 406.168 443.456 406.661C443.935 410.281 444.088 413.699 444.058 416.717C444.098 424.716 443.082 430.245 443.082 430.245C438.554 430.491 427.404 430.481 426.003 430.481C383.773 430.481 371.75 404.418 368.87 383.675C368.786 383.167 368.717 382.674 368.663 382.181C368.184 378.546 368.032 375.143 368.061 372.125C368.022 364.126 369.038 358.583 369.038 358.583Z" fill="#5AB947" fill-opacity="0.24"/>
<path d="M926.42 358.583C929.31 358.425 932.087 358.351 934.76 358.356C936.274 358.356 944.485 358.321 946.961 358.405C953.564 358.637 959.384 359.539 964.513 360.975C989.985 368.101 998.299 388.38 1000.63 405.167C1000.72 405.675 1000.78 406.168 1000.84 406.661C1001.32 410.281 1001.47 413.699 1001.44 416.717C1001.48 424.716 1000.46 430.245 1000.46 430.245C995.937 430.491 984.787 430.481 983.386 430.481C941.156 430.481 929.133 404.418 926.253 383.675C926.169 383.167 926.1 382.674 926.046 382.181C925.567 378.546 925.414 375.143 925.444 372.125C925.405 364.126 926.42 358.583 926.42 358.583Z" fill="#5AB947" fill-opacity="0.24"/>
<path d="M369.038 251.167C371.928 251.325 374.704 251.399 377.377 251.394C378.891 251.394 387.102 251.429 389.578 251.345C396.181 251.113 402.001 250.211 407.13 248.776C432.602 241.649 440.917 221.37 443.249 204.583C443.333 204.075 443.402 203.582 443.456 203.089C443.935 199.469 444.088 196.051 444.058 193.033C444.098 185.034 443.082 179.505 443.082 179.505C438.554 179.259 427.404 179.269 426.003 179.269C383.773 179.269 371.75 205.333 368.87 226.075C368.786 226.583 368.717 227.076 368.663 227.569C368.184 231.204 368.032 234.607 368.061 237.625C368.022 245.624 369.038 251.167 369.038 251.167Z" fill="#5AB947" fill-opacity="0.24"/>
<path d="M369.038 89.8229C371.928 89.6651 374.704 89.5911 377.377 89.596C378.891 89.596 387.102 89.5615 389.578 89.6454C396.181 89.8772 402.001 90.7796 407.13 92.2148C432.602 99.341 440.917 119.62 443.249 136.407C443.333 136.915 443.402 137.409 443.456 137.902C443.935 141.522 444.088 144.939 444.058 147.957C444.098 155.957 443.082 161.485 443.082 161.485C438.554 161.731 427.404 161.722 426.003 161.722C383.773 161.722 371.75 135.658 368.87 114.915C368.786 114.407 368.717 113.914 368.663 113.421C368.184 109.786 368.032 106.383 368.061 103.365C368.022 95.3661 369.038 89.8229 369.038 89.8229Z" fill="#5AB947" fill-opacity="0.24"/>
<path d="M535.944 251.167C533.054 251.325 530.278 251.399 527.605 251.394C526.091 251.394 517.88 251.429 515.404 251.345C508.801 251.113 502.981 250.211 497.852 248.776C472.38 241.649 464.065 221.37 461.733 204.583C461.649 204.075 461.58 203.582 461.526 203.089C461.047 199.469 460.894 196.051 460.924 193.033C460.884 185.034 461.9 179.505 461.9 179.505C466.428 179.259 477.578 179.269 478.979 179.269C521.209 179.269 533.232 205.333 536.112 226.075C536.196 226.583 536.265 227.076 536.319 227.569C536.798 231.204 536.95 234.607 536.921 237.625C536.96 245.624 535.944 251.167 535.944 251.167Z" fill="#5AB947" fill-opacity="0.24"/>
<path d="M926.42 251.167C929.31 251.325 932.087 251.399 934.76 251.394C936.274 251.394 944.485 251.429 946.961 251.345C953.564 251.113 959.384 250.211 964.513 248.776C989.985 241.649 998.299 221.37 1000.63 204.583C1000.72 204.075 1000.78 203.582 1000.84 203.089C1001.32 199.469 1001.47 196.051 1001.44 193.033C1001.48 185.034 1000.46 179.505 1000.46 179.505C995.937 179.259 984.787 179.269 983.386 179.269C941.156 179.269 929.133 205.333 926.253 226.075C926.169 226.583 926.1 227.076 926.046 227.569C925.567 231.204 925.414 234.607 925.444 237.625C925.405 245.624 926.42 251.167 926.42 251.167Z" fill="#5AB947" fill-opacity="0.24"/>
<path d="M926.42 89.8229C929.31 89.6651 932.087 89.5911 934.76 89.596C936.274 89.596 944.485 89.5615 946.961 89.6454C953.564 89.8772 959.384 90.7796 964.513 92.2148C989.985 99.341 998.299 119.62 1000.63 136.407C1000.72 136.915 1000.78 137.409 1000.84 137.902C1001.32 141.522 1001.47 144.939 1001.44 147.957C1001.48 155.957 1000.46 161.485 1000.46 161.485C995.937 161.731 984.787 161.722 983.386 161.722C941.156 161.722 929.133 135.658 926.253 114.915C926.169 114.407 926.1 113.914 926.046 113.421C925.567 109.786 925.414 106.383 925.444 103.365C925.405 95.3661 926.42 89.8229 926.42 89.8229Z" fill="#5AB947" fill-opacity="0.24"/>
<path d="M1093.33 251.167C1090.44 251.325 1087.66 251.399 1084.99 251.394C1083.47 251.394 1075.26 251.429 1072.79 251.345C1066.18 251.113 1060.36 250.211 1055.24 248.776C1029.76 241.649 1021.45 221.37 1019.12 204.583C1019.03 204.075 1018.96 203.582 1018.91 203.089C1018.43 199.469 1018.28 196.051 1018.31 193.033C1018.27 185.034 1019.28 179.505 1019.28 179.505C1023.81 179.259 1034.96 179.269 1036.36 179.269C1078.59 179.269 1090.62 205.333 1093.5 226.075C1093.58 226.583 1093.65 227.076 1093.7 227.569C1094.18 231.204 1094.33 234.607 1094.3 237.625C1094.34 245.624 1093.33 251.167 1093.33 251.167Z" fill="#5AB947" fill-opacity="0.24"/>
<path d="M461.936 161.579C464.826 161.736 467.602 161.81 470.275 161.805C471.789 161.805 480 161.84 482.476 161.756C489.079 161.524 494.899 160.622 500.028 159.187C525.5 152.06 533.815 131.781 536.147 114.994C536.231 114.486 536.3 113.993 536.354 113.5C536.833 109.88 536.986 106.462 536.956 103.444C536.995 95.445 535.98 89.9166 535.98 89.9166C531.452 89.67 520.302 89.6799 518.901 89.6799C476.671 89.6799 464.648 115.744 461.768 136.486C461.684 136.994 461.615 137.487 461.561 137.981C461.082 141.615 460.93 145.018 460.959 148.036C460.92 156.035 461.936 161.579 461.936 161.579Z" fill="#5AB947" fill-opacity="0.24"/>
<path d="M461.936 0.234032C464.826 0.0762192 467.602 0.00224849 470.275 0.00718018C471.789 0.0071802 480 -0.0273383 482.476 0.0565C489.079 0.288288 494.899 1.19078 500.028 2.62589C525.5 9.75215 533.815 30.0312 536.147 46.8185C536.231 47.3265 536.3 47.8197 536.354 48.3128C536.833 51.9327 536.986 55.3503 536.956 58.3685C536.995 66.3676 535.98 71.896 535.98 71.896C531.452 72.1426 520.302 72.1328 518.901 72.1328C476.671 72.1328 464.648 46.0689 461.768 25.3263C461.684 24.8184 461.615 24.3252 461.561 23.832C461.082 20.1974 460.93 16.7946 460.959 13.7764C460.92 5.77723 461.936 0.234032 461.936 0.234032Z" fill="#5AB947" fill-opacity="0.24"/>
<path d="M628.843 161.579C625.953 161.736 623.176 161.81 620.503 161.805C618.989 161.805 610.778 161.84 608.302 161.756C601.699 161.524 595.88 160.622 590.751 159.187C565.279 152.06 556.964 131.781 554.631 114.994C554.547 114.486 554.478 113.993 554.424 113.5C553.946 109.88 553.793 106.462 553.822 103.444C553.783 95.445 554.799 89.9166 554.799 89.9166C559.326 89.67 570.477 89.6799 571.877 89.6799C614.107 89.6799 626.13 115.744 629.011 136.486C629.094 136.994 629.163 137.487 629.218 137.981C629.696 141.615 629.849 145.018 629.819 148.036C629.859 156.035 628.843 161.579 628.843 161.579Z" fill="#5AB947" fill-opacity="0.24"/>
<path d="M1019.32 161.579C1022.21 161.736 1024.98 161.81 1027.66 161.805C1029.17 161.805 1037.38 161.84 1039.86 161.756C1046.46 161.524 1052.28 160.622 1057.41 159.187C1082.88 152.06 1091.2 131.781 1093.53 114.994C1093.61 114.486 1093.68 113.993 1093.74 113.5C1094.22 109.88 1094.37 106.462 1094.34 103.444C1094.38 95.445 1093.36 89.9166 1093.36 89.9166C1088.84 89.67 1077.68 89.6799 1076.28 89.6799C1034.05 89.6799 1022.03 115.744 1019.15 136.486C1019.07 136.994 1019 137.487 1018.94 137.981C1018.47 141.615 1018.31 145.018 1018.34 148.036C1018.3 156.035 1019.32 161.579 1019.32 161.579Z" fill="#5AB947" fill-opacity="0.24"/>
<path d="M1019.32 0.234032C1022.21 0.0762192 1024.98 0.00224849 1027.66 0.00718018C1029.17 0.0071802 1037.38 -0.0273383 1039.86 0.0565C1046.46 0.288288 1052.28 1.19078 1057.41 2.62589C1082.88 9.75215 1091.2 30.0312 1093.53 46.8185C1093.61 47.3265 1093.68 47.8197 1093.74 48.3128C1094.22 51.9327 1094.37 55.3503 1094.34 58.3685C1094.38 66.3676 1093.36 71.896 1093.36 71.896C1088.84 72.1426 1077.68 72.1328 1076.28 72.1328C1034.05 72.1328 1022.03 46.0689 1019.15 25.3263C1019.07 24.8184 1019 24.3252 1018.94 23.832C1018.47 20.1974 1018.31 16.7946 1018.34 13.7764C1018.3 5.77723 1019.32 0.234032 1019.32 0.234032Z" fill="#5AB947" fill-opacity="0.24"/>
<path d="M1186.23 161.579C1183.34 161.736 1180.56 161.81 1177.89 161.805C1176.37 161.805 1168.16 161.84 1165.68 161.756C1159.08 161.524 1153.26 160.622 1148.13 159.187C1122.66 152.06 1114.35 131.781 1112.01 114.994C1111.93 114.486 1111.86 113.993 1111.81 113.5C1111.33 109.88 1111.18 106.462 1111.2 103.444C1111.17 95.445 1112.18 89.9166 1112.18 89.9166C1116.71 89.67 1127.86 89.6799 1129.26 89.6799C1171.49 89.6799 1183.51 115.744 1186.39 136.486C1186.48 136.994 1186.55 137.487 1186.6 137.981C1187.08 141.615 1187.23 145.018 1187.2 148.036C1187.24 156.035 1186.23 161.579 1186.23 161.579Z" fill="#5AB947" fill-opacity="0.24"/>
<path d="M461.936 430.341C464.826 430.499 467.602 430.573 470.275 430.568C471.789 430.568 480 430.603 482.476 430.519C489.079 430.287 494.899 429.385 500.028 427.949C525.5 420.823 533.815 400.544 536.147 383.757C536.231 383.249 536.3 382.756 536.354 382.263C536.833 378.643 536.986 375.225 536.956 372.207C536.995 364.208 535.98 358.679 535.98 358.679C531.452 358.433 520.302 358.443 518.901 358.443C476.671 358.443 464.648 384.506 461.768 405.249C461.684 405.757 461.615 406.25 461.561 406.743C461.082 410.378 460.93 413.781 460.959 416.799C460.92 424.798 461.936 430.341 461.936 430.341Z" fill="#5AB947" fill-opacity="0.24"/>
<path d="M461.936 268.997C464.826 268.839 467.602 268.765 470.275 268.77C471.789 268.77 480 268.735 482.476 268.819C489.079 269.051 494.899 269.953 500.028 271.389C525.5 278.515 533.815 298.794 536.147 315.581C536.231 316.089 536.3 316.582 536.354 317.076C536.833 320.695 536.986 324.113 536.956 327.131C536.995 335.13 535.98 340.659 535.98 340.659C531.452 340.905 520.302 340.895 518.901 340.895C476.671 340.895 464.648 314.832 461.768 294.089C461.684 293.581 461.615 293.088 461.561 292.595C461.082 288.96 460.93 285.557 460.959 282.539C460.92 274.54 461.936 268.997 461.936 268.997Z" fill="#5AB947" fill-opacity="0.24"/>
<path d="M628.843 430.341C625.953 430.499 623.176 430.573 620.503 430.568C618.989 430.568 610.778 430.603 608.302 430.519C601.699 430.287 595.88 429.385 590.751 427.949C565.279 420.823 556.964 400.544 554.631 383.757C554.547 383.249 554.478 382.756 554.424 382.263C553.946 378.643 553.793 375.225 553.822 372.207C553.783 364.208 554.799 358.679 554.799 358.679C559.326 358.433 570.477 358.443 571.877 358.443C614.107 358.443 626.13 384.506 629.011 405.249C629.094 405.757 629.163 406.25 629.218 406.743C629.696 410.378 629.849 413.781 629.819 416.799C629.859 424.798 628.843 430.341 628.843 430.341Z" fill="#5AB947" fill-opacity="0.24"/>
<path d="M1019.32 430.341C1022.21 430.499 1024.98 430.573 1027.66 430.568C1029.17 430.568 1037.38 430.603 1039.86 430.519C1046.46 430.287 1052.28 429.385 1057.41 427.949C1082.88 420.823 1091.2 400.544 1093.53 383.757C1093.61 383.249 1093.68 382.756 1093.74 382.263C1094.22 378.643 1094.37 375.225 1094.34 372.207C1094.38 364.208 1093.36 358.679 1093.36 358.679C1088.84 358.433 1077.68 358.443 1076.28 358.443C1034.05 358.443 1022.03 384.506 1019.15 405.249C1019.07 405.757 1019 406.25 1018.94 406.743C1018.47 410.378 1018.31 413.781 1018.34 416.799C1018.3 424.798 1019.32 430.341 1019.32 430.341Z" fill="#5AB947" fill-opacity="0.24"/>
<path d="M1019.32 268.997C1022.21 268.839 1024.98 268.765 1027.66 268.77C1029.17 268.77 1037.38 268.735 1039.86 268.819C1046.46 269.051 1052.28 269.953 1057.41 271.389C1082.88 278.515 1091.2 298.794 1093.53 315.581C1093.61 316.089 1093.68 316.582 1093.74 317.076C1094.22 320.695 1094.37 324.113 1094.34 327.131C1094.38 335.13 1093.36 340.659 1093.36 340.659C1088.84 340.905 1077.68 340.895 1076.28 340.895C1034.05 340.895 1022.03 314.832 1019.15 294.089C1019.07 293.581 1019 293.088 1018.94 292.595C1018.47 288.96 1018.31 285.557 1018.34 282.539C1018.3 274.54 1019.32 268.997 1019.32 268.997Z" fill="#5AB947" fill-opacity="0.24"/>
<path d="M1186.23 430.341C1183.34 430.499 1180.56 430.573 1177.89 430.568C1176.37 430.568 1168.16 430.603 1165.69 430.519C1159.08 430.287 1153.26 429.385 1148.13 427.949C1122.66 420.823 1114.35 400.544 1112.01 383.757C1111.93 383.249 1111.86 382.756 1111.81 382.263C1111.33 378.643 1111.18 375.225 1111.21 372.207C1111.17 364.208 1112.18 358.679 1112.18 358.679C1116.71 358.433 1127.86 358.443 1129.26 358.443C1171.49 358.443 1183.51 384.506 1186.39 405.249C1186.48 405.757 1186.55 406.25 1186.6 406.743C1187.08 410.378 1187.23 413.781 1187.2 416.799C1187.24 424.798 1186.23 430.341 1186.23 430.341Z" fill="#5AB947" fill-opacity="0.24"/>
<path d="M647.728 358.583C650.618 358.425 653.395 358.351 656.067 358.356C657.582 358.356 665.793 358.321 668.268 358.405C674.872 358.637 680.691 359.539 685.82 360.975C711.292 368.101 719.607 388.38 721.94 405.167C722.024 405.675 722.093 406.168 722.147 406.661C722.625 410.281 722.778 413.699 722.749 416.717C722.788 424.716 721.772 430.245 721.772 430.245C717.245 430.491 706.094 430.481 704.694 430.481C662.464 430.481 650.44 404.418 647.56 383.675C647.477 383.167 647.407 382.674 647.353 382.181C646.875 378.546 646.722 375.143 646.752 372.125C646.712 364.126 647.728 358.583 647.728 358.583Z" fill="#5AB947" fill-opacity="0.24"/>
<path d="M1205.11 358.583C1208 358.425 1210.78 358.351 1213.45 358.356C1214.97 358.356 1223.18 358.321 1225.65 358.405C1232.26 358.637 1238.08 359.539 1243.2 360.975C1268.68 368.101 1276.99 388.38 1279.32 405.167C1279.41 405.675 1279.48 406.168 1279.53 406.661C1280.01 410.281 1280.16 413.699 1280.13 416.717C1280.17 424.716 1279.16 430.245 1279.16 430.245C1274.63 430.491 1263.48 430.481 1262.08 430.481C1219.85 430.481 1207.83 404.418 1204.95 383.675C1204.86 383.167 1204.79 382.674 1204.74 382.181C1204.26 378.546 1204.11 375.143 1204.14 372.125C1204.1 364.126 1205.11 358.583 1205.11 358.583Z" fill="#5AB947" fill-opacity="0.24"/>
<path d="M647.728 251.167C650.618 251.325 653.395 251.399 656.067 251.394C657.582 251.394 665.793 251.429 668.268 251.345C674.872 251.113 680.691 250.211 685.82 248.776C711.292 241.649 719.607 221.37 721.94 204.583C722.024 204.075 722.093 203.582 722.147 203.089C722.625 199.469 722.778 196.051 722.749 193.033C722.788 185.034 721.772 179.505 721.772 179.505C717.245 179.259 706.094 179.269 704.694 179.269C662.464 179.269 650.44 205.333 647.56 226.075C647.477 226.583 647.407 227.076 647.353 227.569C646.875 231.204 646.722 234.607 646.752 237.625C646.712 245.624 647.728 251.167 647.728 251.167Z" fill="#5AB947" fill-opacity="0.24"/>
<path d="M647.728 89.8229C650.618 89.6651 653.395 89.5911 656.067 89.596C657.582 89.596 665.793 89.5615 668.268 89.6454C674.872 89.8772 680.691 90.7796 685.82 92.2148C711.292 99.341 719.607 119.62 721.94 136.407C722.024 136.915 722.093 137.409 722.147 137.902C722.625 141.522 722.778 144.939 722.749 147.957C722.788 155.957 721.772 161.485 721.772 161.485C717.245 161.731 706.094 161.722 704.694 161.722C662.464 161.722 650.44 135.658 647.56 114.915C647.477 114.407 647.407 113.914 647.353 113.421C646.875 109.786 646.722 106.383 646.752 103.365C646.712 95.3661 647.728 89.8229 647.728 89.8229Z" fill="#5AB947" fill-opacity="0.24"/>
<path d="M814.635 251.167C811.745 251.325 808.969 251.399 806.296 251.394C804.782 251.394 796.571 251.429 794.095 251.345C787.491 251.113 781.672 250.211 776.543 248.776C751.071 241.649 742.756 221.37 740.424 204.583C740.34 204.075 740.271 203.582 740.217 203.089C739.738 199.469 739.585 196.051 739.615 193.033C739.575 185.034 740.591 179.505 740.591 179.505C745.119 179.259 756.269 179.269 757.67 179.269C799.899 179.269 811.923 205.333 814.803 226.075C814.887 226.583 814.956 227.076 815.01 227.569C815.488 231.204 815.641 234.607 815.612 237.625C815.651 245.624 814.635 251.167 814.635 251.167Z" fill="#5AB947" fill-opacity="0.24"/>
<path d="M1205.11 251.167C1208 251.325 1210.78 251.399 1213.45 251.394C1214.97 251.394 1223.18 251.429 1225.65 251.345C1232.26 251.113 1238.08 250.211 1243.2 248.776C1268.68 241.649 1276.99 221.37 1279.32 204.583C1279.41 204.075 1279.48 203.582 1279.53 203.089C1280.01 199.469 1280.16 196.051 1280.13 193.033C1280.17 185.034 1279.16 179.505 1279.16 179.505C1274.63 179.259 1263.48 179.269 1262.08 179.269C1219.85 179.269 1207.83 205.333 1204.95 226.075C1204.86 226.583 1204.79 227.076 1204.74 227.569C1204.26 231.204 1204.11 234.607 1204.14 237.625C1204.1 245.624 1205.11 251.167 1205.11 251.167Z" fill="#5AB947" fill-opacity="0.24"/>
<path d="M1205.11 89.8229C1208 89.6651 1210.78 89.5911 1213.45 89.596C1214.97 89.596 1223.18 89.5615 1225.65 89.6454C1232.26 89.8772 1238.08 90.7796 1243.2 92.2148C1268.68 99.341 1276.99 119.62 1279.32 136.407C1279.41 136.915 1279.48 137.409 1279.53 137.902C1280.01 141.522 1280.16 144.939 1280.13 147.957C1280.17 155.957 1279.16 161.485 1279.16 161.485C1274.63 161.731 1263.48 161.722 1262.08 161.722C1219.85 161.722 1207.83 135.658 1204.95 114.915C1204.86 114.407 1204.79 113.914 1204.74 113.421C1204.26 109.786 1204.11 106.383 1204.14 103.365C1204.1 95.3661 1205.11 89.8229 1205.11 89.8229Z" fill="#5AB947" fill-opacity="0.24"/>
<path d="M1372.02 251.167C1369.13 251.325 1366.35 251.399 1363.68 251.394C1362.17 251.394 1353.96 251.429 1351.48 251.345C1344.88 251.113 1339.06 250.211 1333.93 248.776C1308.46 241.649 1300.14 221.37 1297.81 204.583C1297.72 204.075 1297.66 203.582 1297.6 203.089C1297.12 199.469 1296.97 196.051 1297 193.033C1296.96 185.034 1297.98 179.505 1297.98 179.505C1302.5 179.259 1313.65 179.269 1315.05 179.269C1357.28 179.269 1369.31 205.333 1372.19 226.075C1372.27 226.583 1372.34 227.076 1372.39 227.569C1372.87 231.204 1373.03 234.607 1373 237.625C1373.04 245.624 1372.02 251.167 1372.02 251.167Z" fill="#5AB947" fill-opacity="0.24"/>
<path d="M554.832 340.755C557.722 340.913 560.499 340.987 563.171 340.982C564.686 340.982 572.897 341.017 575.372 340.933C581.976 340.701 587.795 339.799 592.924 338.364C618.396 331.237 626.711 310.958 629.044 294.171C629.128 293.663 629.197 293.17 629.251 292.677C629.729 289.057 629.882 285.639 629.853 282.621C629.892 274.622 628.876 269.093 628.876 269.093C624.349 268.847 613.198 268.857 611.798 268.857C569.568 268.857 557.544 294.92 554.664 315.663C554.581 316.171 554.511 316.664 554.457 317.157C553.979 320.792 553.826 324.195 553.856 327.213C553.816 335.212 554.832 340.755 554.832 340.755Z" fill="#5AB947" fill-opacity="0.24"/>
<path d="M554.832 179.411C557.722 179.253 560.499 179.179 563.171 179.184C564.686 179.184 572.897 179.149 575.372 179.233C581.976 179.465 587.795 180.368 592.924 181.803C618.396 188.929 626.711 209.208 629.044 225.995C629.128 226.503 629.197 226.996 629.251 227.49C629.729 231.109 629.882 234.527 629.853 237.545C629.892 245.544 628.876 251.073 628.876 251.073C624.349 251.319 613.198 251.31 611.798 251.31C569.568 251.31 557.544 225.246 554.664 204.503C554.581 203.995 554.511 203.502 554.457 203.009C553.979 199.374 553.826 195.971 553.856 192.953C553.816 184.954 554.832 179.411 554.832 179.411Z" fill="#5AB947" fill-opacity="0.24"/>
<path d="M721.739 340.755C718.849 340.913 716.073 340.987 713.4 340.982C711.886 340.982 703.675 341.017 701.199 340.933C694.595 340.701 688.776 339.799 683.647 338.364C658.175 331.237 649.86 310.958 647.528 294.171C647.444 293.663 647.375 293.17 647.321 292.677C646.842 289.057 646.689 285.639 646.719 282.621C646.679 274.622 647.695 269.093 647.695 269.093C652.223 268.847 663.373 268.857 664.774 268.857C707.003 268.857 719.027 294.92 721.907 315.663C721.991 316.171 722.06 316.664 722.114 317.157C722.592 320.792 722.745 324.195 722.716 327.213C722.755 335.212 721.739 340.755 721.739 340.755Z" fill="#5AB947" fill-opacity="0.24"/>
<path d="M1112.21 340.755C1115.1 340.913 1117.88 340.987 1120.55 340.982C1122.07 340.982 1130.28 341.017 1132.76 340.933C1139.36 340.701 1145.18 339.799 1150.31 338.364C1175.78 331.237 1184.09 310.958 1186.43 294.171C1186.51 293.663 1186.58 293.17 1186.63 292.677C1187.11 289.057 1187.26 285.639 1187.24 282.621C1187.27 274.622 1186.26 269.093 1186.26 269.093C1181.73 268.847 1170.58 268.857 1169.18 268.857C1126.95 268.857 1114.93 294.92 1112.05 315.663C1111.96 316.171 1111.89 316.664 1111.84 317.157C1111.36 320.792 1111.21 324.195 1111.24 327.213C1111.2 335.212 1112.21 340.755 1112.21 340.755Z" fill="#5AB947" fill-opacity="0.24"/>
<path d="M1112.21 179.411C1115.1 179.253 1117.88 179.179 1120.55 179.184C1122.07 179.184 1130.28 179.149 1132.76 179.233C1139.36 179.465 1145.18 180.368 1150.31 181.803C1175.78 188.929 1184.09 209.208 1186.43 225.995C1186.51 226.503 1186.58 226.996 1186.63 227.49C1187.11 231.109 1187.26 234.527 1187.24 237.545C1187.27 245.544 1186.26 251.073 1186.26 251.073C1181.73 251.319 1170.58 251.31 1169.18 251.31C1126.95 251.31 1114.93 225.246 1112.05 204.503C1111.96 203.995 1111.89 203.502 1111.84 203.009C1111.36 199.374 1111.21 195.971 1111.24 192.953C1111.2 184.954 1112.21 179.411 1112.21 179.411Z" fill="#5AB947" fill-opacity="0.24"/>
<path d="M1279.12 340.755C1276.23 340.913 1273.46 340.987 1270.78 340.982C1269.27 340.982 1261.06 341.017 1258.58 340.933C1251.98 340.701 1246.16 339.799 1241.03 338.364C1215.56 331.237 1207.24 310.958 1204.91 294.171C1204.83 293.663 1204.76 293.17 1204.7 292.677C1204.22 289.057 1204.07 285.639 1204.1 282.621C1204.06 274.622 1205.08 269.093 1205.08 269.093C1209.6 268.847 1220.76 268.857 1222.16 268.857C1264.39 268.857 1276.41 294.92 1279.29 315.663C1279.37 316.171 1279.44 316.664 1279.5 317.157C1279.97 320.792 1280.13 324.195 1280.1 327.213C1280.14 335.212 1279.12 340.755 1279.12 340.755Z" fill="#5AB947" fill-opacity="0.24"/>
</svg>
