<svg width="694" height="252" viewBox="0 0 694 252" fill="none" xmlns="http://www.w3.org/2000/svg">
<path d="M205.701 150.992L221.355 138.97V226.63H205.701V170.778L190.298 182.55L177.525 192.443L164.752 182.55L149.349 170.778V226.63H133.695V138.97L149.349 150.992L177.525 172.657L205.701 150.992ZM310.367 210.976L318.382 226.63H300.85L292.835 210.976L273.676 173.408L254.516 210.976L246.501 226.63H228.969L236.984 210.976L273.676 138.97L310.367 210.976ZM397.946 138.97L413.599 139.095V226.755L397.946 214.733L341.593 171.279V226.755H325.94V139.346L341.593 151.368L397.946 194.822V138.97ZM469.928 154.624C454.399 154.624 441.751 167.272 441.751 182.8C441.751 198.328 454.399 210.976 469.928 210.976H498.104V194.196H469.928V178.542H513.757V226.63H469.928C445.758 226.63 426.098 206.969 426.098 182.8C426.098 158.631 445.758 138.97 469.928 138.97H513.757V154.624H469.928ZM602.77 210.976L610.785 226.63H593.253L585.238 210.976L566.078 173.408L546.918 210.976L538.904 226.63H521.372L529.386 210.976L566.078 138.97L602.77 210.976ZM641.338 210.976L687.297 211.102V226.755H642.841C638.458 226.755 634.326 225.753 630.569 223.875C625.059 221.12 620.55 216.612 617.921 211.102C616.042 207.345 615.04 203.212 615.04 198.829V139.095H630.694V200.332C631.445 205.842 635.828 210.225 641.338 210.976Z" fill="#0B5377"/>
<path d="M0.346114 1.46244C0.11061 5.77511 0.000218303 9.91852 0.00757781 13.9074C0.00757781 16.1667 -0.0439399 28.4203 0.0811717 32.1148C0.427069 41.9692 1.77386 50.6534 3.91547 58.3073C14.55 96.3191 44.8122 108.727 69.864 112.208C70.622 112.333 71.358 112.436 72.0939 112.517C77.4958 113.231 82.5959 113.459 87.1 113.415C99.0371 113.474 107.287 111.958 107.287 111.958C107.655 105.202 107.64 88.5622 107.64 86.4721C107.64 23.4526 68.7454 5.51017 37.7913 1.21222C37.0332 1.08711 36.2973 0.984077 35.5613 0.903122C30.1374 0.18925 25.0593 -0.0388953 20.5553 0.00526177C8.6182 -0.0536143 0.346114 1.46244 0.346114 1.46244Z" fill="url(#paint0_linear_624_321)"/>
<path d="M4.15908 1.52836C1.76724 1.45476 0.413086 1.49892 0.413086 1.49892C0.442524 1.76387 0.479325 2.02144 0.508763 2.28638C-0.918982 60.6767 27.4814 88.0099 55.3445 100.779C75.6641 111.855 95.52 112.274 103.476 111.892C105.875 111.965 107.229 111.921 107.229 111.921C107.2 111.656 107.163 111.398 107.133 111.133C108.561 52.7432 80.1607 25.41 52.2976 12.6412C31.9707 1.56516 12.1147 1.14566 4.15908 1.52836Z" fill="url(#paint1_linear_624_321)"/>
<path d="M241.12 1.46244C241.356 5.77511 241.466 9.91852 241.459 13.9074C241.459 16.1667 241.51 28.4203 241.385 32.1148C241.039 41.9692 239.692 50.6534 237.551 58.3073C226.916 96.3191 196.654 108.727 171.602 112.208C170.844 112.333 170.108 112.436 169.372 112.517C163.97 113.231 158.87 113.459 154.366 113.415C142.429 113.474 134.179 111.958 134.179 111.958C133.811 105.202 133.826 88.5622 133.826 86.4721C133.826 23.4526 172.721 5.51017 203.675 1.21222C204.433 1.08711 205.169 0.984077 205.905 0.903122C211.329 0.18925 216.407 -0.0388953 220.911 0.00526177C232.848 -0.0536143 241.12 1.46244 241.12 1.46244Z" fill="url(#paint2_linear_624_321)"/>
<path d="M237.307 1.52836C239.699 1.45476 241.053 1.49892 241.053 1.49892C241.024 1.76387 240.987 2.02144 240.958 2.28638C242.385 60.6767 213.985 88.0099 186.122 100.779C165.802 111.855 145.946 112.274 137.991 111.892C135.591 111.965 134.237 111.921 134.237 111.921C134.267 111.656 134.304 111.398 134.333 111.133C132.905 52.7432 161.306 25.41 189.169 12.6412C209.496 1.56516 229.352 1.14566 237.307 1.52836Z" fill="url(#paint3_linear_624_321)"/>
<path d="M0.346114 250.537C0.11061 246.225 0.000218303 242.081 0.00757781 238.092C0.00757781 235.833 -0.0439399 223.579 0.0811717 219.885C0.427069 210.03 1.77386 201.346 3.91547 193.692C14.55 155.681 44.8122 143.272 69.864 139.791C70.622 139.666 71.358 139.563 72.0939 139.482C77.4958 138.768 82.5959 138.54 87.1 138.584C99.0371 138.525 107.287 140.042 107.287 140.042C107.655 146.798 107.64 163.437 107.64 165.528C107.64 228.547 68.7454 246.489 37.7913 250.787C37.0332 250.913 36.2973 251.016 35.5613 251.097C30.1374 251.81 25.0593 252.039 20.5553 251.994C8.6182 252.053 0.346114 250.537 0.346114 250.537Z" fill="url(#paint4_linear_624_321)"/>
<path d="M4.15908 250.464C1.76724 250.537 0.413086 250.493 0.413086 250.493C0.442524 250.228 0.479325 249.971 0.508763 249.706C-0.918982 191.315 27.4814 163.982 55.3445 151.213C75.6641 140.137 95.52 139.718 103.476 140.101C105.875 140.027 107.229 140.071 107.229 140.071C107.2 140.336 107.163 140.594 107.133 140.859C108.561 199.249 80.1607 226.582 52.2976 239.351C31.9707 250.427 12.1147 250.846 4.15908 250.464Z" fill="url(#paint5_linear_624_321)"/>
<defs>
<linearGradient id="paint0_linear_624_321" x1="39.5134" y1="32.5711" x2="91.7585" y2="120.731" gradientUnits="userSpaceOnUse">
<stop stop-color="#5AB947"/>
<stop offset="1" stop-color="#055998"/>
</linearGradient>
<linearGradient id="paint1_linear_624_321" x1="98.1168" y1="121.104" x2="35.8482" y2="30.6831" gradientUnits="userSpaceOnUse">
<stop stop-color="#1EA657"/>
<stop offset="1" stop-color="#055998"/>
</linearGradient>
<linearGradient id="paint2_linear_624_321" x1="201.953" y1="32.5711" x2="149.708" y2="120.731" gradientUnits="userSpaceOnUse">
<stop stop-color="#5AB947"/>
<stop offset="1" stop-color="#055998"/>
</linearGradient>
<linearGradient id="paint3_linear_624_321" x1="143.344" y1="121.09" x2="205.613" y2="30.669" gradientUnits="userSpaceOnUse">
<stop stop-color="#1EA657"/>
<stop offset="1" stop-color="#055998"/>
</linearGradient>
<linearGradient id="paint4_linear_624_321" x1="39.5134" y1="219.421" x2="91.7586" y2="131.262" gradientUnits="userSpaceOnUse">
<stop stop-color="#5AB947"/>
<stop offset="1" stop-color="#055998"/>
</linearGradient>
<linearGradient id="paint5_linear_624_321" x1="98.09" y1="130.9" x2="35.8214" y2="221.32" gradientUnits="userSpaceOnUse">
<stop stop-color="#1EA657"/>
<stop offset="1" stop-color="#055998"/>
</linearGradient>
</defs>
</svg>
